<svg xmlns="http://www.w3.org/2000/svg" width="1em" height="1em" viewBox="0 0 32 32"><path fill="#fbc02d" d="m13.844 7.536l-1.288-1.072A2 2 0 0 0 11.276 6H4a2 2 0 0 0-2 2v16a2 2 0 0 0 2 2h24a2 2 0 0 0 2-2V10a2 2 0 0 0-2-2H15.124a2 2 0 0 1-1.28-.464"/><path fill="#fff9c4" d="m32 24.526l-6.387 3.314a1.43 1.43 0 0 1-1.313 0L18 24.526l11.419-10.76l.307-.08c.261 0 .41.106.437.326zM22.68 13.93l-3.98 6.178l1.662-9.778c.026-.22.175-.327.438-.327a.32.32 0 0 1 .35.205l1.882 3.232l-.35.491m3.937 1.03l-8.356 7.848l6.343-10.066a.42.42 0 0 1 .395-.237a.335.335 0 0 1 .35.237Z"/></svg>