<svg xmlns="http://www.w3.org/2000/svg" width="1em" height="1em" viewBox="0 0 16 16"><g fill="none"><path fill="url(#IconifyId195ac99e25a590abd180)" d="M10 12a2 2 0 1 1-4 0a2 2 0 0 1 4 0"/><path fill="url(#IconifyId195ac99e25a590abd181)" d="M8 2a4.5 4.5 0 0 0-4.5 4.5v2.401l-.964 2.414A.5.5 0 0 0 3 12h10a.5.5 0 0 0 .464-.685L12.5 8.9V6.5A4.5 4.5 0 0 0 8 2"/><defs><linearGradient id="IconifyId195ac99e25a590abd180" x1="8.013" x2="8.013" y1="11.5" y2="14" gradientUnits="userSpaceOnUse"><stop offset=".152" stop-color="#EB4824"/><stop offset="1" stop-color="#FFCD0F" stop-opacity=".988"/></linearGradient><linearGradient id="IconifyId195ac99e25a590abd181" x1="13.516" x2="3.879" y1="11.996" y2="3.325" gradientUnits="userSpaceOnUse"><stop stop-color="#FF6F47"/><stop offset="1" stop-color="#FFCD0F"/></linearGradient></defs></g></svg>