<svg xmlns="http://www.w3.org/2000/svg" width="1em" height="1em" viewBox="0 0 20 20"><g fill="none"><path fill="url(#IconifyId195ac99e25a590abd3944)" d="M5 3a2 2 0 0 0-2 2v10a2 2 0 0 0 2 2h10a2 2 0 0 0 2-2V5a2 2 0 0 0-2-2z"/><path fill="url(#IconifyId195ac99e25a590abd3945)" d="M10.5 6.5a.5.5 0 0 0-1 0v5.793L6.854 9.646a.5.5 0 1 0-.708.708l3.5 3.5a.5.5 0 0 0 .708 0l3.5-3.5a.5.5 0 0 0-.708-.708L10.5 12.293z"/><defs><linearGradient id="IconifyId195ac99e25a590abd3944" x1="3.5" x2="14.5" y1="5.625" y2="14.375" gradientUnits="userSpaceOnUse"><stop stop-color="#36DFF1"/><stop offset="1" stop-color="#2764E7"/></linearGradient><linearGradient id="IconifyId195ac99e25a590abd3945" x1="7.538" x2="14" y1="6.615" y2="20.615" gradientUnits="userSpaceOnUse"><stop stop-color="#fff"/><stop offset="1" stop-color="#B3E0FF"/></linearGradient></defs></g></svg>