<svg xmlns="http://www.w3.org/2000/svg" width="1em" height="1em" viewBox="0 0 20 20"><g fill="none"><path fill="url(#IconifyId195ac99e25a590abd4646)" d="M17 10a1 1 0 1 0-2 0v7a1 1 0 1 0 2 0z"/><path fill="url(#IconifyId195ac99e25a590abd4647)" d="M9 12a1 1 0 1 0-2 0v5a1 1 0 1 0 2 0z"/><path fill="url(#IconifyId195ac99e25a590abd4648)" d="M5 15a1 1 0 1 0-2 0v2a1 1 0 1 0 2 0z"/><path fill="url(#IconifyId195ac99e25a590abd4649)" d="M12 13a1 1 0 0 1 1 1v3a1 1 0 1 1-2 0v-3a1 1 0 0 1 1-1"/><path fill="url(#IconifyId195ac99e25a590abd4650)" fill-rule="evenodd" d="M14 4a1 1 0 1 1 0-2h3a1 1 0 0 1 1 1v3a1 1 0 1 1-2 0v-.586l-3.793 3.793a1 1 0 0 1-1.414 0L8.5 6.914l-4.293 4.293a1 1 0 0 1-1.414-1.414l5-5a1 1 0 0 1 1.414 0L11.5 7.086L14.586 4z" clip-rule="evenodd"/><defs><linearGradient id="IconifyId195ac99e25a590abd4646" x1="17.913" x2="2.086" y1="8.481" y2="18" gradientUnits="userSpaceOnUse"><stop stop-color="#0094F0"/><stop offset="1" stop-color="#2764E7"/></linearGradient><linearGradient id="IconifyId195ac99e25a590abd4647" x1="17.913" x2="2.086" y1="8.481" y2="18" gradientUnits="userSpaceOnUse"><stop stop-color="#0094F0"/><stop offset="1" stop-color="#2764E7"/></linearGradient><linearGradient id="IconifyId195ac99e25a590abd4648" x1="17.913" x2="2.086" y1="8.481" y2="18" gradientUnits="userSpaceOnUse"><stop stop-color="#0094F0"/><stop offset="1" stop-color="#2764E7"/></linearGradient><linearGradient id="IconifyId195ac99e25a590abd4649" x1="17.913" x2="2.086" y1="8.481" y2="18" gradientUnits="userSpaceOnUse"><stop stop-color="#0094F0"/><stop offset="1" stop-color="#2764E7"/></linearGradient><linearGradient id="IconifyId195ac99e25a590abd4650" x1="3.045" x2="18" y1="11.5" y2="1.218" gradientUnits="userSpaceOnUse"><stop stop-color="#22918B"/><stop offset="1" stop-color="#20AC9D"/></linearGradient></defs></g></svg>