<svg xmlns="http://www.w3.org/2000/svg" width="1em" height="1em" viewBox="0 0 20 20"><g fill="none"><path fill="url(#IconifyId195ac99e25a590abd5261)" d="m17 12l-3.5-.5l-3.5.5l-.5 2.5l.5 2.5h4a3 3 0 0 0 3-3z"/><path fill="url(#IconifyId195ac99e25a590abd5262)" d="m10 3l-.5 4.5l.5 4.5h7V6a3 3 0 0 0-3-3z"/><path fill="url(#IconifyId195ac99e25a590abd5263)" d="M10 17V8l-3.5-.5L3 8v6a3 3 0 0 0 3 3z"/><path fill="url(#IconifyId195ac99e25a590abd5264)" d="M10 3v5H3V6a3 3 0 0 1 3-3z"/><defs><linearGradient id="IconifyId195ac99e25a590abd5261" x1="7" x2="11.1" y1="9.5" y2="18.877" gradientUnits="userSpaceOnUse"><stop stop-color="#B0F098"/><stop offset="1" stop-color="#52D17C"/></linearGradient><linearGradient id="IconifyId195ac99e25a590abd5262" x1="11" x2="16.328" y1="4" y2="10.741" gradientUnits="userSpaceOnUse"><stop stop-color="#52D17C"/><stop offset="1" stop-color="#309C61"/></linearGradient><linearGradient id="IconifyId195ac99e25a590abd5263" x1="4" x2="9.456" y1="9" y2="14.562" gradientUnits="userSpaceOnUse"><stop stop-color="#42B870"/><stop offset="1" stop-color="#1A7F7C"/></linearGradient><linearGradient id="IconifyId195ac99e25a590abd5264" x1="4" x2="6.071" y1="4" y2="9.005" gradientUnits="userSpaceOnUse"><stop stop-color="#B0F098"/><stop offset="1" stop-color="#64DE89"/></linearGradient></defs></g></svg>