<svg xmlns="http://www.w3.org/2000/svg" width="1em" height="1em" viewBox="0 0 16 16"><g fill="none"><path fill="url(#IconifyId195ac99e25a590abd7191)" d="M5.5 2A1.5 1.5 0 0 0 4 3.5v10a.5.5 0 0 0 .5.5h8a.5.5 0 0 0 .5-.5v-5A1.5 1.5 0 0 0 11.5 7H11V3.5A1.5 1.5 0 0 0 9.5 2z"/><path fill="url(#IconifyId195ac99e25a590abd7192)" d="M8.5 14L8 12.5l.5-1.5h2a.5.5 0 0 1 .5.5V14z"/><path fill="url(#IconifyId195ac99e25a590abd7193)" d="M6 14v-2.5a.5.5 0 0 1 .5-.5h2v3z"/><path fill="url(#IconifyId195ac99e25a590abd7194)" d="M11 9.5a.5.5 0 1 1-1 0a.5.5 0 0 1 1 0"/><path fill="url(#IconifyId195ac99e25a590abd7195)" d="M9 9.5a.5.5 0 1 1-1 0a.5.5 0 0 1 1 0"/><path fill="url(#IconifyId195ac99e25a590abd7196)" d="M7 9.5a.5.5 0 1 1-1 0a.5.5 0 0 1 1 0"/><path fill="url(#IconifyId195ac99e25a590abd7197)" d="M9 7a.5.5 0 1 1-1 0a.5.5 0 0 1 1 0"/><path fill="url(#IconifyId195ac99e25a590abd7198)" d="M7 7a.5.5 0 1 1-1 0a.5.5 0 0 1 1 0"/><path fill="url(#IconifyId195ac99e25a590abd7199)" d="M9 4.5a.5.5 0 1 1-1 0a.5.5 0 0 1 1 0"/><path fill="url(#IconifyId195ac99e25a590abd7200)" d="M7 4.5a.5.5 0 1 1-1 0a.5.5 0 0 1 1 0"/><defs><linearGradient id="IconifyId195ac99e25a590abd7191" x1="4" x2="15.443" y1="2.375" y2="13.362" gradientUnits="userSpaceOnUse"><stop stop-color="#29C3FF"/><stop offset="1" stop-color="#2764E7"/></linearGradient><linearGradient id="IconifyId195ac99e25a590abd7192" x1="8.107" x2="10.178" y1="11.563" y2="13.713" gradientUnits="userSpaceOnUse"><stop stop-color="#0067BF"/><stop offset="1" stop-color="#003580"/></linearGradient><linearGradient id="IconifyId195ac99e25a590abd7193" x1="6.089" x2="8.14" y1="11.563" y2="13.338" gradientUnits="userSpaceOnUse"><stop stop-color="#0067BF"/><stop offset="1" stop-color="#003580"/></linearGradient><linearGradient id="IconifyId195ac99e25a590abd7194" x1="7.5" x2="10.05" y1="3.333" y2="10.983" gradientUnits="userSpaceOnUse"><stop stop-color="#FDFDFD"/><stop offset="1" stop-color="#B3E0FF"/></linearGradient><linearGradient id="IconifyId195ac99e25a590abd7195" x1="7.5" x2="10.05" y1="3.333" y2="10.983" gradientUnits="userSpaceOnUse"><stop stop-color="#FDFDFD"/><stop offset="1" stop-color="#B3E0FF"/></linearGradient><linearGradient id="IconifyId195ac99e25a590abd7196" x1="7.5" x2="10.05" y1="3.333" y2="10.983" gradientUnits="userSpaceOnUse"><stop stop-color="#FDFDFD"/><stop offset="1" stop-color="#B3E0FF"/></linearGradient><linearGradient id="IconifyId195ac99e25a590abd7197" x1="7.5" x2="10.05" y1="3.333" y2="10.983" gradientUnits="userSpaceOnUse"><stop stop-color="#FDFDFD"/><stop offset="1" stop-color="#B3E0FF"/></linearGradient><linearGradient id="IconifyId195ac99e25a590abd7198" x1="7.5" x2="10.05" y1="3.333" y2="10.983" gradientUnits="userSpaceOnUse"><stop stop-color="#FDFDFD"/><stop offset="1" stop-color="#B3E0FF"/></linearGradient><linearGradient id="IconifyId195ac99e25a590abd7199" x1="7.5" x2="10.05" y1="3.333" y2="10.983" gradientUnits="userSpaceOnUse"><stop stop-color="#FDFDFD"/><stop offset="1" stop-color="#B3E0FF"/></linearGradient><linearGradient id="IconifyId195ac99e25a590abd7200" x1="7.5" x2="10.05" y1="3.333" y2="10.983" gradientUnits="userSpaceOnUse"><stop stop-color="#FDFDFD"/><stop offset="1" stop-color="#B3E0FF"/></linearGradient></defs></g></svg>