<svg xmlns="http://www.w3.org/2000/svg" width="1em" height="1em" viewBox="0 0 28 28"><g fill="none"><path fill="url(#IconifyId195ac99e25a590abd15849)" d="M14 26c4.97 0 9-2.015 9-4.5v-3H5v3c0 2.485 4.03 4.5 9 4.5"/><ellipse cx="14" cy="18.5" fill="url(#IconifyId195ac99e25a590abd15850)" rx="9" ry="4.5"/><path fill="url(#IconifyId195ac99e25a590abd15851)" d="M14 20c4.97 0 9-2.015 9-4.5v-3H5v3c0 2.485 4.03 4.5 9 4.5"/><ellipse cx="14" cy="12.5" fill="url(#IconifyId195ac99e25a590abd15852)" rx="9" ry="4.5"/><path fill="url(#IconifyId195ac99e25a590abd15853)" d="M14 14c4.97 0 9-2.015 9-4.5v-3H5v3c0 2.485 4.03 4.5 9 4.5"/><ellipse cx="14" cy="6.5" fill="url(#IconifyId195ac99e25a590abd15854)" rx="9" ry="4.5"/><defs><linearGradient id="IconifyId195ac99e25a590abd15849" x1="9.774" x2="12.382" y1="20.34" y2="26.606" gradientUnits="userSpaceOnUse"><stop stop-color="#FFA43D"/><stop offset="1" stop-color="#FB5937"/></linearGradient><linearGradient id="IconifyId195ac99e25a590abd15850" x1="23.026" x2="15.264" y1="22.997" y2="10.298" gradientUnits="userSpaceOnUse"><stop stop-color="#FF8A69"/><stop offset="1" stop-color="#FFCD0F"/></linearGradient><linearGradient id="IconifyId195ac99e25a590abd15851" x1="9.774" x2="12.382" y1="14.341" y2="20.606" gradientUnits="userSpaceOnUse"><stop stop-color="#FFA43D"/><stop offset="1" stop-color="#FB5937"/></linearGradient><linearGradient id="IconifyId195ac99e25a590abd15852" x1="23.026" x2="15.264" y1="16.997" y2="4.298" gradientUnits="userSpaceOnUse"><stop stop-color="#FF8A69"/><stop offset="1" stop-color="#FFCD0F"/></linearGradient><linearGradient id="IconifyId195ac99e25a590abd15853" x1="9.774" x2="12.382" y1="8.341" y2="14.606" gradientUnits="userSpaceOnUse"><stop stop-color="#FFA43D"/><stop offset="1" stop-color="#FB5937"/></linearGradient><linearGradient id="IconifyId195ac99e25a590abd15854" x1="23.026" x2="15.264" y1="10.996" y2="-1.702" gradientUnits="userSpaceOnUse"><stop stop-color="#FF8A69"/><stop offset="1" stop-color="#FFCD0F"/></linearGradient></defs></g></svg>