<svg xmlns="http://www.w3.org/2000/svg" width="1em" height="1em" viewBox="0 0 24 24"><g fill="none"><path fill="url(#IconifyId195ad048a32870fdf16059)" d="M12 22c3.866 0 7-1.79 7-4v-2H5v2c0 2.21 3.134 4 7 4"/><ellipse cx="12" cy="16" fill="url(#IconifyId195ad048a32870fdf16060)" rx="7" ry="4"/><path fill="url(#IconifyId195ad048a32870fdf16061)" d="M12 17c3.866 0 7-1.79 7-4v-2H5v2c0 2.21 3.134 4 7 4"/><ellipse cx="12" cy="11" fill="url(#IconifyId195ad048a32870fdf16062)" rx="7" ry="4"/><path fill="url(#IconifyId195ad048a32870fdf16063)" d="M12 12c3.866 0 7-1.79 7-4V6H5v2c0 2.21 3.134 4 7 4"/><ellipse cx="12" cy="6" fill="url(#IconifyId195ad048a32870fdf16064)" rx="7" ry="4"/><defs><linearGradient id="IconifyId195ad048a32870fdf16059" x1="8.713" x2="10.841" y1="17.472" y2="22.442" gradientUnits="userSpaceOnUse"><stop stop-color="#FFA43D"/><stop offset="1" stop-color="#FB5937"/></linearGradient><linearGradient id="IconifyId195ad048a32870fdf16060" x1="19.02" x2="11.741" y1="19.997" y2="9.577" gradientUnits="userSpaceOnUse"><stop stop-color="#FF8A69"/><stop offset="1" stop-color="#FFCD0F"/></linearGradient><linearGradient id="IconifyId195ad048a32870fdf16061" x1="8.713" x2="10.841" y1="12.472" y2="17.442" gradientUnits="userSpaceOnUse"><stop stop-color="#FFA43D"/><stop offset="1" stop-color="#FB5937"/></linearGradient><linearGradient id="IconifyId195ad048a32870fdf16062" x1="19.02" x2="11.741" y1="14.997" y2="4.577" gradientUnits="userSpaceOnUse"><stop stop-color="#FF8A69"/><stop offset="1" stop-color="#FFCD0F"/></linearGradient><linearGradient id="IconifyId195ad048a32870fdf16063" x1="8.713" x2="10.841" y1="7.472" y2="12.442" gradientUnits="userSpaceOnUse"><stop stop-color="#FFA43D"/><stop offset="1" stop-color="#FB5937"/></linearGradient><linearGradient id="IconifyId195ad048a32870fdf16064" x1="19.02" x2="11.741" y1="9.997" y2="-.423" gradientUnits="userSpaceOnUse"><stop stop-color="#FF8A69"/><stop offset="1" stop-color="#FFCD0F"/></linearGradient></defs></g></svg>