<svg xmlns="http://www.w3.org/2000/svg" width="1em" height="1em" viewBox="0 0 48 48"><g fill="none"><path fill="url(#IconifyId195ac99e25a590abd17000)" d="M4 12.25A4.25 4.25 0 0 1 8.25 8h31.5A4.25 4.25 0 0 1 44 12.25v23.5A4.25 4.25 0 0 1 39.75 40H8.25A4.25 4.25 0 0 1 4 35.75z"/><path fill="url(#IconifyId195ac99e25a590abd17001)" fill-opacity=".7" d="M4 12.25A4.25 4.25 0 0 1 8.25 8h31.5A4.25 4.25 0 0 1 44 12.25v23.5A4.25 4.25 0 0 1 39.75 40H8.25A4.25 4.25 0 0 1 4 35.75z"/><path fill="url(#IconifyId195ac99e25a590abd17002)" d="M25 20.25c0-.69.56-1.25 1.25-1.25h9.5a1.25 1.25 0 1 1 0 2.5h-9.5c-.69 0-1.25-.56-1.25-1.25M26.25 26a1.25 1.25 0 1 0 0 2.5h9.5a1.25 1.25 0 1 0 0-2.5z"/><path fill="url(#IconifyId195ac99e25a590abd17003)" d="M11 26.5a1.5 1.5 0 0 1 1.5-1.5h7a1.5 1.5 0 0 1 1.5 1.5v.5s0 4-5 4s-5-4-5-4z"/><path fill="url(#IconifyId195ac99e25a590abd17004)" d="M19 20a3 3 0 1 1-6 0a3 3 0 0 1 6 0"/><defs><linearGradient id="IconifyId195ac99e25a590abd17000" x1="18.286" x2="28.618" y1="8" y2="39.892" gradientUnits="userSpaceOnUse"><stop stop-color="#B3E0FF"/><stop offset="1" stop-color="#8CD0FF"/></linearGradient><linearGradient id="IconifyId195ac99e25a590abd17001" x1="30.191" x2="38.967" y1="11.93" y2="57.58" gradientUnits="userSpaceOnUse"><stop offset=".447" stop-color="#FF6CE8" stop-opacity="0"/><stop offset="1" stop-color="#FF6CE8"/></linearGradient><linearGradient id="IconifyId195ac99e25a590abd17002" x1="29.909" x2="33.794" y1="17.904" y2="36.549" gradientUnits="userSpaceOnUse"><stop stop-color="#0078D4"/><stop offset="1" stop-color="#0067BF"/></linearGradient><linearGradient id="IconifyId195ac99e25a590abd17003" x1="11" x2="13.384" y1="21.358" y2="31.838" gradientUnits="userSpaceOnUse"><stop offset=".125" stop-color="#9C6CFE"/><stop offset="1" stop-color="#7A41DC"/></linearGradient><linearGradient id="IconifyId195ac99e25a590abd17004" x1="13" x2="17.485" y1="15" y2="22.68" gradientUnits="userSpaceOnUse"><stop offset=".125" stop-color="#9C6CFE"/><stop offset="1" stop-color="#7A41DC"/></linearGradient></defs></g></svg>