<svg xmlns="http://www.w3.org/2000/svg" width="1em" height="1em" viewBox="0 0 20 20"><g fill="none"><path fill="url(#IconifyId195ac99e25a590abd17543)" d="M17 5a2 2 0 1 0-4 0v10a2 2 0 1 0 4 0z"/><path fill="url(#IconifyId195ac99e25a590abd17544)" d="M12 8a2 2 0 1 0-4 0v7a2 2 0 1 0 4 0z"/><path fill="url(#IconifyId195ac99e25a590abd17545)" d="M7 11a2 2 0 1 0-4 0v4a2 2 0 1 0 4 0z"/><defs><linearGradient id="IconifyId195ac99e25a590abd17543" x1="16.474" x2="26.659" y1="-1.3" y2="4.133" gradientUnits="userSpaceOnUse"><stop stop-color="#16BBDA"/><stop offset="1" stop-color="#0067BF"/></linearGradient><linearGradient id="IconifyId195ac99e25a590abd17544" x1="8.386" x2="17.444" y1="3.312" y2="9.351" gradientUnits="userSpaceOnUse"><stop stop-color="#16BBDA"/><stop offset="1" stop-color="#0067BF"/></linearGradient><linearGradient id="IconifyId195ac99e25a590abd17545" x1="2.75" x2="9.859" y1="4.5" y2="11.017" gradientUnits="userSpaceOnUse"><stop stop-color="#16BBDA"/><stop offset="1" stop-color="#0067BF"/></linearGradient></defs></g></svg>