<svg xmlns="http://www.w3.org/2000/svg" width="1em" height="1em" viewBox="0 0 16 16"><g fill="none"><path fill="url(#IconifyId195ac99e25a590abd17466)" d="M14 3.683C14 2.753 13.328 2 12.5 2S11 2.754 11 3.683v8.634c0 .93.672 1.683 1.5 1.683s1.5-.754 1.5-1.683z"/><path fill="url(#IconifyId195ac99e25a590abd17467)" d="M10.003 6.5a1.5 1.5 0 0 0-3 0v6a1.5 1.5 0 0 0 3 0z"/><path fill="url(#IconifyId195ac99e25a590abd17468)" d="M6 9.497a1.5 1.5 0 1 0-3 0v3a1.5 1.5 0 0 0 3 0z"/><defs><linearGradient id="IconifyId195ac99e25a590abd17466" x1="13.605" x2="21.663" y1="-1.686" y2="2.075" gradientUnits="userSpaceOnUse"><stop stop-color="#16BBDA"/><stop offset="1" stop-color="#0067BF"/></linearGradient><linearGradient id="IconifyId195ac99e25a590abd17467" x1="7.292" x2="14.437" y1="2.802" y2="7.168" gradientUnits="userSpaceOnUse"><stop stop-color="#16BBDA"/><stop offset="1" stop-color="#0067BF"/></linearGradient><linearGradient id="IconifyId195ac99e25a590abd17468" x1="2.813" x2="8.145" y1="4.622" y2="9.509" gradientUnits="userSpaceOnUse"><stop stop-color="#16BBDA"/><stop offset="1" stop-color="#0067BF"/></linearGradient></defs></g></svg>