<svg xmlns="http://www.w3.org/2000/svg" width="1em" height="1em" viewBox="0 0 24 24"><g fill="none"><path fill="url(#IconifyId195ad048a32870fdf18106)" d="M18.886 6.857a.75.75 0 0 1 .257 1.029l-3 5a.75.75 0 0 1-1.286-.772l3-5a.75.75 0 0 1 1.029-.257"/><path fill="url(#IconifyId195ad048a32870fdf18100)" d="M18.886 6.857a.75.75 0 0 1 .257 1.029l-3 5a.75.75 0 0 1-1.286-.772l3-5a.75.75 0 0 1 1.029-.257"/><path fill="url(#IconifyId195ad048a32870fdf18101)" d="M18.886 6.857a.75.75 0 0 1 .257 1.029l-3 5a.75.75 0 0 1-1.286-.772l3-5a.75.75 0 0 1 1.029-.257"/><path fill="url(#IconifyId195ad048a32870fdf18102)" d="M18.886 6.857a.75.75 0 0 1 .257 1.029l-3 5a.75.75 0 0 1-1.286-.772l3-5a.75.75 0 0 1 1.029-.257"/><path fill="url(#IconifyId195ad048a32870fdf18107)" d="M13.67 14.165a.75.75 0 0 1-.335 1.006l-7 3.5a.75.75 0 1 1-.67-1.342l7-3.5a.75.75 0 0 1 1.006.336"/><path fill="url(#IconifyId195ad048a32870fdf18103)" d="M13.67 14.165a.75.75 0 0 1-.335 1.006l-7 3.5a.75.75 0 1 1-.67-1.342l7-3.5a.75.75 0 0 1 1.006.336"/><path fill="url(#IconifyId195ad048a32870fdf18104)" d="M13.67 14.165a.75.75 0 0 1-.335 1.006l-7 3.5a.75.75 0 1 1-.67-1.342l7-3.5a.75.75 0 0 1 1.006.336"/><path fill="url(#IconifyId195ad048a32870fdf18105)" d="M13.67 14.165a.75.75 0 0 1-.335 1.006l-7 3.5a.75.75 0 1 1-.67-1.342l7-3.5a.75.75 0 0 1 1.006.336"/><circle cx="5" cy="18" r="3" fill="url(#IconifyId195ad048a32870fdf18108)"/><circle cx="14" cy="14" r="3" fill="url(#IconifyId195ad048a32870fdf18109)"/><circle cx="19" cy="6" r="3" fill="url(#IconifyId195ad048a32870fdf18110)"/><defs><radialGradient id="IconifyId195ad048a32870fdf18100" cx="0" cy="0" r="1" gradientTransform="matrix(5.0256 1.45453 -1.73792 6.00475 3.814 18.75)" gradientUnits="userSpaceOnUse"><stop offset=".549" stop-color="#70777D"/><stop offset="1" stop-color="#70777D" stop-opacity="0"/></radialGradient><radialGradient id="IconifyId195ad048a32870fdf18101" cx="0" cy="0" r="1" gradientTransform="rotate(83.419 6.63 13.83)scale(4.63728 5.41306)" gradientUnits="userSpaceOnUse"><stop offset=".549" stop-color="#70777D"/><stop offset="1" stop-color="#70777D" stop-opacity="0"/></radialGradient><radialGradient id="IconifyId195ad048a32870fdf18102" cx="0" cy="0" r="1" gradientTransform="matrix(4.67419 0 0 4.67272 13.908 13.9)" gradientUnits="userSpaceOnUse"><stop offset=".549" stop-color="#70777D"/><stop offset="1" stop-color="#70777D" stop-opacity="0"/></radialGradient><radialGradient id="IconifyId195ad048a32870fdf18103" cx="0" cy="0" r="1" gradientTransform="matrix(5.0256 1.45453 -1.73792 6.00475 3.814 18.75)" gradientUnits="userSpaceOnUse"><stop offset=".549" stop-color="#70777D"/><stop offset="1" stop-color="#70777D" stop-opacity="0"/></radialGradient><radialGradient id="IconifyId195ad048a32870fdf18104" cx="0" cy="0" r="1" gradientTransform="rotate(83.419 6.63 13.83)scale(4.63728 5.41306)" gradientUnits="userSpaceOnUse"><stop offset=".549" stop-color="#70777D"/><stop offset="1" stop-color="#70777D" stop-opacity="0"/></radialGradient><radialGradient id="IconifyId195ad048a32870fdf18105" cx="0" cy="0" r="1" gradientTransform="matrix(4.67419 0 0 4.67272 13.908 13.9)" gradientUnits="userSpaceOnUse"><stop offset=".549" stop-color="#70777D"/><stop offset="1" stop-color="#70777D" stop-opacity="0"/></radialGradient><linearGradient id="IconifyId195ad048a32870fdf18106" x1="5.25" x2="21.244" y1="6.75" y2="22.18" gradientUnits="userSpaceOnUse"><stop stop-color="#B9C0C7"/><stop offset="1" stop-color="#70777D"/></linearGradient><linearGradient id="IconifyId195ad048a32870fdf18107" x1="5.25" x2="21.244" y1="6.75" y2="22.18" gradientUnits="userSpaceOnUse"><stop stop-color="#B9C0C7"/><stop offset="1" stop-color="#70777D"/></linearGradient><linearGradient id="IconifyId195ad048a32870fdf18108" x1="2.75" x2="9.204" y1="15.25" y2="22.884" gradientUnits="userSpaceOnUse"><stop stop-color="#36DFF1"/><stop offset="1" stop-color="#0078D4"/></linearGradient><linearGradient id="IconifyId195ad048a32870fdf18109" x1="17" x2="7.4" y1="17" y2="7.4" gradientUnits="userSpaceOnUse"><stop stop-color="#6D37CD"/><stop offset=".641" stop-color="#EA71EF"/></linearGradient><linearGradient id="IconifyId195ad048a32870fdf18110" x1="21.5" x2="17.2" y1="7.9" y2="3" gradientUnits="userSpaceOnUse"><stop stop-color="#E23CB4"/><stop offset="1" stop-color="#EA71EF"/></linearGradient></defs></g></svg>