<svg xmlns="http://www.w3.org/2000/svg" width="1em" height="1em" viewBox="0 0 20 20"><g fill="none"><path fill="url(#IconifyId195ad048a32870fdf19326)" d="M10 2a8 8 0 1 1 0 16a8 8 0 0 1 0-16"/><path fill="url(#IconifyId195ad048a32870fdf19327)" fill-rule="evenodd" d="M7.146 7.146a.5.5 0 0 1 .708 0L10 9.293l2.146-2.147a.5.5 0 0 1 .708.708L10.707 10l2.147 2.146a.5.5 0 0 1-.708.708L10 10.707l-2.146 2.147a.5.5 0 0 1-.708-.708L9.293 10L7.146 7.854a.5.5 0 0 1 0-.708" clip-rule="evenodd"/><defs><linearGradient id="IconifyId195ad048a32870fdf19326" x1="4.5" x2="15" y1="3" y2="18.5" gradientUnits="userSpaceOnUse"><stop stop-color="#F83F54"/><stop offset="1" stop-color="#CA2134"/></linearGradient><linearGradient id="IconifyId195ad048a32870fdf19327" x1="7.348" x2="10.473" y1="10.265" y2="13.514" gradientUnits="userSpaceOnUse"><stop stop-color="#FDFDFD"/><stop offset="1" stop-color="#FECBE6"/></linearGradient></defs></g></svg>