<svg xmlns="http://www.w3.org/2000/svg" width="1em" height="1em" viewBox="0 0 16 16"><g fill="none"><path fill="url(#IconifyId195ac99e25a590abd19895)" d="M9 1H5.5A1.5 1.5 0 0 0 4 2.5v11A1.5 1.5 0 0 0 5.5 15h6.992a1.5 1.5 0 0 0 1.5-1.5L14 6l-3.5-1.5z"/><path fill="url(#IconifyId195ac99e25a590abd19900)" fill-opacity=".5" d="M9 1H5.5A1.5 1.5 0 0 0 4 2.5v11A1.5 1.5 0 0 0 5.5 15h6.992a1.5 1.5 0 0 0 1.5-1.5L14 6l-3.5-1.5z"/><path fill="url(#IconifyId195ac99e25a590abd19901)" fill-opacity=".5" d="M9 1H5.5A1.5 1.5 0 0 0 4 2.5v11A1.5 1.5 0 0 0 5.5 15h6.992a1.5 1.5 0 0 0 1.5-1.5L14 6l-3.5-1.5z"/><path fill="url(#IconifyId195ac99e25a590abd19896)" d="M9 4.5V1l5 5h-3.5A1.5 1.5 0 0 1 9 4.5"/><path fill="url(#IconifyId195ac99e25a590abd19897)" d="M10 10.5a4.5 4.5 0 1 0-9 0a4.5 4.5 0 0 0 9 0"/><path fill="url(#IconifyId195ac99e25a590abd19898)" d="M5.003 8.5a.5.5 0 0 1 1 0v4a.5.5 0 0 1-1 0z"/><path fill="url(#IconifyId195ac99e25a590abd19899)" d="M7.5 9.989a.5.5 0 0 1 .006 1l-4 .022a.5.5 0 1 1-.006-1z"/><defs><linearGradient id="IconifyId195ac99e25a590abd19895" x1="10.994" x2="12.264" y1="1" y2="12.781" gradientUnits="userSpaceOnUse"><stop stop-color="#6CE0FF"/><stop offset="1" stop-color="#4894FE"/></linearGradient><linearGradient id="IconifyId195ac99e25a590abd19896" x1="11.492" x2="10.242" y1="3.083" y2="5.167" gradientUnits="userSpaceOnUse"><stop stop-color="#9FF0F9"/><stop offset="1" stop-color="#B3E0FF"/></linearGradient><linearGradient id="IconifyId195ac99e25a590abd19897" x1="1.321" x2="7.533" y1="7.688" y2="14.141" gradientUnits="userSpaceOnUse"><stop stop-color="#52D17C"/><stop offset="1" stop-color="#22918B"/></linearGradient><linearGradient id="IconifyId195ac99e25a590abd19898" x1="3.94" x2="5.475" y1="8.51" y2="13.926" gradientUnits="userSpaceOnUse"><stop stop-color="#fff"/><stop offset="1" stop-color="#E3FFD9"/></linearGradient><linearGradient id="IconifyId195ac99e25a590abd19899" x1="3.94" x2="5.475" y1="8.51" y2="13.926" gradientUnits="userSpaceOnUse"><stop stop-color="#fff"/><stop offset="1" stop-color="#E3FFD9"/></linearGradient><radialGradient id="IconifyId195ac99e25a590abd19900" cx="0" cy="0" r="1" gradientTransform="rotate(130.372 6.872 4.05)scale(8.35524 4.87457)" gradientUnits="userSpaceOnUse"><stop offset=".362" stop-color="#4A43CB"/><stop offset="1" stop-color="#4A43CB" stop-opacity="0"/></radialGradient><radialGradient id="IconifyId195ac99e25a590abd19901" cx="0" cy="0" r="1" gradientTransform="matrix(-.94492 7.75807 -6.33816 -.77197 5.5 13)" gradientUnits="userSpaceOnUse"><stop offset=".535" stop-color="#4A43CB"/><stop offset="1" stop-color="#4A43CB" stop-opacity="0"/></radialGradient></defs></g></svg>