<svg xmlns="http://www.w3.org/2000/svg" width="1em" height="1em" viewBox="0 0 28 28"><g fill="none"><path fill="url(#IconifyId195ac99e25a590abd19665)" d="M15 2H6.5A2.5 2.5 0 0 0 4 4.5v19A2.5 2.5 0 0 0 6.5 26h15a2.5 2.5 0 0 0 2.5-2.5V11l-7-2z"/><path fill="url(#IconifyId195ac99e25a590abd19668)" fill-opacity=".5" d="M15 2H6.5A2.5 2.5 0 0 0 4 4.5v19A2.5 2.5 0 0 0 6.5 26h15a2.5 2.5 0 0 0 2.5-2.5V11l-7-2z"/><path fill="url(#IconifyId195ac99e25a590abd19669)" fill-opacity=".3" d="M15 2H6.5A2.5 2.5 0 0 0 4 4.5v19A2.5 2.5 0 0 0 6.5 26h15a2.5 2.5 0 0 0 2.5-2.5V11l-7-2z"/><path fill="url(#IconifyId195ac99e25a590abd19666)" d="M15 9.5V2l9 9h-7.5A1.5 1.5 0 0 1 15 9.5"/><path fill="url(#IconifyId195ac99e25a590abd19667)" d="M15 9.5V2l9 9h-7.5A1.5 1.5 0 0 1 15 9.5"/><defs><linearGradient id="IconifyId195ac99e25a590abd19665" x1="18" x2="19.388" y1="2" y2="20.598" gradientUnits="userSpaceOnUse"><stop stop-color="#6CE0FF"/><stop offset="1" stop-color="#4894FE"/></linearGradient><linearGradient id="IconifyId195ac99e25a590abd19666" x1="19.5" x2="19.5" y1="2" y2="11" gradientUnits="userSpaceOnUse"><stop stop-color="#D9D9D9"/><stop offset="1" stop-color="#737373"/></linearGradient><linearGradient id="IconifyId195ac99e25a590abd19667" x1="19.485" x2="17.235" y1="5.75" y2="9.5" gradientUnits="userSpaceOnUse"><stop stop-color="#9FF0F9"/><stop offset="1" stop-color="#B3E0FF"/></linearGradient><radialGradient id="IconifyId195ac99e25a590abd19668" cx="0" cy="0" r="1" gradientTransform="rotate(133.966 11.833 6.65)scale(16.325 9.64965)" gradientUnits="userSpaceOnUse"><stop offset=".362" stop-color="#4A43CB"/><stop offset="1" stop-color="#4A43CB" stop-opacity="0"/></radialGradient><radialGradient id="IconifyId195ac99e25a590abd19669" cx="0" cy="0" r="1" gradientTransform="rotate(133.966 11.833 6.65)scale(16.325 9.64965)" gradientUnits="userSpaceOnUse"><stop offset=".362" stop-color="#4A43CB"/><stop offset="1" stop-color="#4A43CB" stop-opacity="0"/></radialGradient></defs></g></svg>