<svg xmlns="http://www.w3.org/2000/svg" width="1em" height="1em" viewBox="0 0 24 24"><g fill="none"><path fill="url(#IconifyId195ad048a32870fdf26682)" fill-rule="evenodd" d="m5 16l1-1l1 1a2 2 0 0 0 2 2h2v2H9a4 4 0 0 1-4-4" clip-rule="evenodd"/><path fill="url(#IconifyId195ad048a32870fdf26683)" d="M14.25 19.25a2.25 2.25 0 1 1-4.5 0a2.25 2.25 0 0 1 4.5 0"/><path fill="url(#IconifyId195ad048a32870fdf26684)" d="M17 9v1l1 1l1-1V9A7 7 0 1 0 5 9v1l1 1l1-1V9a5 5 0 0 1 10 0"/><path fill="url(#IconifyId195ad048a32870fdf26685)" d="M9 10H7l-1 3l1 3h2a1 1 0 0 0 1-1v-4a1 1 0 0 0-1-1"/><path fill="url(#IconifyId195ad048a32870fdf26686)" d="M15 16h2l1-3l-1-3h-2a1 1 0 0 0-1 1v4a1 1 0 0 0 1 1"/><path fill="url(#IconifyId195ad048a32870fdf26687)" d="M7 10H5v6h2z"/><path fill="url(#IconifyId195ad048a32870fdf26688)" d="M19 10h-2v6a2 2 0 0 0 2-2z"/><defs><linearGradient id="IconifyId195ad048a32870fdf26682" x1="8.917" x2="7.821" y1="18.333" y2="14.887" gradientUnits="userSpaceOnUse"><stop stop-color="#9CA5AD"/><stop offset="1" stop-color="#70777D"/></linearGradient><linearGradient id="IconifyId195ad048a32870fdf26683" x1="13.688" x2="9.876" y1="20.938" y2="18.711" gradientUnits="userSpaceOnUse"><stop stop-color="#383B3D"/><stop offset="1" stop-color="#70777D"/></linearGradient><linearGradient id="IconifyId195ad048a32870fdf26684" x1="0" x2="4.18" y1="2" y2="12.89" gradientUnits="userSpaceOnUse"><stop stop-color="#B9C0C7"/><stop offset="1" stop-color="#70777D"/></linearGradient><linearGradient id="IconifyId195ad048a32870fdf26685" x1="16.25" x2="16.25" y1="10" y2="16" gradientUnits="userSpaceOnUse"><stop stop-color="#0FAFFF"/><stop offset="1" stop-color="#0067BF"/></linearGradient><linearGradient id="IconifyId195ad048a32870fdf26686" x1="16.25" x2="16.25" y1="10" y2="16" gradientUnits="userSpaceOnUse"><stop stop-color="#0FAFFF"/><stop offset="1" stop-color="#0067BF"/></linearGradient><linearGradient id="IconifyId195ad048a32870fdf26687" x1="17.833" x2="17.003" y1="10" y2="15.883" gradientUnits="userSpaceOnUse"><stop stop-color="#0078D4"/><stop offset="1" stop-color="#2052CB"/></linearGradient><linearGradient id="IconifyId195ad048a32870fdf26688" x1="17.833" x2="17.003" y1="10" y2="15.883" gradientUnits="userSpaceOnUse"><stop stop-color="#0078D4"/><stop offset="1" stop-color="#2052CB"/></linearGradient></defs></g></svg>