<svg xmlns="http://www.w3.org/2000/svg" width="1em" height="1em" viewBox="0 0 24 24"><g fill="none"><path fill="url(#IconifyId195ac99e25a590abd25762)" fill-rule="evenodd" d="M12 4a8 8 0 0 0-8 8v2l-1 1l-1-1v-2C2 6.477 6.477 2 12 2s10 4.477 10 10v2l-1 1l-1-1v-2a8 8 0 0 0-8-8" clip-rule="evenodd"/><path fill="url(#IconifyId195ac99e25a590abd25763)" d="M3.5 14v7.599c.441.255.954.401 1.5.401h3a1 1 0 0 0 1-1v-6a1 1 0 0 0-1-1z"/><path fill="url(#IconifyId195ac99e25a590abd25764)" d="M20.5 21.599V14H16a1 1 0 0 0-1 1v6a1 1 0 0 0 1 1h3c.546 0 1.059-.146 1.5-.401"/><path fill="url(#IconifyId195ac99e25a590abd25765)" d="M2 19c0 1.306.835 2.418 2 2.83V14H2z"/><path fill="url(#IconifyId195ac99e25a590abd25766)" d="M22 19a3 3 0 0 1-2 2.83V14h2z"/><defs><linearGradient id="IconifyId195ac99e25a590abd25762" x1="-3.429" x2="-.856" y1="3" y2="13.052" gradientUnits="userSpaceOnUse"><stop stop-color="#B9C0C7"/><stop offset="1" stop-color="#70777D"/></linearGradient><linearGradient id="IconifyId195ac99e25a590abd25763" x1="17.75" x2="17.75" y1="14" y2="22" gradientUnits="userSpaceOnUse"><stop stop-color="#0FAFFF"/><stop offset="1" stop-color="#0067BF"/></linearGradient><linearGradient id="IconifyId195ac99e25a590abd25764" x1="17.75" x2="17.75" y1="14" y2="22" gradientUnits="userSpaceOnUse"><stop stop-color="#0FAFFF"/><stop offset="1" stop-color="#0067BF"/></linearGradient><linearGradient id="IconifyId195ac99e25a590abd25765" x1="3" x2="3" y1="14" y2="21.829" gradientUnits="userSpaceOnUse"><stop stop-color="#0078D4"/><stop offset="1" stop-color="#2052CB"/></linearGradient><linearGradient id="IconifyId195ac99e25a590abd25766" x1="3" x2="3" y1="14" y2="21.829" gradientUnits="userSpaceOnUse"><stop stop-color="#0078D4"/><stop offset="1" stop-color="#2052CB"/></linearGradient></defs></g></svg>