<svg xmlns="http://www.w3.org/2000/svg" width="1em" height="1em" viewBox="0 0 28 28"><g fill="none"><path fill="url(#IconifyId195ad048a32870fdf26772)" fill-rule="evenodd" d="M5 20v-1l1-1l1 1v1a2 2 0 0 0 2 2h5v2H9a4 4 0 0 1-4-4" clip-rule="evenodd"/><path fill="url(#IconifyId195ad048a32870fdf26773)" d="M17 23a3 3 0 1 1-6 0a3 3 0 0 1 6 0"/><path fill="url(#IconifyId195ad048a32870fdf26774)" fill-rule="evenodd" d="M14 4a7 7 0 0 0-7 7v1.5l-1 1l-1-1V11a9 9 0 0 1 18 0v1.5l-1 1l-1-1V11a7 7 0 0 0-7-7" clip-rule="evenodd"/><path fill="url(#IconifyId195ad048a32870fdf26775)" d="M10.5 12H5v7h5.5a1.5 1.5 0 0 0 1.5-1.5v-4a1.5 1.5 0 0 0-1.5-1.5"/><path fill="url(#IconifyId195ad048a32870fdf26776)" d="M17.5 12H23v4.5a2.5 2.5 0 0 1-2.5 2.5h-3a1.5 1.5 0 0 1-1.5-1.5v-4a1.5 1.5 0 0 1 1.5-1.5"/><path fill="url(#IconifyId195ad048a32870fdf26777)" d="M7 12v7H5v-7z"/><path fill="url(#IconifyId195ad048a32870fdf26778)" d="M21 12v6.95a2.5 2.5 0 0 0 2-2.45V12z"/><defs><linearGradient id="IconifyId195ad048a32870fdf26772" x1="10.25" x2="8.377" y1="22.833" y2="16.772" gradientUnits="userSpaceOnUse"><stop stop-color="#9CA5AD"/><stop offset="1" stop-color="#70777D"/></linearGradient><linearGradient id="IconifyId195ad048a32870fdf26773" x1="16.25" x2="11.168" y1="25.25" y2="22.281" gradientUnits="userSpaceOnUse"><stop stop-color="#383B3D"/><stop offset="1" stop-color="#70777D"/></linearGradient><linearGradient id="IconifyId195ad048a32870fdf26774" x1="-1.429" x2="1.073" y1="2" y2="11.922" gradientUnits="userSpaceOnUse"><stop stop-color="#B9C0C7"/><stop offset="1" stop-color="#70777D"/></linearGradient><linearGradient id="IconifyId195ad048a32870fdf26775" x1="20.375" x2="20.375" y1="11" y2="19" gradientUnits="userSpaceOnUse"><stop stop-color="#0FAFFF"/><stop offset="1" stop-color="#0067BF"/></linearGradient><linearGradient id="IconifyId195ad048a32870fdf26776" x1="20.375" x2="20.375" y1="11" y2="19" gradientUnits="userSpaceOnUse"><stop stop-color="#0FAFFF"/><stop offset="1" stop-color="#0067BF"/></linearGradient><linearGradient id="IconifyId195ad048a32870fdf26777" x1="21.5" x2="20.618" y1="12" y2="18.887" gradientUnits="userSpaceOnUse"><stop stop-color="#0078D4"/><stop offset="1" stop-color="#2052CB"/></linearGradient><linearGradient id="IconifyId195ad048a32870fdf26778" x1="21.5" x2="20.618" y1="12" y2="18.887" gradientUnits="userSpaceOnUse"><stop stop-color="#0078D4"/><stop offset="1" stop-color="#2052CB"/></linearGradient></defs></g></svg>