<svg xmlns="http://www.w3.org/2000/svg" width="1em" height="1em" viewBox="0 0 32 32"><g fill="none"><path fill="url(#IconifyId195ad048a32870fdf28672)" d="m7.5 22l8.5-.5l8.5.5h.307q.194 0 .372.072l3.893 1.557c.56.224.928.767.928 1.371H2c0-.604.368-1.147.928-1.371l3.893-1.558A1 1 0 0 1 7.193 22z"/><path fill="url(#IconifyId195ad048a32870fdf28673)" d="M3 24a1 1 0 1 0 0 2h26a1 1 0 1 0 0-2z"/><path fill="url(#IconifyId195ad048a32870fdf28674)" d="M4 9.25A3.25 3.25 0 0 1 7.25 6h17.5A3.25 3.25 0 0 1 28 9.25v9.5A3.25 3.25 0 0 1 24.75 22H7.25A3.25 3.25 0 0 1 4 18.75z"/><defs><linearGradient id="IconifyId195ad048a32870fdf28672" x1="29.913" x2="27.617" y1="27.071" y2="16.424" gradientUnits="userSpaceOnUse"><stop stop-color="#63686E"/><stop offset="1" stop-color="#889096"/></linearGradient><linearGradient id="IconifyId195ad048a32870fdf28673" x1="30" x2="29.736" y1="25.857" y2="22.162" gradientUnits="userSpaceOnUse"><stop stop-color="#889096"/><stop offset="1" stop-color="#AAB3BD"/></linearGradient><linearGradient id="IconifyId195ad048a32870fdf28674" x1="20.8" x2="21.689" y1="6" y2="24.307" gradientUnits="userSpaceOnUse"><stop stop-color="#6CE0FF"/><stop offset="1" stop-color="#4894FE"/></linearGradient></defs></g></svg>