<svg xmlns="http://www.w3.org/2000/svg" width="1em" height="1em" viewBox="0 0 28 28"><g fill="none"><path fill="url(#IconifyId195ad048a32870fdf29046)" d="M7.99 5a2 2 0 0 0-2-2H4a2 2 0 0 0-2 2v18a2 2 0 0 0 2 2h1.99a2 2 0 0 0 2-2z"/><path fill="url(#IconifyId195ad048a32870fdf29047)" d="m22.07 6.543l3.86 15.483a2 2 0 0 1-1.457 2.425l-1.963.489a2 2 0 0 1-2.424-1.457L16.226 8a2 2 0 0 1 1.456-2.425l1.963-.489a2 2 0 0 1 2.425 1.457"/><path fill="url(#IconifyId195ad048a32870fdf29048)" d="M12.99 3a2 2 0 0 1 2 2v18a2 2 0 0 1-2 2H11a2 2 0 0 1-2-2V5a2 2 0 0 1 2-2z"/><path fill="url(#IconifyId195ad048a32870fdf29049)" d="M2 7h6v2H2z"/><path fill="url(#IconifyId195ad048a32870fdf29050)" d="M9 7h6v2H9z"/><path fill="url(#IconifyId195ad048a32870fdf29051)" d="m16.866 10.567l5.815-1.575l.486 1.953l-5.817 1.565z"/><defs><linearGradient id="IconifyId195ad048a32870fdf29046" x1="4.509" x2="10.051" y1="3" y2="31.672" gradientUnits="userSpaceOnUse"><stop stop-color="#43E5CA"/><stop offset="1" stop-color="#2764E7"/></linearGradient><linearGradient id="IconifyId195ad048a32870fdf29047" x1="4.509" x2="10.051" y1="3" y2="31.672" gradientUnits="userSpaceOnUse"><stop stop-color="#43E5CA"/><stop offset="1" stop-color="#2764E7"/></linearGradient><linearGradient id="IconifyId195ad048a32870fdf29048" x1="4.509" x2="10.051" y1="3" y2="31.672" gradientUnits="userSpaceOnUse"><stop stop-color="#43E5CA"/><stop offset="1" stop-color="#2764E7"/></linearGradient><linearGradient id="IconifyId195ad048a32870fdf29049" x1="16.866" x2="24.873" y1="2.27" y2="4.431" gradientUnits="userSpaceOnUse"><stop stop-color="#9FF0F9"/><stop offset="1" stop-color="#6CE0FF"/></linearGradient><linearGradient id="IconifyId195ad048a32870fdf29050" x1="16.866" x2="24.873" y1="2.27" y2="4.431" gradientUnits="userSpaceOnUse"><stop stop-color="#9FF0F9"/><stop offset="1" stop-color="#6CE0FF"/></linearGradient><linearGradient id="IconifyId195ad048a32870fdf29051" x1="16.866" x2="24.873" y1="2.27" y2="4.431" gradientUnits="userSpaceOnUse"><stop stop-color="#9FF0F9"/><stop offset="1" stop-color="#6CE0FF"/></linearGradient></defs></g></svg>