<svg xmlns="http://www.w3.org/2000/svg" width="1em" height="1em" viewBox="0 0 16 16"><g fill="none"><path fill="url(#IconifyId195ad048a32870fdf28971)" d="M1 3.25C1 2.56 1.56 2 2.249 2h.5c.69 0 1.249.56 1.249 1.25v9.495c0 .69-.56 1.25-1.25 1.25H2.25A1.25 1.25 0 0 1 1 12.744z"/><path fill="url(#IconifyId195ad048a32870fdf28972)" d="M4.997 3.25c0-.69.559-1.25 1.249-1.25h.5c.689 0 1.248.56 1.248 1.25v9.495c0 .69-.56 1.25-1.249 1.25h-.5a1.25 1.25 0 0 1-1.248-1.25z"/><path fill="url(#IconifyId195ad048a32870fdf28973)" d="M11.972 4.777a1.25 1.25 0 0 0-1.571-.713l-.582.204a1.25 1.25 0 0 0-.746 1.645l2.937 7.304c.249.62.94.933 1.571.713l.582-.204a1.25 1.25 0 0 0 .746-1.646z"/><path fill="url(#IconifyId195ad048a32870fdf28974)" d="M1 4h3v2H1z"/><path fill="url(#IconifyId195ad048a32870fdf28975)" d="M12.31 5.619L9.425 6.787l.742 1.846l2.889-1.165z"/><path fill="url(#IconifyId195ad048a32870fdf28976)" d="M8 4H5v2h3z"/><defs><linearGradient id="IconifyId195ad048a32870fdf28971" x1="4.468" x2="5.643" y1="3.994" y2="17.419" gradientUnits="userSpaceOnUse"><stop stop-color="#43E5CA"/><stop offset="1" stop-color="#2764E7"/></linearGradient><linearGradient id="IconifyId195ad048a32870fdf28972" x1="4.468" x2="5.643" y1="3.994" y2="17.419" gradientUnits="userSpaceOnUse"><stop stop-color="#43E5CA"/><stop offset="1" stop-color="#2764E7"/></linearGradient><linearGradient id="IconifyId195ad048a32870fdf28973" x1="4.468" x2="5.643" y1="3.994" y2="17.419" gradientUnits="userSpaceOnUse"><stop stop-color="#43E5CA"/><stop offset="1" stop-color="#2764E7"/></linearGradient><linearGradient id="IconifyId195ad048a32870fdf28974" x1="5" x2="8.891" y1=".178" y2="1.057" gradientUnits="userSpaceOnUse"><stop stop-color="#9FF0F9"/><stop offset="1" stop-color="#6CE0FF"/></linearGradient><linearGradient id="IconifyId195ad048a32870fdf28975" x1="5" x2="8.891" y1=".178" y2="1.057" gradientUnits="userSpaceOnUse"><stop stop-color="#9FF0F9"/><stop offset="1" stop-color="#6CE0FF"/></linearGradient><linearGradient id="IconifyId195ad048a32870fdf28976" x1="5" x2="8.891" y1=".178" y2="1.057" gradientUnits="userSpaceOnUse"><stop stop-color="#9FF0F9"/><stop offset="1" stop-color="#6CE0FF"/></linearGradient></defs></g></svg>