<svg xmlns="http://www.w3.org/2000/svg" width="1em" height="1em" viewBox="0 0 20 20"><g fill="none"><path fill="url(#IconifyId195ac99e25a590abd29838)" d="M15.5 7H7l-.5-2L7 3h8.5A1.5 1.5 0 0 1 17 4.5v1A1.5 1.5 0 0 1 15.5 7"/><path fill="url(#IconifyId195ac99e25a590abd29839)" d="M7 12h8.5a1.5 1.5 0 0 0 1.5-1.5v-1A1.5 1.5 0 0 0 15.5 8H7l-.5 2z"/><path fill="url(#IconifyId195ac99e25a590abd29840)" d="M7 17h8.5a1.5 1.5 0 0 0 1.5-1.5v-1a1.5 1.5 0 0 0-1.5-1.5H7l-.5 2z"/><path fill="url(#IconifyId195ac99e25a590abd29841)" d="M7 7V3H4.5A1.5 1.5 0 0 0 3 4.5v1A1.5 1.5 0 0 0 4.5 7z"/><path fill="url(#IconifyId195ac99e25a590abd29842)" d="M7 8v4H4.5A1.5 1.5 0 0 1 3 10.5v-1A1.5 1.5 0 0 1 4.5 8z"/><path fill="url(#IconifyId195ac99e25a590abd29843)" d="M7 13v4H4.5A1.5 1.5 0 0 1 3 15.5v-1A1.5 1.5 0 0 1 4.5 13z"/><defs><linearGradient id="IconifyId195ac99e25a590abd29838" x1="4.925" x2="16.953" y1="1" y2="16.207" gradientUnits="userSpaceOnUse"><stop stop-color="#36DFF1"/><stop offset="1" stop-color="#0094F0"/></linearGradient><linearGradient id="IconifyId195ac99e25a590abd29839" x1="4.925" x2="16.953" y1="1" y2="16.207" gradientUnits="userSpaceOnUse"><stop stop-color="#36DFF1"/><stop offset="1" stop-color="#0094F0"/></linearGradient><linearGradient id="IconifyId195ac99e25a590abd29840" x1="4.925" x2="16.953" y1="1" y2="16.207" gradientUnits="userSpaceOnUse"><stop stop-color="#36DFF1"/><stop offset="1" stop-color="#0094F0"/></linearGradient><linearGradient id="IconifyId195ac99e25a590abd29841" x1="3.951" x2="9.941" y1="4.861" y2="7.594" gradientUnits="userSpaceOnUse"><stop offset=".125" stop-color="#9C6CFE"/><stop offset="1" stop-color="#7A41DC"/></linearGradient><linearGradient id="IconifyId195ac99e25a590abd29842" x1="3.951" x2="9.941" y1="4.861" y2="7.594" gradientUnits="userSpaceOnUse"><stop offset=".125" stop-color="#9C6CFE"/><stop offset="1" stop-color="#7A41DC"/></linearGradient><linearGradient id="IconifyId195ac99e25a590abd29843" x1="3.951" x2="9.941" y1="4.861" y2="7.594" gradientUnits="userSpaceOnUse"><stop offset=".125" stop-color="#9C6CFE"/><stop offset="1" stop-color="#7A41DC"/></linearGradient></defs></g></svg>