<svg xmlns="http://www.w3.org/2000/svg" width="1em" height="1em" viewBox="0 0 48 48"><g fill="none"><path fill="#212121" d="m14.668 24.752l12-8l1.664 2.496l-12 8z"/><path fill="url(#IconifyId195ad048a32870fdf33357)" d="m14.668 24.752l12-8l1.664 2.496l-12 8z"/><path fill="url(#IconifyId195ad048a32870fdf33362)" d="m14.668 24.752l12-8l1.664 2.496l-12 8z"/><path fill="url(#IconifyId195ad048a32870fdf33363)" d="m14.668 24.752l12-8l1.664 2.496l-12 8z"/><path fill="#242424" d="m28.33 37.842l-12-6l1.34-2.684l12 6z"/><path fill="url(#IconifyId195ad048a32870fdf33358)" d="m28.33 37.842l-12-6l1.34-2.684l12 6z"/><path fill="url(#IconifyId195ad048a32870fdf33364)" d="m28.33 37.842l-12-6l1.34-2.684l12 6z"/><path fill="url(#IconifyId195ad048a32870fdf33365)" d="m28.33 37.842l-12-6l1.34-2.684l12 6z"/><circle cx="32" cy="14" r="10" fill="url(#IconifyId195ad048a32870fdf33359)"/><circle cx="12" cy="28" r="8" fill="url(#IconifyId195ad048a32870fdf33360)"/><circle cx="32" cy="38" r="6" fill="#D9D9D9"/><circle cx="32" cy="38" r="6" fill="url(#IconifyId195ad048a32870fdf33361)"/><defs><linearGradient id="IconifyId195ad048a32870fdf33357" x1="14.668" x2="17.696" y1="16.752" y2="28.014" gradientUnits="userSpaceOnUse"><stop stop-color="#B9C0C7"/><stop offset="1" stop-color="#70777D"/></linearGradient><linearGradient id="IconifyId195ad048a32870fdf33358" x1="16.329" x2="18.492" y1="29.158" y2="38.656" gradientUnits="userSpaceOnUse"><stop stop-color="#B9C0C7"/><stop offset="1" stop-color="#70777D"/></linearGradient><linearGradient id="IconifyId195ad048a32870fdf33359" x1="22.714" x2="36.517" y1="7.75" y2="22.09" gradientUnits="userSpaceOnUse"><stop stop-color="#2BDABE"/><stop offset="1" stop-color="#22918B"/></linearGradient><linearGradient id="IconifyId195ad048a32870fdf33360" x1="4.571" x2="15.613" y1="23" y2="34.472" gradientUnits="userSpaceOnUse"><stop stop-color="#EC318F"/><stop offset="1" stop-color="#B91D6B"/></linearGradient><linearGradient id="IconifyId195ad048a32870fdf33361" x1="27.875" x2="35.75" y1="30.125" y2="45.125" gradientUnits="userSpaceOnUse"><stop stop-color="#FFCD0F"/><stop offset="1" stop-color="#FE8401"/></linearGradient><radialGradient id="IconifyId195ad048a32870fdf33362" cx="0" cy="0" r="1" gradientTransform="rotate(143.13 13.667 12.333)scale(12.5 14.4743)" gradientUnits="userSpaceOnUse"><stop offset=".688" stop-color="#70777D"/><stop offset="1" stop-color="#70777D" stop-opacity="0"/></radialGradient><radialGradient id="IconifyId195ad048a32870fdf33363" cx="0" cy="0" r="1" gradientTransform="matrix(8 -5 5.78976 9.26362 12 28)" gradientUnits="userSpaceOnUse"><stop offset=".737" stop-color="#70777D"/><stop offset="1" stop-color="#70777D" stop-opacity="0"/></radialGradient><radialGradient id="IconifyId195ad048a32870fdf33364" cx="0" cy="0" r="1" gradientTransform="matrix(-7 -4.00002 3.99047 -6.98329 32 38)" gradientUnits="userSpaceOnUse"><stop offset=".563" stop-color="#70777D"/><stop offset="1" stop-color="#70777D" stop-opacity="0"/></radialGradient><radialGradient id="IconifyId195ad048a32870fdf33365" cx="0" cy="0" r="1" gradientTransform="matrix(8.5 4.5 -4.89701 9.2499 12 28)" gradientUnits="userSpaceOnUse"><stop offset=".798" stop-color="#70777D"/><stop offset="1" stop-color="#70777D" stop-opacity="0"/></radialGradient></defs></g></svg>