<svg xmlns="http://www.w3.org/2000/svg" width="1em" height="1em" viewBox="0 0 16 16"><g fill="none"><path fill="url(#IconifyId195ac99e25a590abd34000)" d="M14 11.5a.5.5 0 0 0-.5-.5h-11l-.09.008A.5.5 0 0 0 2.5 12h11l.09-.008A.5.5 0 0 0 14 11.5"/><path fill="url(#IconifyId195ac99e25a590abd33996)" d="M14 11.5a.5.5 0 0 0-.5-.5h-11l-.09.008A.5.5 0 0 0 2.5 12h11l.09-.008A.5.5 0 0 0 14 11.5"/><path fill="url(#IconifyId195ac99e25a590abd33997)" d="M14 11.5a.5.5 0 0 0-.5-.5h-11l-.09.008A.5.5 0 0 0 2.5 12h11l.09-.008A.5.5 0 0 0 14 11.5"/><path fill="url(#IconifyId195ac99e25a590abd34001)" d="M14 4.5a.5.5 0 0 0-.5-.5h-11l-.09.008A.5.5 0 0 0 2.5 5h11l.09-.008A.5.5 0 0 0 14 4.5"/><path fill="url(#IconifyId195ac99e25a590abd33998)" d="M14 4.5a.5.5 0 0 0-.5-.5h-11l-.09.008A.5.5 0 0 0 2.5 5h11l.09-.008A.5.5 0 0 0 14 4.5"/><path fill="url(#IconifyId195ac99e25a590abd33999)" d="M14 4.5a.5.5 0 0 0-.5-.5h-11l-.09.008A.5.5 0 0 0 2.5 5h11l.09-.008A.5.5 0 0 0 14 4.5"/><circle cx="6" cy="11.5" r="2" fill="url(#IconifyId195ac99e25a590abd34002)"/><circle cx="10" cy="4.5" r="2" fill="url(#IconifyId195ac99e25a590abd34003)"/><defs><radialGradient id="IconifyId195ac99e25a590abd33996" cx="0" cy="0" r="1" gradientTransform="matrix(3 0 0 2.3326 10 4.5)" gradientUnits="userSpaceOnUse"><stop offset=".549" stop-color="#70777D"/><stop offset="1" stop-color="#70777D" stop-opacity="0"/></radialGradient><radialGradient id="IconifyId195ac99e25a590abd33997" cx="0" cy="0" r="1" gradientTransform="matrix(3 0 0 2.3326 6 11.5)" gradientUnits="userSpaceOnUse"><stop offset=".549" stop-color="#70777D"/><stop offset="1" stop-color="#70777D" stop-opacity="0"/></radialGradient><radialGradient id="IconifyId195ac99e25a590abd33998" cx="0" cy="0" r="1" gradientTransform="matrix(3 0 0 2.3326 10 4.5)" gradientUnits="userSpaceOnUse"><stop offset=".549" stop-color="#70777D"/><stop offset="1" stop-color="#70777D" stop-opacity="0"/></radialGradient><radialGradient id="IconifyId195ac99e25a590abd33999" cx="0" cy="0" r="1" gradientTransform="matrix(3 0 0 2.3326 6 11.5)" gradientUnits="userSpaceOnUse"><stop offset=".549" stop-color="#70777D"/><stop offset="1" stop-color="#70777D" stop-opacity="0"/></radialGradient><linearGradient id="IconifyId195ac99e25a590abd34000" x1="14.75" x2="7.421" y1="12.8" y2="-1.064" gradientUnits="userSpaceOnUse"><stop stop-color="#8C959B"/><stop offset="1" stop-color="#A3ACB5"/></linearGradient><linearGradient id="IconifyId195ac99e25a590abd34001" x1="14.75" x2="7.421" y1="12.8" y2="-1.064" gradientUnits="userSpaceOnUse"><stop stop-color="#8C959B"/><stop offset="1" stop-color="#A3ACB5"/></linearGradient><linearGradient id="IconifyId195ac99e25a590abd34002" x1="4.4" x2="7.6" y1="9.5" y2="13.5" gradientUnits="userSpaceOnUse"><stop stop-color="#29B4FB"/><stop offset="1" stop-color="#2764E7"/></linearGradient><linearGradient id="IconifyId195ac99e25a590abd34003" x1="8.4" x2="11.6" y1="2.5" y2="6.5" gradientUnits="userSpaceOnUse"><stop stop-color="#29B4FB"/><stop offset="1" stop-color="#2764E7"/></linearGradient></defs></g></svg>