<svg xmlns="http://www.w3.org/2000/svg" width="1em" height="1em" viewBox="0 0 24 24"><g fill="none"><path fill="url(#IconifyId195ad048a32870fdf34671)" d="M22 16.75a.75.75 0 0 0-.75-.75H2.75l-.102.007A.75.75 0 0 0 2.75 17.5h18.5l.102-.007A.75.75 0 0 0 22 16.75"/><path fill="url(#IconifyId195ad048a32870fdf34667)" d="M22 16.75a.75.75 0 0 0-.75-.75H2.75l-.102.007A.75.75 0 0 0 2.75 17.5h18.5l.102-.007A.75.75 0 0 0 22 16.75"/><path fill="url(#IconifyId195ad048a32870fdf34668)" d="M22 16.75a.75.75 0 0 0-.75-.75H2.75l-.102.007A.75.75 0 0 0 2.75 17.5h18.5l.102-.007A.75.75 0 0 0 22 16.75"/><path fill="url(#IconifyId195ad048a32870fdf34672)" d="M22 7.25a.75.75 0 0 0-.75-.75H2.75l-.102.007A.75.75 0 0 0 2.75 8h18.5l.102-.007A.75.75 0 0 0 22 7.25"/><path fill="url(#IconifyId195ad048a32870fdf34669)" d="M22 7.25a.75.75 0 0 0-.75-.75H2.75l-.102.007A.75.75 0 0 0 2.75 8h18.5l.102-.007A.75.75 0 0 0 22 7.25"/><path fill="url(#IconifyId195ad048a32870fdf34670)" d="M22 7.25a.75.75 0 0 0-.75-.75H2.75l-.102.007A.75.75 0 0 0 2.75 8h18.5l.102-.007A.75.75 0 0 0 22 7.25"/><path fill="url(#IconifyId195ad048a32870fdf34673)" d="M12 16.75a3.25 3.25 0 1 1-6.5 0a3.25 3.25 0 0 1 6.5 0"/><path fill="url(#IconifyId195ad048a32870fdf34674)" d="M18.5 7.25a3.25 3.25 0 1 1-6.5 0a3.25 3.25 0 0 1 6.5 0"/><defs><radialGradient id="IconifyId195ad048a32870fdf34667" cx="0" cy="0" r="1" gradientTransform="matrix(4.66666 -.1875 .12027 2.9935 15.333 7.188)" gradientUnits="userSpaceOnUse"><stop offset=".549" stop-color="#70777D"/><stop offset="1" stop-color="#70777D" stop-opacity="0"/></radialGradient><radialGradient id="IconifyId195ad048a32870fdf34668" cx="0" cy="0" r="1" gradientTransform="matrix(4.83333 -.31248 .20044 3.1004 8.667 16.813)" gradientUnits="userSpaceOnUse"><stop offset=".549" stop-color="#70777D"/><stop offset="1" stop-color="#70777D" stop-opacity="0"/></radialGradient><radialGradient id="IconifyId195ad048a32870fdf34669" cx="0" cy="0" r="1" gradientTransform="matrix(4.66666 -.1875 .12027 2.9935 15.333 7.188)" gradientUnits="userSpaceOnUse"><stop offset=".549" stop-color="#70777D"/><stop offset="1" stop-color="#70777D" stop-opacity="0"/></radialGradient><radialGradient id="IconifyId195ad048a32870fdf34670" cx="0" cy="0" r="1" gradientTransform="matrix(4.83333 -.31248 .20044 3.1004 8.667 16.813)" gradientUnits="userSpaceOnUse"><stop offset=".549" stop-color="#70777D"/><stop offset="1" stop-color="#70777D" stop-opacity="0"/></radialGradient><linearGradient id="IconifyId195ad048a32870fdf34671" x1="23.25" x2="14.313" y1="18.6" y2="-1.892" gradientUnits="userSpaceOnUse"><stop stop-color="#8C959B"/><stop offset="1" stop-color="#A3ACB5"/></linearGradient><linearGradient id="IconifyId195ad048a32870fdf34672" x1="23.25" x2="14.313" y1="18.6" y2="-1.892" gradientUnits="userSpaceOnUse"><stop stop-color="#8C959B"/><stop offset="1" stop-color="#A3ACB5"/></linearGradient><linearGradient id="IconifyId195ad048a32870fdf34673" x1="6.15" x2="11.35" y1="13.5" y2="20" gradientUnits="userSpaceOnUse"><stop stop-color="#29B4FB"/><stop offset="1" stop-color="#2764E7"/></linearGradient><linearGradient id="IconifyId195ad048a32870fdf34674" x1="12.65" x2="17.85" y1="4" y2="10.5" gradientUnits="userSpaceOnUse"><stop stop-color="#29B4FB"/><stop offset="1" stop-color="#2764E7"/></linearGradient></defs></g></svg>