<svg xmlns="http://www.w3.org/2000/svg" width="1em" height="1em" viewBox="0 0 16 16"><g fill="none"><path fill="url(#IconifyId195ad048a32870fdf34556)" d="M14 11.5a.5.5 0 0 0-.5-.5h-11l-.09.008A.5.5 0 0 0 2.5 12h11l.09-.008A.5.5 0 0 0 14 11.5"/><path fill="url(#IconifyId195ad048a32870fdf34552)" d="M14 11.5a.5.5 0 0 0-.5-.5h-11l-.09.008A.5.5 0 0 0 2.5 12h11l.09-.008A.5.5 0 0 0 14 11.5"/><path fill="url(#IconifyId195ad048a32870fdf34553)" d="M14 11.5a.5.5 0 0 0-.5-.5h-11l-.09.008A.5.5 0 0 0 2.5 12h11l.09-.008A.5.5 0 0 0 14 11.5"/><path fill="url(#IconifyId195ad048a32870fdf34557)" d="M14 4.5a.5.5 0 0 0-.5-.5h-11l-.09.008A.5.5 0 0 0 2.5 5h11l.09-.008A.5.5 0 0 0 14 4.5"/><path fill="url(#IconifyId195ad048a32870fdf34554)" d="M14 4.5a.5.5 0 0 0-.5-.5h-11l-.09.008A.5.5 0 0 0 2.5 5h11l.09-.008A.5.5 0 0 0 14 4.5"/><path fill="url(#IconifyId195ad048a32870fdf34555)" d="M14 4.5a.5.5 0 0 0-.5-.5h-11l-.09.008A.5.5 0 0 0 2.5 5h11l.09-.008A.5.5 0 0 0 14 4.5"/><circle cx="6" cy="11.5" r="2" fill="url(#IconifyId195ad048a32870fdf34558)"/><circle cx="10" cy="4.5" r="2" fill="url(#IconifyId195ad048a32870fdf34559)"/><defs><radialGradient id="IconifyId195ad048a32870fdf34552" cx="0" cy="0" r="1" gradientTransform="matrix(3 0 0 2.3326 10 4.5)" gradientUnits="userSpaceOnUse"><stop offset=".549" stop-color="#70777D"/><stop offset="1" stop-color="#70777D" stop-opacity="0"/></radialGradient><radialGradient id="IconifyId195ad048a32870fdf34553" cx="0" cy="0" r="1" gradientTransform="matrix(3 0 0 2.3326 6 11.5)" gradientUnits="userSpaceOnUse"><stop offset=".549" stop-color="#70777D"/><stop offset="1" stop-color="#70777D" stop-opacity="0"/></radialGradient><radialGradient id="IconifyId195ad048a32870fdf34554" cx="0" cy="0" r="1" gradientTransform="matrix(3 0 0 2.3326 10 4.5)" gradientUnits="userSpaceOnUse"><stop offset=".549" stop-color="#70777D"/><stop offset="1" stop-color="#70777D" stop-opacity="0"/></radialGradient><radialGradient id="IconifyId195ad048a32870fdf34555" cx="0" cy="0" r="1" gradientTransform="matrix(3 0 0 2.3326 6 11.5)" gradientUnits="userSpaceOnUse"><stop offset=".549" stop-color="#70777D"/><stop offset="1" stop-color="#70777D" stop-opacity="0"/></radialGradient><linearGradient id="IconifyId195ad048a32870fdf34556" x1="14.75" x2="7.421" y1="12.8" y2="-1.064" gradientUnits="userSpaceOnUse"><stop stop-color="#8C959B"/><stop offset="1" stop-color="#A3ACB5"/></linearGradient><linearGradient id="IconifyId195ad048a32870fdf34557" x1="14.75" x2="7.421" y1="12.8" y2="-1.064" gradientUnits="userSpaceOnUse"><stop stop-color="#8C959B"/><stop offset="1" stop-color="#A3ACB5"/></linearGradient><linearGradient id="IconifyId195ad048a32870fdf34558" x1="4.4" x2="7.6" y1="9.5" y2="13.5" gradientUnits="userSpaceOnUse"><stop stop-color="#29B4FB"/><stop offset="1" stop-color="#2764E7"/></linearGradient><linearGradient id="IconifyId195ad048a32870fdf34559" x1="8.4" x2="11.6" y1="2.5" y2="6.5" gradientUnits="userSpaceOnUse"><stop stop-color="#29B4FB"/><stop offset="1" stop-color="#2764E7"/></linearGradient></defs></g></svg>