<svg xmlns="http://www.w3.org/2000/svg" width="1em" height="1em" viewBox="0 0 20 20"><g fill="none"><path fill="url(#IconifyId195ac99e25a590abd36672)" d="M14.25 8C13.56 8 13 8.56 13 9.25V13c0 1.486 1.25 3 2.5 3s2.5-1.514 2.5-3V9.25C18 8.56 17.44 8 16.75 8z"/><path fill="url(#IconifyId195ac99e25a590abd36681)" fill-opacity=".5" d="M14.25 8C13.56 8 13 8.56 13 9.25V13c0 1.486 1.25 3 2.5 3s2.5-1.514 2.5-3V9.25C18 8.56 17.44 8 16.75 8z"/><path fill="url(#IconifyId195ac99e25a590abd36673)" d="M3.25 8C2.56 8 2 8.56 2 9.25V13c0 1.486 1.25 3 2.5 3S7 14.486 7 13V9.25C7 8.56 6.44 8 5.75 8z"/><path fill="url(#IconifyId195ac99e25a590abd36682)" fill-opacity=".5" d="M3.25 8C2.56 8 2 8.56 2 9.25V13c0 1.486 1.25 3 2.5 3S7 14.486 7 13V9.25C7 8.56 6.44 8 5.75 8z"/><path fill="url(#IconifyId195ac99e25a590abd36674)" d="M6 9.25C6 8.56 6.56 8 7.25 8h5.5c.69 0 1.25.56 1.25 1.25V14a4 4 0 0 1-8 0z"/><path fill="url(#IconifyId195ac99e25a590abd36675)" d="M6 9.25C6 8.56 6.56 8 7.25 8h5.5c.69 0 1.25.56 1.25 1.25V14a4 4 0 0 1-8 0z"/><path fill="url(#IconifyId195ac99e25a590abd36676)" d="M17.5 5a2 2 0 1 1-4 0a2 2 0 0 1 4 0m-2 2a2 2 0 1 0 0-4a2 2 0 0 0 0 4"/><path fill="url(#IconifyId195ac99e25a590abd36677)" d="M17.5 5a2 2 0 1 1-4 0a2 2 0 0 1 4 0"/><path fill="url(#IconifyId195ac99e25a590abd36678)" d="M6.5 5a2 2 0 1 1-4 0a2 2 0 0 1 4 0m-2 2a2 2 0 1 0 0-4a2 2 0 0 0 0 4"/><path fill="url(#IconifyId195ac99e25a590abd36679)" d="M6.5 5a2 2 0 1 1-4 0a2 2 0 0 1 4 0"/><path fill="url(#IconifyId195ac99e25a590abd36680)" d="M12.5 4.5a2.5 2.5 0 1 1-5 0a2.5 2.5 0 0 1 5 0"/><defs><linearGradient id="IconifyId195ac99e25a590abd36672" x1="14.189" x2="18.721" y1="9.063" y2="13.586" gradientUnits="userSpaceOnUse"><stop offset=".125" stop-color="#7A41DC"/><stop offset="1" stop-color="#5B2AB5"/></linearGradient><linearGradient id="IconifyId195ac99e25a590abd36673" x1="3.189" x2="7.721" y1="9.063" y2="13.586" gradientUnits="userSpaceOnUse"><stop offset=".125" stop-color="#9C6CFE"/><stop offset="1" stop-color="#7A41DC"/></linearGradient><linearGradient id="IconifyId195ac99e25a590abd36674" x1="7.902" x2="13.402" y1="9.329" y2="16.354" gradientUnits="userSpaceOnUse"><stop offset=".125" stop-color="#BD96FF"/><stop offset="1" stop-color="#9C6CFE"/></linearGradient><linearGradient id="IconifyId195ac99e25a590abd36675" x1="10" x2="18.372" y1="6.81" y2="19.324" gradientUnits="userSpaceOnUse"><stop stop-color="#885EDB" stop-opacity="0"/><stop offset="1" stop-color="#E362F8"/></linearGradient><linearGradient id="IconifyId195ac99e25a590abd36676" x1="14.451" x2="16.49" y1="3.532" y2="6.787" gradientUnits="userSpaceOnUse"><stop offset=".125" stop-color="#7A41DC"/><stop offset="1" stop-color="#5B2AB5"/></linearGradient><linearGradient id="IconifyId195ac99e25a590abd36677" x1="14.451" x2="16.49" y1="3.532" y2="6.787" gradientUnits="userSpaceOnUse"><stop offset=".125" stop-color="#7A41DC"/><stop offset="1" stop-color="#5B2AB5"/></linearGradient><linearGradient id="IconifyId195ac99e25a590abd36678" x1="3.451" x2="5.49" y1="3.532" y2="6.787" gradientUnits="userSpaceOnUse"><stop offset=".125" stop-color="#9C6CFE"/><stop offset="1" stop-color="#7A41DC"/></linearGradient><linearGradient id="IconifyId195ac99e25a590abd36679" x1="3.451" x2="5.49" y1="3.532" y2="6.787" gradientUnits="userSpaceOnUse"><stop offset=".125" stop-color="#9C6CFE"/><stop offset="1" stop-color="#7A41DC"/></linearGradient><linearGradient id="IconifyId195ac99e25a590abd36680" x1="8.689" x2="11.237" y1="2.665" y2="6.734" gradientUnits="userSpaceOnUse"><stop offset=".125" stop-color="#BD96FF"/><stop offset="1" stop-color="#9C6CFE"/></linearGradient><radialGradient id="IconifyId195ac99e25a590abd36681" cx="0" cy="0" r="1" gradientTransform="matrix(4.02372 0 0 10.9215 12.214 11.813)" gradientUnits="userSpaceOnUse"><stop offset=".433" stop-color="#3B148A"/><stop offset="1" stop-color="#3B148A" stop-opacity="0"/></radialGradient><radialGradient id="IconifyId195ac99e25a590abd36682" cx="0" cy="0" r="1" gradientTransform="matrix(-4.45292 0 0 -12.0865 8.62 11.813)" gradientUnits="userSpaceOnUse"><stop offset=".433" stop-color="#3B148A"/><stop offset="1" stop-color="#3B148A" stop-opacity="0"/></radialGradient></defs></g></svg>