<svg xmlns="http://www.w3.org/2000/svg" width="1em" height="1em" viewBox="0 0 24 24"><g fill="none"><path fill="url(#IconifyId195ac99e25a590abd42780)" d="m16.628 5.349l.744 1.302L8.012 12l9.36 5.349l-.744 1.302L4.988 12z"/><path fill="url(#IconifyId195ac99e25a590abd42774)" d="m16.628 5.349l.744 1.302L8.012 12l9.36 5.349l-.744 1.302L4.988 12z"/><path fill="url(#IconifyId195ac99e25a590abd42775)" d="m16.628 5.349l.744 1.302L8.012 12l9.36 5.349l-.744 1.302L4.988 12z"/><path fill="url(#IconifyId195ac99e25a590abd42776)" d="m16.628 5.349l.744 1.302L8.012 12l9.36 5.349l-.744 1.302L4.988 12z"/><path fill="url(#IconifyId195ac99e25a590abd42777)" d="M20.5 18a3.5 3.5 0 1 1-7 0a3.5 3.5 0 0 1 7 0"/><path fill="url(#IconifyId195ac99e25a590abd42778)" d="M10 12a3.5 3.5 0 1 1-7 0a3.5 3.5 0 0 1 7 0"/><path fill="url(#IconifyId195ac99e25a590abd42779)" d="M20.5 6a3.5 3.5 0 1 1-7 0a3.5 3.5 0 0 1 7 0"/><defs><radialGradient id="IconifyId195ac99e25a590abd42774" cx="0" cy="0" r="1" gradientTransform="matrix(-4.00002 -2.49997 2.44863 -3.91786 17 18)" gradientUnits="userSpaceOnUse"><stop offset=".549" stop-color="#70777D"/><stop offset="1" stop-color="#70777D" stop-opacity="0"/></radialGradient><radialGradient id="IconifyId195ac99e25a590abd42775" cx="0" cy="0" r="1" gradientTransform="matrix(4.5 0 0 5.85787 6.5 12)" gradientUnits="userSpaceOnUse"><stop offset=".549" stop-color="#70777D"/><stop offset="1" stop-color="#70777D" stop-opacity="0"/></radialGradient><radialGradient id="IconifyId195ac99e25a590abd42776" cx="0" cy="0" r="1" gradientTransform="matrix(-4.08698 2.10583 -2.44201 -4.73943 17 6)" gradientUnits="userSpaceOnUse"><stop offset=".549" stop-color="#70777D"/><stop offset="1" stop-color="#70777D" stop-opacity="0"/></radialGradient><radialGradient id="IconifyId195ac99e25a590abd42777" cx="0" cy="0" r="1" gradientTransform="matrix(11.22915 15.23954 -13.05196 9.61725 9.27 6.698)" gradientUnits="userSpaceOnUse"><stop offset=".529" stop-color="#0FAFFF"/><stop offset="1" stop-color="#0078D4"/></radialGradient><radialGradient id="IconifyId195ac99e25a590abd42778" cx="0" cy="0" r="1" gradientTransform="matrix(11.22915 15.23954 -13.05196 9.61725 -1.23 .698)" gradientUnits="userSpaceOnUse"><stop offset=".529" stop-color="#0FAFFF"/><stop offset="1" stop-color="#0078D4"/></radialGradient><radialGradient id="IconifyId195ac99e25a590abd42779" cx="0" cy="0" r="1" gradientTransform="matrix(11.22915 15.23954 -13.05196 9.61725 9.27 -5.302)" gradientUnits="userSpaceOnUse"><stop offset=".529" stop-color="#0FAFFF"/><stop offset="1" stop-color="#0078D4"/></radialGradient><linearGradient id="IconifyId195ac99e25a590abd42780" x1="4.988" x2="10.03" y1="5.349" y2="18.759" gradientUnits="userSpaceOnUse"><stop stop-color="#B9C0C7"/><stop offset="1" stop-color="#70777D"/></linearGradient></defs></g></svg>