<svg xmlns="http://www.w3.org/2000/svg" width="1em" height="1em" viewBox="0 0 20 20"><g fill="none"><path fill="url(#IconifyId195ac99e25a590abd42756)" fill-rule="evenodd" d="m13.165 5.33l.67 1.34L7.178 10l7.659 3.83l-.671 1.34L3.823 10z" clip-rule="evenodd"/><path fill="url(#IconifyId195ac99e25a590abd42750)" fill-rule="evenodd" d="m13.165 5.33l.67 1.34L7.178 10l7.659 3.83l-.671 1.34L3.823 10z" clip-rule="evenodd"/><path fill="url(#IconifyId195ac99e25a590abd42751)" fill-rule="evenodd" d="m13.165 5.33l.67 1.34L7.178 10l7.659 3.83l-.671 1.34L3.823 10z" clip-rule="evenodd"/><path fill="url(#IconifyId195ac99e25a590abd42752)" fill-rule="evenodd" d="m13.165 5.33l.67 1.34L7.178 10l7.659 3.83l-.671 1.34L3.823 10z" clip-rule="evenodd"/><circle cx="14.5" cy="14.5" r="2.5" fill="url(#IconifyId195ac99e25a590abd42753)"/><path fill="url(#IconifyId195ac99e25a590abd42754)" d="M8 10a2.5 2.5 0 1 1-5 0a2.5 2.5 0 0 1 5 0"/><circle cx="14.5" cy="5.5" r="2.5" fill="url(#IconifyId195ac99e25a590abd42755)"/><defs><radialGradient id="IconifyId195ac99e25a590abd42750" cx="0" cy="0" r="1" gradientTransform="matrix(1.30211 -2.79293 3.10735 1.4487 13 14.178)" gradientUnits="userSpaceOnUse"><stop offset=".549" stop-color="#70777D"/><stop offset="1" stop-color="#70777D" stop-opacity="0"/></radialGradient><radialGradient id="IconifyId195ac99e25a590abd42751" cx="0" cy="0" r="1" gradientTransform="matrix(3.72703 0 0 4.03643 5.546 9.988)" gradientUnits="userSpaceOnUse"><stop offset=".549" stop-color="#70777D"/><stop offset="1" stop-color="#70777D" stop-opacity="0"/></radialGradient><radialGradient id="IconifyId195ac99e25a590abd42752" cx="0" cy="0" r="1" gradientTransform="matrix(-3.19461 2.0952 -2.2918 -3.49438 14.065 5.274)" gradientUnits="userSpaceOnUse"><stop offset=".549" stop-color="#70777D"/><stop offset="1" stop-color="#70777D" stop-opacity="0"/></radialGradient><radialGradient id="IconifyId195ac99e25a590abd42753" cx="0" cy="0" r="1" gradientTransform="rotate(53.616 -1.87 12.098)scale(13.5213 11.5804)" gradientUnits="userSpaceOnUse"><stop offset=".529" stop-color="#0FAFFF"/><stop offset="1" stop-color="#0078D4"/></radialGradient><radialGradient id="IconifyId195ac99e25a590abd42754" cx="0" cy="0" r="1" gradientTransform="rotate(53.616 -1.917 .943)scale(13.5213 11.5804)" gradientUnits="userSpaceOnUse"><stop offset=".529" stop-color="#0FAFFF"/><stop offset="1" stop-color="#0078D4"/></radialGradient><radialGradient id="IconifyId195ac99e25a590abd42755" cx="0" cy="0" r="1" gradientTransform="rotate(53.616 7.035 7.598)scale(13.5213 11.5804)" gradientUnits="userSpaceOnUse"><stop offset=".529" stop-color="#0FAFFF"/><stop offset="1" stop-color="#0078D4"/></radialGradient><linearGradient id="IconifyId195ac99e25a590abd42756" x1="3.823" x2="7.049" y1="5.329" y2="15.643" gradientUnits="userSpaceOnUse"><stop stop-color="#B9C0C7"/><stop offset="1" stop-color="#70777D"/></linearGradient></defs></g></svg>