<svg xmlns="http://www.w3.org/2000/svg" width="1em" height="1em" viewBox="0 0 16 16"><g fill="none"><path fill="url(#IconifyId195ad048a32870fdf43177)" d="m10.776 4.053l.447.894L5.118 8l6.105 3.053l-.447.894L2.882 8z"/><path fill="url(#IconifyId195ad048a32870fdf43171)" d="m10.776 4.053l.447.894L5.118 8l6.105 3.053l-.447.894L2.882 8z"/><path fill="url(#IconifyId195ad048a32870fdf43172)" d="m10.776 4.053l.447.894L5.118 8l6.105 3.053l-.447.894L2.882 8z"/><path fill="url(#IconifyId195ad048a32870fdf43173)" d="m10.776 4.053l.447.894L5.118 8l6.105 3.053l-.447.894L2.882 8z"/><circle cx="12" cy="12" r="2" fill="url(#IconifyId195ad048a32870fdf43174)"/><circle cx="4" cy="8" r="2" fill="url(#IconifyId195ad048a32870fdf43175)"/><circle cx="12" cy="4" r="2" fill="url(#IconifyId195ad048a32870fdf43176)"/><defs><radialGradient id="IconifyId195ad048a32870fdf43171" cx="0" cy="0" r="1" gradientTransform="matrix(-2.5 -1.50001 1.607 -2.67831 12 12)" gradientUnits="userSpaceOnUse"><stop offset=".549" stop-color="#70777D"/><stop offset="1" stop-color="#70777D" stop-opacity="0"/></radialGradient><radialGradient id="IconifyId195ad048a32870fdf43172" cx="0" cy="0" r="1" gradientTransform="matrix(2.5 0 0 2.86722 4 8)" gradientUnits="userSpaceOnUse"><stop offset=".549" stop-color="#70777D"/><stop offset="1" stop-color="#70777D" stop-opacity="0"/></radialGradient><radialGradient id="IconifyId195ad048a32870fdf43173" cx="0" cy="0" r="1" gradientTransform="matrix(-2.5 1.50001 -1.67631 -2.79382 12 4)" gradientUnits="userSpaceOnUse"><stop offset=".549" stop-color="#70777D"/><stop offset="1" stop-color="#70777D" stop-opacity="0"/></radialGradient><radialGradient id="IconifyId195ad048a32870fdf43174" cx="0" cy="0" r="1" gradientTransform="matrix(6.41664 8.7084 -7.45832 5.49553 7.584 5.542)" gradientUnits="userSpaceOnUse"><stop offset=".529" stop-color="#0FAFFF"/><stop offset="1" stop-color="#0078D4"/></radialGradient><radialGradient id="IconifyId195ad048a32870fdf43175" cx="0" cy="0" r="1" gradientTransform="matrix(6.41664 8.7084 -7.45832 5.49553 -.416 1.542)" gradientUnits="userSpaceOnUse"><stop offset=".529" stop-color="#0FAFFF"/><stop offset="1" stop-color="#0078D4"/></radialGradient><radialGradient id="IconifyId195ad048a32870fdf43176" cx="0" cy="0" r="1" gradientTransform="matrix(6.41664 8.7084 -7.45832 5.49553 7.584 -2.458)" gradientUnits="userSpaceOnUse"><stop offset=".529" stop-color="#0FAFFF"/><stop offset="1" stop-color="#0078D4"/></radialGradient><linearGradient id="IconifyId195ad048a32870fdf43177" x1="2.882" x2="5.593" y1="4.053" y2="12.238" gradientUnits="userSpaceOnUse"><stop stop-color="#B9C0C7"/><stop offset="1" stop-color="#70777D"/></linearGradient></defs></g></svg>