<svg xmlns="http://www.w3.org/2000/svg" width="1em" height="1em" viewBox="0 0 32 32"><g fill="none"><path fill="url(#IconifyId195ad048a32870fdf43418)" d="m21.053 8.106l.894 1.788L9.737 16l14.21 7.106l-.894 1.788L5.264 16z"/><path fill="url(#IconifyId195ad048a32870fdf43412)" d="m21.053 8.106l.894 1.788L9.737 16l14.21 7.106l-.894 1.788L5.264 16z"/><path fill="url(#IconifyId195ad048a32870fdf43413)" d="m21.053 8.106l.894 1.788L9.737 16l14.21 7.106l-.894 1.788L5.264 16z"/><path fill="url(#IconifyId195ad048a32870fdf43414)" d="m21.053 8.106l.894 1.788L9.737 16l14.21 7.106l-.894 1.788L5.264 16z"/><path fill="url(#IconifyId195ad048a32870fdf43415)" d="M29 24.5a4.5 4.5 0 1 1-9 0a4.5 4.5 0 0 1 9 0"/><path fill="url(#IconifyId195ad048a32870fdf43416)" d="M12 16a4.5 4.5 0 1 1-9 0a4.5 4.5 0 0 1 9 0"/><path fill="url(#IconifyId195ad048a32870fdf43417)" d="M29 7.5a4.5 4.5 0 1 1-9 0a4.5 4.5 0 0 1 9 0"/><defs><radialGradient id="IconifyId195ad048a32870fdf43412" cx="0" cy="0" r="1" gradientTransform="matrix(-6.00002 -3.49995 3.8802 -6.6519 24.5 24.5)" gradientUnits="userSpaceOnUse"><stop offset=".549" stop-color="#70777D"/><stop offset="1" stop-color="#70777D" stop-opacity="0"/></radialGradient><radialGradient id="IconifyId195ad048a32870fdf43413" cx="0" cy="0" r="1" gradientTransform="matrix(6 0 0 6.53387 7.5 16)" gradientUnits="userSpaceOnUse"><stop offset=".549" stop-color="#70777D"/><stop offset="1" stop-color="#70777D" stop-opacity="0"/></radialGradient><radialGradient id="IconifyId195ad048a32870fdf43414" cx="0" cy="0" r="1" gradientTransform="rotate(151.39 11.294 6.874)scale(6.26498 6.8678)" gradientUnits="userSpaceOnUse"><stop offset=".549" stop-color="#70777D"/><stop offset="1" stop-color="#70777D" stop-opacity="0"/></radialGradient><radialGradient id="IconifyId195ad048a32870fdf43415" cx="0" cy="0" r="1" gradientTransform="matrix(14.4374 19.59386 -16.78122 12.36495 14.563 9.97)" gradientUnits="userSpaceOnUse"><stop offset=".529" stop-color="#0FAFFF"/><stop offset="1" stop-color="#0078D4"/></radialGradient><radialGradient id="IconifyId195ad048a32870fdf43416" cx="0" cy="0" r="1" gradientTransform="matrix(14.4374 19.59386 -16.78122 12.36495 -2.438 1.468)" gradientUnits="userSpaceOnUse"><stop offset=".529" stop-color="#0FAFFF"/><stop offset="1" stop-color="#0078D4"/></radialGradient><radialGradient id="IconifyId195ad048a32870fdf43417" cx="0" cy="0" r="1" gradientTransform="matrix(14.4374 19.59386 -16.78122 12.36495 14.563 -7.031)" gradientUnits="userSpaceOnUse"><stop offset=".529" stop-color="#0FAFFF"/><stop offset="1" stop-color="#0078D4"/></radialGradient><linearGradient id="IconifyId195ad048a32870fdf43418" x1="5.264" x2="10.792" y1="8.106" y2="25.684" gradientUnits="userSpaceOnUse"><stop stop-color="#B9C0C7"/><stop offset="1" stop-color="#70777D"/></linearGradient></defs></g></svg>