<svg xmlns="http://www.w3.org/2000/svg" width="1em" height="1em" viewBox="0 0 16 16"><g fill="none"><path fill="url(#IconifyId195ac99e25a590abd43398)" d="M4.497 2a2.5 2.5 0 0 0-2.5 2.5v7a2.5 2.5 0 0 0 2.5 2.5h7a2.5 2.5 0 0 0 2.5-2.5v-7a2.5 2.5 0 0 0-2.5-2.5z"/><path fill="url(#IconifyId195ac99e25a590abd43399)" fill-rule="evenodd" d="M7.5 4a.5.5 0 0 1 .5.5V8h2.5a.5.5 0 0 1 0 1h-3a.5.5 0 0 1-.5-.5v-4a.5.5 0 0 1 .5-.5" clip-rule="evenodd"/><defs><linearGradient id="IconifyId195ac99e25a590abd43398" x1="3.997" x2="9.997" y1="1.333" y2="14.667" gradientUnits="userSpaceOnUse"><stop stop-color="#1EC8B0"/><stop offset="1" stop-color="#2764E7"/></linearGradient><linearGradient id="IconifyId195ac99e25a590abd43399" x1="6.938" x2="5.463" y1="4.375" y2="9.326" gradientUnits="userSpaceOnUse"><stop stop-color="#FDFDFD"/><stop offset="1" stop-color="#DEDEFF"/></linearGradient></defs></g></svg>