<svg xmlns="http://www.w3.org/2000/svg" width="1em" height="1em" viewBox="0 0 32 32"><g fill="none"><path fill="url(#IconifyId195ac99e25a590abd46033)" d="M9 6.25A3.25 3.25 0 0 1 12.25 3h7.5A3.25 3.25 0 0 1 23 6.25V8.5h-2V6.25C21 5.56 20.44 5 19.75 5h-7.5C11.56 5 11 5.56 11 6.25V8.5H9z"/><path fill="url(#IconifyId195ac99e25a590abd46034)" d="M5.25 28A3.25 3.25 0 0 1 2 24.75V15.5h28v9.25A3.25 3.25 0 0 1 26.75 28z"/><path fill="url(#IconifyId195ac99e25a590abd46035)" d="M2 11.25A3.25 3.25 0 0 1 5.25 8h21.5A3.25 3.25 0 0 1 30 11.25V16H2z"/><path fill="url(#IconifyId195ac99e25a590abd46036)" d="M22 13a1 1 0 0 1 1 1v4a1 1 0 1 1-2 0v-4a1 1 0 0 1 1-1"/><path fill="url(#IconifyId195ac99e25a590abd46037)" d="M10 13a1 1 0 0 1 1 1v4a1 1 0 1 1-2 0v-4a1 1 0 0 1 1-1"/><defs><linearGradient id="IconifyId195ac99e25a590abd46033" x1="4" x2="4.724" y1="3" y2="7.8" gradientUnits="userSpaceOnUse"><stop stop-color="#B9C0C7"/><stop offset="1" stop-color="#70777D"/></linearGradient><linearGradient id="IconifyId195ac99e25a590abd46034" x1=".25" x2="3.072" y1="10.813" y2="40.212" gradientUnits="userSpaceOnUse"><stop offset=".125" stop-color="#F97DBD"/><stop offset="1" stop-color="#D7257D"/></linearGradient><linearGradient id="IconifyId195ac99e25a590abd46035" x1=".25" x2=".942" y1="5" y2="24.145" gradientUnits="userSpaceOnUse"><stop stop-color="#F97DBD"/><stop offset="1" stop-color="#D7257D"/></linearGradient><linearGradient id="IconifyId195ac99e25a590abd46036" x1="4" x2="4.858" y1="13" y2="18.214" gradientUnits="userSpaceOnUse"><stop stop-color="#EFEFEF"/><stop offset="1" stop-color="#DADADA"/></linearGradient><linearGradient id="IconifyId195ac99e25a590abd46037" x1="4" x2="4.858" y1="13" y2="18.214" gradientUnits="userSpaceOnUse"><stop stop-color="#EFEFEF"/><stop offset="1" stop-color="#DADADA"/></linearGradient></defs></g></svg>