<svg xmlns="http://www.w3.org/2000/svg" width="1em" height="1em" viewBox="0 0 32 32"><g fill="none"><path fill="url(#IconifyId195ac99e25a590abd47851)" d="M22 3a1 1 0 0 0-.928.629l-1 2.5a1 1 0 0 0 0 .742L21 9.193V16h5V9.193l.928-2.322a1 1 0 0 0 0-.742l-1-2.5A1 1 0 0 0 25 3z"/><path fill="url(#IconifyId195ac99e25a590abd47852)" d="M18 19.5v4a5.5 5.5 0 1 0 11 0v-4z"/><path fill="url(#IconifyId195ac99e25a590abd47853)" d="M28 16a1 1 0 0 1 1 1v3H18v-3a1 1 0 0 1 1-1z"/><path fill="url(#IconifyId195ac99e25a590abd47854)" d="M8.577 3.525A1 1 0 0 1 9 4.341V9a1 1 0 0 0 2 0V4.341a1 1 0 0 1 1.333-.942A7.002 7.002 0 0 1 13 16.326V26a3 3 0 1 1-6 0v-9.674A7.002 7.002 0 0 1 7.667 3.4a1 1 0 0 1 .91.126"/><defs><linearGradient id="IconifyId195ac99e25a590abd47851" x1="25.833" x2="21.762" y1=".523" y2="26.082" gradientUnits="userSpaceOnUse"><stop stop-color="#2BDABE"/><stop offset=".853" stop-color="#0067BF"/></linearGradient><linearGradient id="IconifyId195ac99e25a590abd47852" x1="28.998" x2="18.789" y1="29.212" y2="18.534" gradientUnits="userSpaceOnUse"><stop stop-color="#FF6F47"/><stop offset="1" stop-color="#FFCD0F"/></linearGradient><linearGradient id="IconifyId195ac99e25a590abd47853" x1="21.028" x2="22.269" y1="16.968" y2="20.384" gradientUnits="userSpaceOnUse"><stop stop-color="#FFA43D"/><stop offset="1" stop-color="#FB5937"/></linearGradient><linearGradient id="IconifyId195ac99e25a590abd47854" x1="14.667" x2="6.062" y1="-1.548" y2="29.634" gradientUnits="userSpaceOnUse"><stop stop-color="#2BDABE"/><stop offset="1" stop-color="#0067BF"/></linearGradient></defs></g></svg>