<svg xmlns="http://www.w3.org/2000/svg" width="1em" height="1em" viewBox="0 0 32 32"><g fill="none"><g filter="url(#IconifyId195ad048a32870fdf33313)"><rect width="27.875" height="22.031" x="2.094" y="4.969" fill="#5E4F86" rx=".8"/></g><g stroke-width=".65" filter="url(#IconifyId195ad048a32870fdf33314)"><path stroke="#463875" d="M2.58 21.984V10.016h3.388c.958 0 1.735.85 1.735 1.9v8.168c0 1.05-.777 1.9-1.735 1.9z"/><path stroke="url(#IconifyId195ad048a32870fdf33340)" d="M2.58 21.984V10.016h3.388c.958 0 1.735.85 1.735 1.9v8.168c0 1.05-.777 1.9-1.735 1.9z"/></g><g stroke-width=".65" filter="url(#IconifyId195ad048a32870fdf33315)"><path stroke="#463875" d="M29.498 10.016v11.968H26.1c-.961 0-1.74-.85-1.74-1.9v-8.168c0-1.05.779-1.9 1.74-1.9z"/><path stroke="url(#IconifyId195ad048a32870fdf33341)" d="M29.498 10.016v11.968H26.1c-.961 0-1.74-.85-1.74-1.9v-8.168c0-1.05.779-1.9 1.74-1.9z"/></g><g stroke-width=".65" filter="url(#IconifyId195ad048a32870fdf33316)"><path stroke="#463875" d="M9.945 11.916a1.9 1.9 0 0 1 1.9-1.9h8.31a1.9 1.9 0 0 1 1.9 1.9v8.168a1.9 1.9 0 0 1-1.9 1.9h-8.31a1.9 1.9 0 0 1-1.9-1.9z"/><path stroke="url(#IconifyId195ad048a32870fdf33342)" d="M9.945 11.916a1.9 1.9 0 0 1 1.9-1.9h8.31a1.9 1.9 0 0 1 1.9 1.9v8.168a1.9 1.9 0 0 1-1.9 1.9h-8.31a1.9 1.9 0 0 1-1.9-1.9z"/></g><g filter="url(#IconifyId195ad048a32870fdf33317)"><path fill="#7BBEE4" d="M29.969 10.016v11.968h-3.71a1.9 1.9 0 0 1-1.9-1.9v-8.168a1.9 1.9 0 0 1 1.9-1.9z"/></g><path fill="url(#IconifyId195ad048a32870fdf33343)" d="M29.969 10.016v11.968h-3.71a1.9 1.9 0 0 1-1.9-1.9v-8.168a1.9 1.9 0 0 1 1.9-1.9z"/><g filter="url(#IconifyId195ad048a32870fdf33318)"><path fill="#7BBEE4" d="M9.945 11.916a1.9 1.9 0 0 1 1.9-1.9h8.31a1.9 1.9 0 0 1 1.9 1.9v8.168a1.9 1.9 0 0 1-1.9 1.9h-8.31a1.9 1.9 0 0 1-1.9-1.9z"/></g><g filter="url(#IconifyId195ad048a32870fdf33319)"><path fill="#7BBEE4" d="M2.094 21.984V10.016h3.71a1.9 1.9 0 0 1 1.9 1.9v8.168a1.9 1.9 0 0 1-1.9 1.9z"/></g><g stroke-width=".6" filter="url(#IconifyId195ad048a32870fdf33320)"><path stroke="#43346D" d="M4.063 6.758a.25.25 0 0 1 .25-.25h1.546a.25.25 0 0 1 .25.25v1.547a.25.25 0 0 1-.25.25H4.313a.25.25 0 0 1-.25-.25z"/><path stroke="url(#IconifyId195ad048a32870fdf33344)" d="M4.063 6.758a.25.25 0 0 1 .25-.25h1.546a.25.25 0 0 1 .25.25v1.547a.25.25 0 0 1-.25.25H4.313a.25.25 0 0 1-.25-.25z"/></g><g filter="url(#IconifyId195ad048a32870fdf33321)"><path stroke="#422E6F" stroke-width=".1" d="M4.063 6.758a.25.25 0 0 1 .25-.25h1.546a.25.25 0 0 1 .25.25v1.547a.25.25 0 0 1-.25.25H4.313a.25.25 0 0 1-.25-.25z"/></g><g stroke-width=".6" filter="url(#IconifyId195ad048a32870fdf33322)"><path stroke="#43346D" d="M9.531 6.758a.25.25 0 0 1 .25-.25h1.547a.25.25 0 0 1 .25.25v1.547a.25.25 0 0 1-.25.25H9.781a.25.25 0 0 1-.25-.25z"/><path stroke="url(#IconifyId195ad048a32870fdf33345)" d="M9.531 6.758a.25.25 0 0 1 .25-.25h1.547a.25.25 0 0 1 .25.25v1.547a.25.25 0 0 1-.25.25H9.781a.25.25 0 0 1-.25-.25z"/></g><g filter="url(#IconifyId195ad048a32870fdf33323)"><path stroke="#422E6F" stroke-width=".1" d="M9.531 6.758a.25.25 0 0 1 .25-.25h1.547a.25.25 0 0 1 .25.25v1.547a.25.25 0 0 1-.25.25H9.781a.25.25 0 0 1-.25-.25z"/></g><g stroke-width=".6" filter="url(#IconifyId195ad048a32870fdf33324)"><path stroke="#43346D" d="M15.008 6.758a.25.25 0 0 1 .25-.25h1.547a.25.25 0 0 1 .25.25v1.547a.25.25 0 0 1-.25.25h-1.547a.25.25 0 0 1-.25-.25z"/><path stroke="url(#IconifyId195ad048a32870fdf33346)" d="M15.008 6.758a.25.25 0 0 1 .25-.25h1.547a.25.25 0 0 1 .25.25v1.547a.25.25 0 0 1-.25.25h-1.547a.25.25 0 0 1-.25-.25z"/></g><g filter="url(#IconifyId195ad048a32870fdf33325)"><path stroke="#422E6F" stroke-width=".1" d="M15.008 6.758a.25.25 0 0 1 .25-.25h1.547a.25.25 0 0 1 .25.25v1.547a.25.25 0 0 1-.25.25h-1.547a.25.25 0 0 1-.25-.25z"/></g><g stroke-width=".6" filter="url(#IconifyId195ad048a32870fdf33326)"><path stroke="#43346D" d="M20.469 6.758a.25.25 0 0 1 .25-.25h1.547a.25.25 0 0 1 .25.25v1.547a.25.25 0 0 1-.25.25h-1.547a.25.25 0 0 1-.25-.25z"/><path stroke="url(#IconifyId195ad048a32870fdf33347)" d="M20.469 6.758a.25.25 0 0 1 .25-.25h1.547a.25.25 0 0 1 .25.25v1.547a.25.25 0 0 1-.25.25h-1.547a.25.25 0 0 1-.25-.25z"/></g><g filter="url(#IconifyId195ad048a32870fdf33327)"><path stroke="#422E6F" stroke-width=".1" d="M20.469 6.758a.25.25 0 0 1 .25-.25h1.547a.25.25 0 0 1 .25.25v1.547a.25.25 0 0 1-.25.25h-1.547a.25.25 0 0 1-.25-.25z"/></g><g stroke-width=".6" filter="url(#IconifyId195ad048a32870fdf33328)"><path stroke="#43346D" d="M25.938 6.758a.25.25 0 0 1 .25-.25h1.546a.25.25 0 0 1 .25.25v1.547a.25.25 0 0 1-.25.25h-1.547a.25.25 0 0 1-.25-.25z"/><path stroke="url(#IconifyId195ad048a32870fdf33348)" d="M25.938 6.758a.25.25 0 0 1 .25-.25h1.546a.25.25 0 0 1 .25.25v1.547a.25.25 0 0 1-.25.25h-1.547a.25.25 0 0 1-.25-.25z"/></g><g filter="url(#IconifyId195ad048a32870fdf33329)"><path stroke="#422E6F" stroke-width=".1" d="M25.938 6.758a.25.25 0 0 1 .25-.25h1.546a.25.25 0 0 1 .25.25v1.547a.25.25 0 0 1-.25.25h-1.547a.25.25 0 0 1-.25-.25z"/></g><g stroke-width=".6" filter="url(#IconifyId195ad048a32870fdf33330)"><path stroke="#43346D" d="M4.063 23.695a.25.25 0 0 1 .25-.25h1.546a.25.25 0 0 1 .25.25v1.547a.25.25 0 0 1-.25.25H4.313a.25.25 0 0 1-.25-.25z"/><path stroke="url(#IconifyId195ad048a32870fdf33349)" d="M4.063 23.695a.25.25 0 0 1 .25-.25h1.546a.25.25 0 0 1 .25.25v1.547a.25.25 0 0 1-.25.25H4.313a.25.25 0 0 1-.25-.25z"/></g><g stroke-width=".6" filter="url(#IconifyId195ad048a32870fdf33331)"><path stroke="#43346D" d="M9.531 23.695a.25.25 0 0 1 .25-.25h1.547a.25.25 0 0 1 .25.25v1.547a.25.25 0 0 1-.25.25H9.781a.25.25 0 0 1-.25-.25z"/><path stroke="url(#IconifyId195ad048a32870fdf33350)" d="M9.531 23.695a.25.25 0 0 1 .25-.25h1.547a.25.25 0 0 1 .25.25v1.547a.25.25 0 0 1-.25.25H9.781a.25.25 0 0 1-.25-.25z"/></g><g stroke-width=".6" filter="url(#IconifyId195ad048a32870fdf33332)"><path stroke="#43346D" d="M15 23.695a.25.25 0 0 1 .25-.25h1.547a.25.25 0 0 1 .25.25v1.547a.25.25 0 0 1-.25.25H15.25a.25.25 0 0 1-.25-.25z"/><path stroke="url(#IconifyId195ad048a32870fdf33351)" d="M15 23.695a.25.25 0 0 1 .25-.25h1.547a.25.25 0 0 1 .25.25v1.547a.25.25 0 0 1-.25.25H15.25a.25.25 0 0 1-.25-.25z"/></g><g stroke-width=".6" filter="url(#IconifyId195ad048a32870fdf33333)"><path stroke="#43346D" d="M20.469 23.695a.25.25 0 0 1 .25-.25h1.547a.25.25 0 0 1 .25.25v1.547a.25.25 0 0 1-.25.25h-1.547a.25.25 0 0 1-.25-.25z"/><path stroke="url(#IconifyId195ad048a32870fdf33352)" d="M20.469 23.695a.25.25 0 0 1 .25-.25h1.547a.25.25 0 0 1 .25.25v1.547a.25.25 0 0 1-.25.25h-1.547a.25.25 0 0 1-.25-.25z"/></g><g stroke-width=".6" filter="url(#IconifyId195ad048a32870fdf33334)"><path stroke="#43346D" d="M25.938 23.695a.25.25 0 0 1 .25-.25h1.546a.25.25 0 0 1 .25.25v1.547a.25.25 0 0 1-.25.25h-1.547a.25.25 0 0 1-.25-.25z"/><path stroke="url(#IconifyId195ad048a32870fdf33353)" d="M25.938 23.695a.25.25 0 0 1 .25-.25h1.546a.25.25 0 0 1 .25.25v1.547a.25.25 0 0 1-.25.25h-1.547a.25.25 0 0 1-.25-.25z"/></g><path fill="#E5E5E5" d="M4.063 6.758a.25.25 0 0 1 .25-.25h1.546a.25.25 0 0 1 .25.25v1.547a.25.25 0 0 1-.25.25H4.313a.25.25 0 0 1-.25-.25zm5.468 0a.25.25 0 0 1 .25-.25h1.547a.25.25 0 0 1 .25.25v1.547a.25.25 0 0 1-.25.25H9.781a.25.25 0 0 1-.25-.25zm5.469 0a.25.25 0 0 1 .25-.25h1.547a.25.25 0 0 1 .25.25v1.547a.25.25 0 0 1-.25.25H15.25a.25.25 0 0 1-.25-.25zm5.469 0a.25.25 0 0 1 .25-.25h1.547a.25.25 0 0 1 .25.25v1.547a.25.25 0 0 1-.25.25h-1.547a.25.25 0 0 1-.25-.25zm5.469 0a.25.25 0 0 1 .25-.25h1.546a.25.25 0 0 1 .25.25v1.547a.25.25 0 0 1-.25.25h-1.547a.25.25 0 0 1-.25-.25z"/><g filter="url(#IconifyId195ad048a32870fdf33335)"><path stroke="#422E6F" stroke-width=".1" d="M4.063 23.695a.25.25 0 0 1 .25-.25h1.546a.25.25 0 0 1 .25.25v1.547a.25.25 0 0 1-.25.25H4.313a.25.25 0 0 1-.25-.25z"/></g><g filter="url(#IconifyId195ad048a32870fdf33336)"><path stroke="#422E6F" stroke-width=".1" d="M9.531 23.695a.25.25 0 0 1 .25-.25h1.547a.25.25 0 0 1 .25.25v1.547a.25.25 0 0 1-.25.25H9.781a.25.25 0 0 1-.25-.25z"/></g><g filter="url(#IconifyId195ad048a32870fdf33337)"><path stroke="#422E6F" stroke-width=".1" d="M15.008 23.695a.25.25 0 0 1 .25-.25h1.547a.25.25 0 0 1 .25.25v1.547a.25.25 0 0 1-.25.25h-1.547a.25.25 0 0 1-.25-.25z"/></g><g filter="url(#IconifyId195ad048a32870fdf33338)"><path stroke="#422E6F" stroke-width=".1" d="M20.469 23.695a.25.25 0 0 1 .25-.25h1.547a.25.25 0 0 1 .25.25v1.547a.25.25 0 0 1-.25.25h-1.547a.25.25 0 0 1-.25-.25z"/></g><g filter="url(#IconifyId195ad048a32870fdf33339)"><path stroke="#422E6F" stroke-width=".1" d="M25.938 23.695a.25.25 0 0 1 .25-.25h1.546a.25.25 0 0 1 .25.25v1.547a.25.25 0 0 1-.25.25h-1.547a.25.25 0 0 1-.25-.25z"/></g><path fill="#E5E5E5" d="M4.063 23.695a.25.25 0 0 1 .25-.25h1.546a.25.25 0 0 1 .25.25v1.547a.25.25 0 0 1-.25.25H4.313a.25.25 0 0 1-.25-.25zm5.468 0a.25.25 0 0 1 .25-.25h1.547a.25.25 0 0 1 .25.25v1.547a.25.25 0 0 1-.25.25H9.781a.25.25 0 0 1-.25-.25zm5.469 0a.25.25 0 0 1 .25-.25h1.547a.25.25 0 0 1 .25.25v1.547a.25.25 0 0 1-.25.25H15.25a.25.25 0 0 1-.25-.25zm5.469 0a.25.25 0 0 1 .25-.25h1.547a.25.25 0 0 1 .25.25v1.547a.25.25 0 0 1-.25.25h-1.547a.25.25 0 0 1-.25-.25zm5.469 0a.25.25 0 0 1 .25-.25h1.546a.25.25 0 0 1 .25.25v1.547a.25.25 0 0 1-.25.25h-1.547a.25.25 0 0 1-.25-.25z"/><defs><filter id="IconifyId195ad048a32870fdf33313" width="28.575" height="22.631" x="1.794" y="4.669" color-interpolation-filters="sRGB" filterUnits="userSpaceOnUse"><feFlood flood-opacity="0" result="BackgroundImageFix"/><feBlend in="SourceGraphic" in2="BackgroundImageFix" result="shape"/><feColorMatrix in="SourceAlpha" result="hardAlpha" values="0 0 0 0 0 0 0 0 0 0 0 0 0 0 0 0 0 0 127 0"/><feOffset dy=".4"/><feGaussianBlur stdDeviation=".15"/><feComposite in2="hardAlpha" k2="-1" k3="1" operator="arithmetic"/><feColorMatrix values="0 0 0 0 0.356863 0 0 0 0 0.317647 0 0 0 0 0.501961 0 0 0 1 0"/><feBlend in2="shape" result="effect1_innerShadow_18_20100"/><feColorMatrix in="SourceAlpha" result="hardAlpha" values="0 0 0 0 0 0 0 0 0 0 0 0 0 0 0 0 0 0 127 0"/><feOffset dx="-.4"/><feGaussianBlur stdDeviation=".15"/><feComposite in2="hardAlpha" k2="-1" k3="1" operator="arithmetic"/><feColorMatrix values="0 0 0 0 0.447059 0 0 0 0 0.407843 0 0 0 0 0.572549 0 0 0 1 0"/><feBlend in2="effect1_innerShadow_18_20100" result="effect2_innerShadow_18_20100"/><feColorMatrix in="SourceAlpha" result="hardAlpha" values="0 0 0 0 0 0 0 0 0 0 0 0 0 0 0 0 0 0 127 0"/><feOffset dy="-.4"/><feGaussianBlur stdDeviation=".15"/><feComposite in2="hardAlpha" k2="-1" k3="1" operator="arithmetic"/><feColorMatrix values="0 0 0 0 0.376471 0 0 0 0 0.231373 0 0 0 0 0.584314 0 0 0 1 0"/><feBlend in2="effect2_innerShadow_18_20100" result="effect3_innerShadow_18_20100"/><feColorMatrix in="SourceAlpha" result="hardAlpha" values="0 0 0 0 0 0 0 0 0 0 0 0 0 0 0 0 0 0 127 0"/><feOffset dx=".4"/><feGaussianBlur stdDeviation=".2"/><feComposite in2="hardAlpha" k2="-1" k3="1" operator="arithmetic"/><feColorMatrix values="0 0 0 0 0.313726 0 0 0 0 0.262745 0 0 0 0 0.466667 0 0 0 1 0"/><feBlend in2="effect3_innerShadow_18_20100" result="effect4_innerShadow_18_20100"/></filter><filter id="IconifyId195ad048a32870fdf33314" width="6.374" height="13.219" x="1.954" y="9.391" color-interpolation-filters="sRGB" filterUnits="userSpaceOnUse"><feFlood flood-opacity="0" result="BackgroundImageFix"/><feBlend in="SourceGraphic" in2="BackgroundImageFix" result="shape"/><feGaussianBlur result="effect1_foregroundBlur_18_20100" stdDeviation=".15"/></filter><filter id="IconifyId195ad048a32870fdf33315" width="6.389" height="13.219" x="23.734" y="9.391" color-interpolation-filters="sRGB" filterUnits="userSpaceOnUse"><feFlood flood-opacity="0" result="BackgroundImageFix"/><feBlend in="SourceGraphic" in2="BackgroundImageFix" result="shape"/><feGaussianBlur result="effect1_foregroundBlur_18_20100" stdDeviation=".15"/></filter><filter id="IconifyId195ad048a32870fdf33316" width="13.359" height="13.219" x="9.32" y="9.391" color-interpolation-filters="sRGB" filterUnits="userSpaceOnUse"><feFlood flood-opacity="0" result="BackgroundImageFix"/><feBlend in="SourceGraphic" in2="BackgroundImageFix" result="shape"/><feGaussianBlur result="effect1_foregroundBlur_18_20100" stdDeviation=".15"/></filter><filter id="IconifyId195ad048a32870fdf33317" width="6.609" height="11.969" x="24.359" y="10.016" color-interpolation-filters="sRGB" filterUnits="userSpaceOnUse"><feFlood flood-opacity="0" result="BackgroundImageFix"/><feBlend in="SourceGraphic" in2="BackgroundImageFix" result="shape"/><feColorMatrix in="SourceAlpha" result="hardAlpha" values="0 0 0 0 0 0 0 0 0 0 0 0 0 0 0 0 0 0 127 0"/><feOffset dx="1"/><feGaussianBlur stdDeviation="1.5"/><feComposite in2="hardAlpha" k2="-1" k3="1" operator="arithmetic"/><feColorMatrix values="0 0 0 0 0.321569 0 0 0 0 0.615686 0 0 0 0 0.764706 0 0 0 1 0"/><feBlend in2="shape" result="effect1_innerShadow_18_20100"/></filter><filter id="IconifyId195ad048a32870fdf33318" width="12.109" height="11.969" x="9.945" y="10.016" color-interpolation-filters="sRGB" filterUnits="userSpaceOnUse"><feFlood flood-opacity="0" result="BackgroundImageFix"/><feBlend in="SourceGraphic" in2="BackgroundImageFix" result="shape"/><feColorMatrix in="SourceAlpha" result="hardAlpha" values="0 0 0 0 0 0 0 0 0 0 0 0 0 0 0 0 0 0 127 0"/><feOffset/><feGaussianBlur stdDeviation="2"/><feComposite in2="hardAlpha" k2="-1" k3="1" operator="arithmetic"/><feColorMatrix values="0 0 0 0 0.321569 0 0 0 0 0.615686 0 0 0 0 0.764706 0 0 0 1 0"/><feBlend in2="shape" result="effect1_innerShadow_18_20100"/></filter><filter id="IconifyId195ad048a32870fdf33319" width="6.609" height="11.969" x="1.094" y="10.016" color-interpolation-filters="sRGB" filterUnits="userSpaceOnUse"><feFlood flood-opacity="0" result="BackgroundImageFix"/><feBlend in="SourceGraphic" in2="BackgroundImageFix" result="shape"/><feColorMatrix in="SourceAlpha" result="hardAlpha" values="0 0 0 0 0 0 0 0 0 0 0 0 0 0 0 0 0 0 127 0"/><feOffset dx="-1"/><feGaussianBlur stdDeviation="1.5"/><feComposite in2="hardAlpha" k2="-1" k3="1" operator="arithmetic"/><feColorMatrix values="0 0 0 0 0.321569 0 0 0 0 0.615686 0 0 0 0 0.764706 0 0 0 1 0"/><feBlend in2="shape" result="effect1_innerShadow_18_20100"/></filter><filter id="IconifyId195ad048a32870fdf33320" width="3.147" height="3.147" x="3.512" y="5.958" color-interpolation-filters="sRGB" filterUnits="userSpaceOnUse"><feFlood flood-opacity="0" result="BackgroundImageFix"/><feBlend in="SourceGraphic" in2="BackgroundImageFix" result="shape"/><feGaussianBlur result="effect1_foregroundBlur_18_20100" stdDeviation=".125"/></filter><filter id="IconifyId195ad048a32870fdf33321" width="2.447" height="2.447" x="3.862" y="6.308" color-interpolation-filters="sRGB" filterUnits="userSpaceOnUse"><feFlood flood-opacity="0" result="BackgroundImageFix"/><feBlend in="SourceGraphic" in2="BackgroundImageFix" result="shape"/><feGaussianBlur result="effect1_foregroundBlur_18_20100" stdDeviation=".075"/></filter><filter id="IconifyId195ad048a32870fdf33322" width="3.147" height="3.147" x="8.981" y="5.958" color-interpolation-filters="sRGB" filterUnits="userSpaceOnUse"><feFlood flood-opacity="0" result="BackgroundImageFix"/><feBlend in="SourceGraphic" in2="BackgroundImageFix" result="shape"/><feGaussianBlur result="effect1_foregroundBlur_18_20100" stdDeviation=".125"/></filter><filter id="IconifyId195ad048a32870fdf33323" width="2.447" height="2.447" x="9.331" y="6.308" color-interpolation-filters="sRGB" filterUnits="userSpaceOnUse"><feFlood flood-opacity="0" result="BackgroundImageFix"/><feBlend in="SourceGraphic" in2="BackgroundImageFix" result="shape"/><feGaussianBlur result="effect1_foregroundBlur_18_20100" stdDeviation=".075"/></filter><filter id="IconifyId195ad048a32870fdf33324" width="3.147" height="3.147" x="14.458" y="5.958" color-interpolation-filters="sRGB" filterUnits="userSpaceOnUse"><feFlood flood-opacity="0" result="BackgroundImageFix"/><feBlend in="SourceGraphic" in2="BackgroundImageFix" result="shape"/><feGaussianBlur result="effect1_foregroundBlur_18_20100" stdDeviation=".125"/></filter><filter id="IconifyId195ad048a32870fdf33325" width="2.447" height="2.447" x="14.808" y="6.308" color-interpolation-filters="sRGB" filterUnits="userSpaceOnUse"><feFlood flood-opacity="0" result="BackgroundImageFix"/><feBlend in="SourceGraphic" in2="BackgroundImageFix" result="shape"/><feGaussianBlur result="effect1_foregroundBlur_18_20100" stdDeviation=".075"/></filter><filter id="IconifyId195ad048a32870fdf33326" width="3.147" height="3.147" x="19.919" y="5.958" color-interpolation-filters="sRGB" filterUnits="userSpaceOnUse"><feFlood flood-opacity="0" result="BackgroundImageFix"/><feBlend in="SourceGraphic" in2="BackgroundImageFix" result="shape"/><feGaussianBlur result="effect1_foregroundBlur_18_20100" stdDeviation=".125"/></filter><filter id="IconifyId195ad048a32870fdf33327" width="2.447" height="2.447" x="20.269" y="6.308" color-interpolation-filters="sRGB" filterUnits="userSpaceOnUse"><feFlood flood-opacity="0" result="BackgroundImageFix"/><feBlend in="SourceGraphic" in2="BackgroundImageFix" result="shape"/><feGaussianBlur result="effect1_foregroundBlur_18_20100" stdDeviation=".075"/></filter><filter id="IconifyId195ad048a32870fdf33328" width="3.147" height="3.147" x="25.387" y="5.958" color-interpolation-filters="sRGB" filterUnits="userSpaceOnUse"><feFlood flood-opacity="0" result="BackgroundImageFix"/><feBlend in="SourceGraphic" in2="BackgroundImageFix" result="shape"/><feGaussianBlur result="effect1_foregroundBlur_18_20100" stdDeviation=".125"/></filter><filter id="IconifyId195ad048a32870fdf33329" width="2.447" height="2.447" x="25.738" y="6.308" color-interpolation-filters="sRGB" filterUnits="userSpaceOnUse"><feFlood flood-opacity="0" result="BackgroundImageFix"/><feBlend in="SourceGraphic" in2="BackgroundImageFix" result="shape"/><feGaussianBlur result="effect1_foregroundBlur_18_20100" stdDeviation=".075"/></filter><filter id="IconifyId195ad048a32870fdf33330" width="3.147" height="3.147" x="3.512" y="22.895" color-interpolation-filters="sRGB" filterUnits="userSpaceOnUse"><feFlood flood-opacity="0" result="BackgroundImageFix"/><feBlend in="SourceGraphic" in2="BackgroundImageFix" result="shape"/><feGaussianBlur result="effect1_foregroundBlur_18_20100" stdDeviation=".125"/></filter><filter id="IconifyId195ad048a32870fdf33331" width="3.147" height="3.147" x="8.981" y="22.895" color-interpolation-filters="sRGB" filterUnits="userSpaceOnUse"><feFlood flood-opacity="0" result="BackgroundImageFix"/><feBlend in="SourceGraphic" in2="BackgroundImageFix" result="shape"/><feGaussianBlur result="effect1_foregroundBlur_18_20100" stdDeviation=".125"/></filter><filter id="IconifyId195ad048a32870fdf33332" width="3.147" height="3.147" x="14.45" y="22.895" color-interpolation-filters="sRGB" filterUnits="userSpaceOnUse"><feFlood flood-opacity="0" result="BackgroundImageFix"/><feBlend in="SourceGraphic" in2="BackgroundImageFix" result="shape"/><feGaussianBlur result="effect1_foregroundBlur_18_20100" stdDeviation=".125"/></filter><filter id="IconifyId195ad048a32870fdf33333" width="3.147" height="3.147" x="19.919" y="22.895" color-interpolation-filters="sRGB" filterUnits="userSpaceOnUse"><feFlood flood-opacity="0" result="BackgroundImageFix"/><feBlend in="SourceGraphic" in2="BackgroundImageFix" result="shape"/><feGaussianBlur result="effect1_foregroundBlur_18_20100" stdDeviation=".125"/></filter><filter id="IconifyId195ad048a32870fdf33334" width="3.147" height="3.147" x="25.387" y="22.895" color-interpolation-filters="sRGB" filterUnits="userSpaceOnUse"><feFlood flood-opacity="0" result="BackgroundImageFix"/><feBlend in="SourceGraphic" in2="BackgroundImageFix" result="shape"/><feGaussianBlur result="effect1_foregroundBlur_18_20100" stdDeviation=".125"/></filter><filter id="IconifyId195ad048a32870fdf33335" width="2.447" height="2.447" x="3.862" y="23.245" color-interpolation-filters="sRGB" filterUnits="userSpaceOnUse"><feFlood flood-opacity="0" result="BackgroundImageFix"/><feBlend in="SourceGraphic" in2="BackgroundImageFix" result="shape"/><feGaussianBlur result="effect1_foregroundBlur_18_20100" stdDeviation=".075"/></filter><filter id="IconifyId195ad048a32870fdf33336" width="2.447" height="2.447" x="9.331" y="23.245" color-interpolation-filters="sRGB" filterUnits="userSpaceOnUse"><feFlood flood-opacity="0" result="BackgroundImageFix"/><feBlend in="SourceGraphic" in2="BackgroundImageFix" result="shape"/><feGaussianBlur result="effect1_foregroundBlur_18_20100" stdDeviation=".075"/></filter><filter id="IconifyId195ad048a32870fdf33337" width="2.447" height="2.447" x="14.808" y="23.245" color-interpolation-filters="sRGB" filterUnits="userSpaceOnUse"><feFlood flood-opacity="0" result="BackgroundImageFix"/><feBlend in="SourceGraphic" in2="BackgroundImageFix" result="shape"/><feGaussianBlur result="effect1_foregroundBlur_18_20100" stdDeviation=".075"/></filter><filter id="IconifyId195ad048a32870fdf33338" width="2.447" height="2.447" x="20.269" y="23.245" color-interpolation-filters="sRGB" filterUnits="userSpaceOnUse"><feFlood flood-opacity="0" result="BackgroundImageFix"/><feBlend in="SourceGraphic" in2="BackgroundImageFix" result="shape"/><feGaussianBlur result="effect1_foregroundBlur_18_20100" stdDeviation=".075"/></filter><filter id="IconifyId195ad048a32870fdf33339" width="2.447" height="2.447" x="25.738" y="23.245" color-interpolation-filters="sRGB" filterUnits="userSpaceOnUse"><feFlood flood-opacity="0" result="BackgroundImageFix"/><feBlend in="SourceGraphic" in2="BackgroundImageFix" result="shape"/><feGaussianBlur result="effect1_foregroundBlur_18_20100" stdDeviation=".075"/></filter><linearGradient id="IconifyId195ad048a32870fdf33340" x1="2.769" x2="6.134" y1="21.432" y2="21.199" gradientUnits="userSpaceOnUse"><stop stop-color="#564D7C"/><stop offset="1" stop-color="#564D7C" stop-opacity="0"/></linearGradient><linearGradient id="IconifyId195ad048a32870fdf33341" x1="24.55" x2="25.8" y1="21.432" y2="21.331" gradientUnits="userSpaceOnUse"><stop stop-color="#7D769C"/><stop offset="1" stop-color="#7D769C" stop-opacity="0"/></linearGradient><linearGradient id="IconifyId195ad048a32870fdf33342" x1="10.395" x2="13.255" y1="21.432" y2="20.887" gradientUnits="userSpaceOnUse"><stop stop-color="#7D769C"/><stop offset="1" stop-color="#7D769C" stop-opacity="0"/></linearGradient><linearGradient id="IconifyId195ad048a32870fdf33343" x1="30.813" x2="26.688" y1="21.984" y2="21.984" gradientUnits="userSpaceOnUse"><stop stop-color="#87CDED"/><stop offset="1" stop-color="#87CDED" stop-opacity="0"/></linearGradient><linearGradient id="IconifyId195ad048a32870fdf33344" x1="3.906" x2="4.813" y1="8.555" y2="8.453" gradientUnits="userSpaceOnUse"><stop stop-color="#7A7294"/><stop offset="1" stop-color="#7A7294" stop-opacity="0"/></linearGradient><linearGradient id="IconifyId195ad048a32870fdf33345" x1="9.375" x2="10.281" y1="8.555" y2="8.453" gradientUnits="userSpaceOnUse"><stop stop-color="#7A7294"/><stop offset="1" stop-color="#7A7294" stop-opacity="0"/></linearGradient><linearGradient id="IconifyId195ad048a32870fdf33346" x1="14.852" x2="15.758" y1="8.555" y2="8.453" gradientUnits="userSpaceOnUse"><stop stop-color="#7A7294"/><stop offset="1" stop-color="#7A7294" stop-opacity="0"/></linearGradient><linearGradient id="IconifyId195ad048a32870fdf33347" x1="20.313" x2="21.219" y1="8.555" y2="8.453" gradientUnits="userSpaceOnUse"><stop stop-color="#7A7294"/><stop offset="1" stop-color="#7A7294" stop-opacity="0"/></linearGradient><linearGradient id="IconifyId195ad048a32870fdf33348" x1="25.781" x2="26.688" y1="8.555" y2="8.453" gradientUnits="userSpaceOnUse"><stop stop-color="#7A7294"/><stop offset="1" stop-color="#7A7294" stop-opacity="0"/></linearGradient><linearGradient id="IconifyId195ad048a32870fdf33349" x1="3.906" x2="4.813" y1="25.492" y2="25.391" gradientUnits="userSpaceOnUse"><stop stop-color="#7A7294"/><stop offset="1" stop-color="#7A7294" stop-opacity="0"/></linearGradient><linearGradient id="IconifyId195ad048a32870fdf33350" x1="9.375" x2="10.281" y1="25.492" y2="25.391" gradientUnits="userSpaceOnUse"><stop stop-color="#7A7294"/><stop offset="1" stop-color="#7A7294" stop-opacity="0"/></linearGradient><linearGradient id="IconifyId195ad048a32870fdf33351" x1="14.844" x2="15.75" y1="25.492" y2="25.391" gradientUnits="userSpaceOnUse"><stop stop-color="#7A7294"/><stop offset="1" stop-color="#7A7294" stop-opacity="0"/></linearGradient><linearGradient id="IconifyId195ad048a32870fdf33352" x1="20.313" x2="21.219" y1="25.492" y2="25.391" gradientUnits="userSpaceOnUse"><stop stop-color="#7A7294"/><stop offset="1" stop-color="#7A7294" stop-opacity="0"/></linearGradient><linearGradient id="IconifyId195ad048a32870fdf33353" x1="25.781" x2="26.688" y1="25.492" y2="25.391" gradientUnits="userSpaceOnUse"><stop stop-color="#7A7294"/><stop offset="1" stop-color="#7A7294" stop-opacity="0"/></linearGradient></defs></g></svg>