<svg xmlns="http://www.w3.org/2000/svg" width="1em" height="1em" viewBox="0 0 32 32"><g fill="none"><path fill="url(#IconifyId195ad048a32870fdf42493)" d="M2 10c0-1.657 1.332-3 2.954-3h22.092C28.677 7 30 8.353 30 10c0 1.657-1.332 3-2.954 3H4.954C3.332 13 2 11.647 2 10"/><path fill="url(#IconifyId195ad048a32870fdf42489)" d="M2 10c0-1.657 1.332-3 2.954-3h22.092C28.677 7 30 8.353 30 10c0 1.657-1.332 3-2.954 3H4.954C3.332 13 2 11.647 2 10"/><path fill="url(#IconifyId195ad048a32870fdf42490)" d="M2 10c0-1.657 1.332-3 2.954-3h22.092C28.677 7 30 8.353 30 10c0 1.657-1.332 3-2.954 3H4.954C3.332 13 2 11.647 2 10"/><path fill="url(#IconifyId195ad048a32870fdf42494)" d="M2 22c0-1.657 1.332-3 2.954-3h22.092C28.677 19 30 20.353 30 22c0 1.657-1.332 3-2.954 3H4.954C3.332 25 2 23.647 2 22"/><path fill="url(#IconifyId195ad048a32870fdf42491)" d="M2 22c0-1.657 1.332-3 2.954-3h22.092C28.677 19 30 20.353 30 22c0 1.657-1.332 3-2.954 3H4.954C3.332 25 2 23.647 2 22"/><path fill="url(#IconifyId195ad048a32870fdf42492)" d="M2 22c0-1.657 1.332-3 2.954-3h22.092C28.677 19 30 20.353 30 22c0 1.657-1.332 3-2.954 3H4.954C3.332 25 2 23.647 2 22"/><defs><radialGradient id="IconifyId195ad048a32870fdf42489" cx="0" cy="0" r="1" gradientTransform="matrix(-.70665 13.46617 -20.99361 -1.10166 16.707 10)" gradientUnits="userSpaceOnUse"><stop offset=".609" stop-color="#423473" stop-opacity="0"/><stop offset=".704" stop-color="#41366A"/></radialGradient><radialGradient id="IconifyId195ad048a32870fdf42490" cx="0" cy="0" r="1" gradientTransform="rotate(130.948 11.948 10.757)scale(1.61127 1.61636)" gradientUnits="userSpaceOnUse"><stop stop-color="#9C92D2"/><stop offset="1" stop-color="#9D93D3" stop-opacity="0"/></radialGradient><radialGradient id="IconifyId195ad048a32870fdf42491" cx="0" cy="0" r="1" gradientTransform="matrix(-.70665 13.46617 -20.99361 -1.10166 16.707 22)" gradientUnits="userSpaceOnUse"><stop offset=".609" stop-color="#423473" stop-opacity="0"/><stop offset=".704" stop-color="#41366A"/></radialGradient><radialGradient id="IconifyId195ad048a32870fdf42492" cx="0" cy="0" r="1" gradientTransform="rotate(130.948 9.21 16.757)scale(1.61127 1.61636)" gradientUnits="userSpaceOnUse"><stop stop-color="#9C92D2"/><stop offset="1" stop-color="#9D93D3" stop-opacity="0"/></radialGradient><linearGradient id="IconifyId195ad048a32870fdf42493" x1="16" x2="16" y1="7" y2="13" gradientUnits="userSpaceOnUse"><stop stop-color="#655898"/><stop offset=".214" stop-color="#8276BD"/><stop offset=".335" stop-color="#897EC1"/><stop offset=".523" stop-color="#7966C1"/><stop offset=".863" stop-color="#8842EC"/><stop offset="1" stop-color="#6035BE"/></linearGradient><linearGradient id="IconifyId195ad048a32870fdf42494" x1="16" x2="16" y1="19" y2="25" gradientUnits="userSpaceOnUse"><stop stop-color="#655898"/><stop offset=".214" stop-color="#8276BD"/><stop offset=".335" stop-color="#897EC1"/><stop offset=".523" stop-color="#7966C1"/><stop offset=".863" stop-color="#8842EC"/><stop offset="1" stop-color="#6035BE"/></linearGradient></defs></g></svg>