<svg xmlns="http://www.w3.org/2000/svg" width="1em" height="1em" viewBox="0 0 32 32"><g fill="none"><g filter="url(#IconifyId195ac99e25a590abd70667)"><path fill="url(#IconifyId195ac99e25a590abd70640)" d="M5.65 29.81h20.7c-.493-4.932-5.203-8.665-10.39-8.665c-5.189 0-9.713 3.764-10.31 8.664"/><path fill="url(#IconifyId195ac99e25a590abd70641)" d="M5.65 29.81h20.7c-.493-4.932-5.203-8.665-10.39-8.665c-5.189 0-9.713 3.764-10.31 8.664"/><path fill="url(#IconifyId195ac99e25a590abd70642)" d="M5.65 29.81h20.7c-.493-4.932-5.203-8.665-10.39-8.665c-5.189 0-9.713 3.764-10.31 8.664"/></g><path fill="#A87873" d="M13.742 20.41a2.256 2.256 0 0 1 4.512 0v2.102c0 1.245-1.588 1.624-2.256 1.624c-.766 0-2.256-.378-2.256-1.624z"/><path fill="url(#IconifyId195ac99e25a590abd70643)" d="M13.742 20.41a2.256 2.256 0 0 1 4.512 0v2.102c0 1.245-1.588 1.624-2.256 1.624c-.766 0-2.256-.378-2.256-1.624z"/><path fill="url(#IconifyId195ac99e25a590abd70644)" d="M13.742 20.41a2.256 2.256 0 0 1 4.512 0v2.102c0 1.245-1.588 1.624-2.256 1.624c-.766 0-2.256-.378-2.256-1.624z"/><circle cx="21.426" cy="14.831" r="1.859" fill="url(#IconifyId195ac99e25a590abd70645)"/><circle cx="21.426" cy="14.831" r="1.859" fill="url(#IconifyId195ac99e25a590abd70646)"/><circle cx="10.598" cy="14.831" r="1.859" fill="url(#IconifyId195ac99e25a590abd70647)"/><g filter="url(#IconifyId195ac99e25a590abd70668)"><circle cx="21.426" cy="14.831" r="1.145" fill="url(#IconifyId195ac99e25a590abd70648)"/></g><g filter="url(#IconifyId195ac99e25a590abd70669)" opacity=".5"><circle cx="10.598" cy="14.831" r="1.145" fill="#734743"/></g><g filter="url(#IconifyId195ac99e25a590abd70670)"><path fill="url(#IconifyId195ac99e25a590abd70649)" d="M10.375 18.167c.14 1.625.594 3.688 3.594 3.883a64 64 0 0 0 1.984.039h.078c.251 0 1.032-.005 1.985-.039c3-.195 3.453-2.258 3.594-3.883l.346-6.713c.085-1.627-1.008-3.096-2.622-3.31a30 30 0 0 0-3.303-.265h-.078a30 30 0 0 0-3.302.264c-1.615.215-2.707 1.684-2.623 3.311z"/></g><path fill="url(#IconifyId195ac99e25a590abd70650)" d="M10.375 18.167c.14 1.625.594 3.688 3.594 3.883a64 64 0 0 0 1.984.039h.078c.251 0 1.032-.005 1.985-.039c3-.195 3.453-2.258 3.594-3.883l.492-9.523a31 31 0 0 0-6.07-.765h-.079a31 31 0 0 0-6.07.765z"/><path fill="url(#IconifyId195ac99e25a590abd70651)" d="M10.375 18.167c.14 1.625.594 3.688 3.594 3.883a64 64 0 0 0 1.984.039h.078c.251 0 1.032-.005 1.985-.039c3-.195 3.453-2.258 3.594-3.883l.492-9.523a31 31 0 0 0-6.07-.765h-.079a31 31 0 0 0-6.07.765z"/><g filter="url(#IconifyId195ac99e25a590abd70671)"><path fill="url(#IconifyId195ac99e25a590abd70652)" d="M22.77 7.736h-3.172V5.932c0 .352-.21 1.036-.633 1.43a77 77 0 0 0-1.6 1.692a1.263 1.263 0 0 0 .025 1.715c.42.428 1.009.362 1.439-.055l.906-.74a.464.464 0 0 1 .691.044c.08.096.123.22.123.35v3.327c0 .662.497 1.199 1.11 1.199s1.111-.537 1.111-1.2z"/></g><g filter="url(#IconifyId195ac99e25a590abd70672)"><path fill="url(#IconifyId195ac99e25a590abd70653)" d="M9.357 6.856h2.83v.372c0 .291.187.855.564 1.181c.31.287.905.876 1.426 1.398a.987.987 0 0 1-.021 1.415c-.375.354-.899.3-1.282-.045l-.81-.61a.436.436 0 0 0-.726.324v2.748a.99.99 0 1 1-1.98 0z"/></g><g filter="url(#IconifyId195ac99e25a590abd70673)"><path fill="url(#IconifyId195ac99e25a590abd70654)" d="M12.015 6.056c.242-.225.546-.508.707-.635l.04-.031c.27-.217.803-.643 2.007-.375c.297.064.506.114.664.151c.282.068.397.095.547.095s.266-.027.548-.095c.158-.037.367-.087.663-.151c1.205-.268 1.737.158 2.008.375l.04.031c.16.127.464.41.707.635l.183.17l-.492 2.316c-2.352-.281-5.024-.265-7.313 0l-.492-2.316z"/><path fill="url(#IconifyId195ac99e25a590abd70655)" d="M12.015 6.056c.242-.225.546-.508.707-.635l.04-.031c.27-.217.803-.643 2.007-.375c.297.064.506.114.664.151c.282.068.397.095.547.095s.266-.027.548-.095c.158-.037.367-.087.663-.151c1.205-.268 1.737.158 2.008.375l.04.031c.16.127.464.41.707.635l.183.17l-.492 2.316c-2.352-.281-5.024-.265-7.313 0l-.492-2.316z"/></g><g filter="url(#IconifyId195ac99e25a590abd70674)"><circle cx="13.505" cy="13.651" r="1.415" fill="url(#IconifyId195ac99e25a590abd70656)"/></g><path stroke="url(#IconifyId195ac99e25a590abd70657)" stroke-linecap="round" stroke-width=".55" d="M12.475 14.394c.145.164.536.45 1.023.469c.617.023.95-.305 1.145-.47"/><g filter="url(#IconifyId195ac99e25a590abd70675)"><path stroke="url(#IconifyId195ac99e25a590abd70689)" stroke-linecap="round" stroke-width=".15" d="M12.475 14.394c.145.164.536.45 1.023.469c.617.023.95-.305 1.145-.47"/></g><path stroke="url(#IconifyId195ac99e25a590abd70658)" stroke-linecap="round" stroke-width=".55" d="M17.365 14.394c.146.164.536.45 1.024.469c.617.023.949-.305 1.144-.47"/><g filter="url(#IconifyId195ac99e25a590abd70676)"><path stroke="url(#IconifyId195ac99e25a590abd70690)" stroke-linecap="round" stroke-width=".15" d="M17.365 14.394c.146.164.536.45 1.024.469c.617.023.949-.305 1.144-.47"/></g><g filter="url(#IconifyId195ac99e25a590abd70677)"><path fill="#8D5E5F" d="M15.852 14.12c-.163 0-.247.093-.296.254l-.887 2.205a.59.59 0 0 0 .112.554c.106.126.26.198.422.198h1a.55.55 0 0 0 .424-.198a.59.59 0 0 0 .112-.554l-.678-2.205c-.049-.16-.045-.254-.209-.254"/></g><path fill="#A57D6B" d="M15.98 14.034a.375.375 0 0 0-.357.262l-.678 2.14a.56.56 0 0 0 .535.731h1a.56.56 0 0 0 .536-.73l-.678-2.14a.375.375 0 0 0-.358-.263"/><path fill="url(#IconifyId195ac99e25a590abd70691)" d="M15.98 14.034a.375.375 0 0 0-.357.262l-.678 2.14a.56.56 0 0 0 .535.731h1a.56.56 0 0 0 .536-.73l-.678-2.14a.375.375 0 0 0-.358-.263"/><path fill="url(#IconifyId195ac99e25a590abd70659)" d="M15.98 14.034a.375.375 0 0 0-.357.262l-.678 2.14a.56.56 0 0 0 .535.731h1a.56.56 0 0 0 .536-.73l-.678-2.14a.375.375 0 0 0-.358-.263"/><path fill="url(#IconifyId195ac99e25a590abd70660)" d="M15.98 14.034a.375.375 0 0 0-.357.262l-.678 2.14a.56.56 0 0 0 .535.731h1a.56.56 0 0 0 .536-.73l-.678-2.14a.375.375 0 0 0-.358-.263"/><g filter="url(#IconifyId195ac99e25a590abd70678)"><path stroke="url(#IconifyId195ac99e25a590abd70661)" stroke-width=".2" d="M14.337 17.742c.345.18.879.384 1.65.384s1.304-.204 1.648-.384c.108-.056.242.013.25.135a.2.2 0 0 1-.015.077c-.76 1.471-3.065 1.456-3.768 0a.15.15 0 0 1-.015-.077c.008-.122.142-.191.25-.135Z"/></g><path fill="#88004E" d="M14.337 17.742c.345.18.879.384 1.65.384s1.304-.204 1.648-.384c.108-.056.242.013.25.135a.2.2 0 0 1-.015.077c-.76 1.471-3.065 1.456-3.768 0a.15.15 0 0 1-.015-.077c.008-.122.142-.191.25-.135"/><g filter="url(#IconifyId195ac99e25a590abd70679)"><path fill="#4B2F2C" fill-rule="evenodd" d="M13.932 12.787c-.86-.117-1.389.27-1.521.378a.55.55 0 1 1-.693-.855c.253-.205 1.08-.787 2.361-.614a.55.55 0 1 1-.147 1.09" clip-rule="evenodd"/></g><g filter="url(#IconifyId195ac99e25a590abd70680)"><path fill="#4B2F2C" fill-rule="evenodd" d="M18.029 12.787c.86-.117 1.389.27 1.521.378a.55.55 0 1 0 .693-.855c-.253-.205-1.08-.787-2.362-.614a.55.55 0 1 0 .148 1.09" clip-rule="evenodd"/></g><g filter="url(#IconifyId195ac99e25a590abd70681)"><path stroke="url(#IconifyId195ac99e25a590abd70692)" stroke-linecap="round" stroke-width=".3" d="M20.068 12.628c-.193-.156-1.044-.633-2.185-.562"/></g><g filter="url(#IconifyId195ac99e25a590abd70682)"><path stroke="url(#IconifyId195ac99e25a590abd70693)" stroke-linecap="round" stroke-width=".3" d="M11.942 12.628c.193-.156 1.045-.633 2.186-.562"/></g><g filter="url(#IconifyId195ac99e25a590abd70683)"><path fill="#A47B6D" d="M8.567 2.19h3.426v3.742c0 .352.227 1.036.684 1.43c.375.348 1.095 1.06 1.727 1.692a1.195 1.195 0 0 1-.027 1.715c-.453.428-1.088.362-1.552-.055l-.98-.74a.527.527 0 0 0-.88.393v3.328a1.2 1.2 0 0 1-2.398 0z"/><path fill="url(#IconifyId195ac99e25a590abd70662)" d="M8.567 2.19h3.426v3.742c0 .352.227 1.036.684 1.43c.375.348 1.095 1.06 1.727 1.692a1.195 1.195 0 0 1-.027 1.715c-.453.428-1.088.362-1.552-.055l-.98-.74a.527.527 0 0 0-.88.393v3.328a1.2 1.2 0 0 1-2.398 0z"/></g><g filter="url(#IconifyId195ac99e25a590abd70684)"><path fill="#FFB62D" d="M23.393 2.19h-3.425v3.742c0 .352-.227 1.036-.684 1.43a79 79 0 0 0-1.727 1.692a1.195 1.195 0 0 0 .026 1.715c.454.428 1.09.362 1.555-.055l.978-.74a.527.527 0 0 1 .879.393v3.328a1.2 1.2 0 1 0 2.398 0z"/><path fill="url(#IconifyId195ac99e25a590abd70663)" d="M23.393 2.19h-3.425v3.742c0 .352-.227 1.036-.684 1.43a79 79 0 0 0-1.727 1.692a1.195 1.195 0 0 0 .026 1.715c.454.428 1.09.362 1.555-.055l.978-.74a.527.527 0 0 1 .879.393v3.328a1.2 1.2 0 1 0 2.398 0z"/></g><g filter="url(#IconifyId195ac99e25a590abd70685)"><path fill="#A47A6F" d="M23.393 2.19h-3.425v3.742c0 .352-.227 1.036-.684 1.43a79 79 0 0 0-1.727 1.692a1.195 1.195 0 0 0 .026 1.715c.454.428 1.09.362 1.555-.055l.978-.74a.527.527 0 0 1 .879.393v3.328a1.2 1.2 0 1 0 2.398 0z"/></g><g filter="url(#IconifyId195ac99e25a590abd70686)"><path fill="url(#IconifyId195ac99e25a590abd70664)" d="m21.088 8.54l-2.02 1.489c-.245.18-.472.419-.678.196c-.219-.238-.006-.338.23-.56a52 52 0 0 1 1.99-1.786c.875-.733.849-2.108.828-2.57V2.732h1.704v10.713a.579.579 0 0 1-1.158 0V9.208c0-.403-.572-.906-.896-.668"/></g><g filter="url(#IconifyId195ac99e25a590abd70687)"><path fill="url(#IconifyId195ac99e25a590abd70694)" d="m9.437 9.42l1.311.78v3.433a.656.656 0 0 1-1.31 0z"/></g><g filter="url(#IconifyId195ac99e25a590abd70688)"><path fill="url(#IconifyId195ac99e25a590abd70665)" d="M10.142 5.548v-2.9h1.468v3.535a1 1 0 0 0 .28.694l2.263 2.348a.46.46 0 0 1-.636.663l-2.365-2.094a3 3 0 0 1-1.01-2.246"/><path fill="url(#IconifyId195ac99e25a590abd70666)" d="M10.142 5.548v-2.9h1.468v3.535a1 1 0 0 0 .28.694l2.263 2.348a.46.46 0 0 1-.636.663l-2.365-2.094a3 3 0 0 1-1.01-2.246"/></g><defs><radialGradient id="IconifyId195ac99e25a590abd70640" cx="0" cy="0" r="1" gradientTransform="matrix(-18.0313 0 0 -9.84375 23.482 28.393)" gradientUnits="userSpaceOnUse"><stop stop-color="#469AFB"/><stop offset=".895" stop-color="#2376C8"/></radialGradient><radialGradient id="IconifyId195ac99e25a590abd70641" cx="0" cy="0" r="1" gradientTransform="rotate(-143.857 16.873 9.347)scale(11.1265 12.0118)" gradientUnits="userSpaceOnUse"><stop offset=".079" stop-color="#429EFA"/><stop offset="1" stop-color="#429EFA" stop-opacity="0"/></radialGradient><radialGradient id="IconifyId195ac99e25a590abd70642" cx="0" cy="0" r="1" gradientTransform="matrix(0 2.71262 -6.48073 0 16 22.123)" gradientUnits="userSpaceOnUse"><stop stop-color="#215286"/><stop offset="1" stop-color="#2B7FD5" stop-opacity="0"/></radialGradient><radialGradient id="IconifyId195ac99e25a590abd70643" cx="0" cy="0" r="1" gradientTransform="matrix(-2.56141 1.88058 -1.34003 -1.82517 18.254 23.435)" gradientUnits="userSpaceOnUse"><stop offset=".186" stop-color="#BD9482"/><stop offset="1" stop-color="#BD9482" stop-opacity="0"/></radialGradient><radialGradient id="IconifyId195ac99e25a590abd70644" cx="0" cy="0" r="1" gradientTransform="matrix(.73438 2.03125 -7.22514 2.61217 14.68 21.529)" gradientUnits="userSpaceOnUse"><stop offset=".196" stop-color="#7D4C5A"/><stop offset="1" stop-color="#7D4C5A" stop-opacity="0"/></radialGradient><radialGradient id="IconifyId195ac99e25a590abd70645" cx="0" cy="0" r="1" gradientTransform="matrix(-.71564 .7118 -.74967 -.75371 23.221 14.655)" gradientUnits="userSpaceOnUse"><stop stop-color="#C19883"/><stop offset="1" stop-color="#B28278"/></radialGradient><radialGradient id="IconifyId195ac99e25a590abd70646" cx="0" cy="0" r="1" gradientTransform="rotate(75.315 1.293 21.28)scale(2.2011)" gradientUnits="userSpaceOnUse"><stop offset=".798" stop-color="#9E625E" stop-opacity="0"/><stop offset="1" stop-color="#9E625E"/></radialGradient><radialGradient id="IconifyId195ac99e25a590abd70647" cx="0" cy="0" r="1" gradientTransform="rotate(46.621 -12.715 17.502)scale(2.70721)" gradientUnits="userSpaceOnUse"><stop stop-color="#825856"/><stop offset="1" stop-color="#824D5A"/></radialGradient><radialGradient id="IconifyId195ac99e25a590abd70648" cx="0" cy="0" r="1" gradientTransform="matrix(.61549 0 0 .72614 21.665 15.025)" gradientUnits="userSpaceOnUse"><stop offset=".188" stop-color="#AE8472"/><stop offset="1" stop-color="#A57460"/></radialGradient><radialGradient id="IconifyId195ac99e25a590abd70649" cx="0" cy="0" r="1" gradientTransform="matrix(-6.40084 .5663 -.57862 -6.54 19.71 16.358)" gradientUnits="userSpaceOnUse"><stop offset=".283" stop-color="#BD9076"/><stop offset="1" stop-color="#926762"/></radialGradient><radialGradient id="IconifyId195ac99e25a590abd70650" cx="0" cy="0" r="1" gradientTransform="matrix(-.9065 10.59379 -13.57699 -1.16176 16.899 11.904)" gradientUnits="userSpaceOnUse"><stop offset=".752" stop-color="#996275" stop-opacity="0"/><stop offset=".985" stop-color="#7C5165"/></radialGradient><radialGradient id="IconifyId195ac99e25a590abd70651" cx="0" cy="0" r="1" gradientTransform="matrix(2.03447 -2.12293 1.95657 1.87505 17.86 10.594)" gradientUnits="userSpaceOnUse"><stop offset=".194" stop-color="#9D756F"/><stop offset="1" stop-color="#9D756F" stop-opacity="0"/></radialGradient><radialGradient id="IconifyId195ac99e25a590abd70652" cx="0" cy="0" r="1" gradientTransform="rotate(121.239 7.885 11.166)scale(4.45901 3.87689)" gradientUnits="userSpaceOnUse"><stop offset=".072" stop-color="#563233"/><stop offset="1" stop-color="#7A4D53"/></radialGradient><radialGradient id="IconifyId195ac99e25a590abd70653" cx="0" cy="0" r="1" gradientTransform="matrix(.8584 4.94563 -3.25037 .56416 11.053 9.683)" gradientUnits="userSpaceOnUse"><stop offset=".118" stop-color="#4E2C2D"/><stop offset="1" stop-color="#855B55"/></radialGradient><radialGradient id="IconifyId195ac99e25a590abd70654" cx="0" cy="0" r="1" gradientTransform="matrix(0 -2.65625 9.15625 0 16.243 7.933)" gradientUnits="userSpaceOnUse"><stop offset=".235" stop-color="#4F3332"/><stop offset="1" stop-color="#5D423F"/></radialGradient><radialGradient id="IconifyId195ac99e25a590abd70655" cx="0" cy="0" r="1" gradientTransform="matrix(-4.23535 0 0 -1.91263 18.067 7.847)" gradientUnits="userSpaceOnUse"><stop stop-color="#5E4243"/><stop offset="1" stop-color="#5E4243" stop-opacity="0"/></radialGradient><radialGradient id="IconifyId195ac99e25a590abd70656" cx="0" cy="0" r="1" gradientTransform="matrix(.92789 -1.80184 1.99143 1.02552 13.347 14.352)" gradientUnits="userSpaceOnUse"><stop offset=".347" stop-color="#996E64"/><stop offset=".902" stop-color="#8A5960"/></radialGradient><radialGradient id="IconifyId195ac99e25a590abd70657" cx="0" cy="0" r="1" gradientTransform="matrix(0 -1.07812 3.27721 0 13.559 14.988)" gradientUnits="userSpaceOnUse"><stop offset=".251" stop-color="#452537"/><stop offset="1" stop-color="#4B302E"/></radialGradient><radialGradient id="IconifyId195ac99e25a590abd70658" cx="0" cy="0" r="1" gradientTransform="matrix(0 -1.07812 3.27721 0 18.45 14.988)" gradientUnits="userSpaceOnUse"><stop offset=".251" stop-color="#452537"/><stop offset="1" stop-color="#4B302E"/></radialGradient><radialGradient id="IconifyId195ac99e25a590abd70659" cx="0" cy="0" r="1" gradientTransform="matrix(.19456 -1.08993 4.30796 .769 15.981 17.167)" gradientUnits="userSpaceOnUse"><stop offset=".03" stop-color="#985C6E"/><stop offset="1" stop-color="#985C6E" stop-opacity="0"/></radialGradient><radialGradient id="IconifyId195ac99e25a590abd70660" cx="0" cy="0" r="1" gradientTransform="matrix(.90625 0 0 .26563 16.522 16.368)" gradientUnits="userSpaceOnUse"><stop stop-color="#BE9586"/><stop offset="1" stop-color="#BE9586" stop-opacity="0"/></radialGradient><radialGradient id="IconifyId195ac99e25a590abd70661" cx="0" cy="0" r="1" gradientTransform="matrix(.20312 -.39062 1.75486 .91253 14.9 18.753)" gradientUnits="userSpaceOnUse"><stop offset=".156" stop-color="#AA827C"/><stop offset="1" stop-color="#AA827C" stop-opacity="0"/></radialGradient><radialGradient id="IconifyId195ac99e25a590abd70662" cx="0" cy="0" r="1" gradientTransform="matrix(-1.79686 -2.67189 1.32522 -.89122 11.778 10.847)" gradientUnits="userSpaceOnUse"><stop offset=".236" stop-color="#7D4755"/><stop offset="1" stop-color="#986C68" stop-opacity="0"/></radialGradient><radialGradient id="IconifyId195ac99e25a590abd70663" cx="0" cy="0" r="1" gradientTransform="matrix(0 4.14314 -1.29371 0 22.487 2.043)" gradientUnits="userSpaceOnUse"><stop stop-color="#FFE041"/><stop offset="1" stop-color="#FFE041" stop-opacity="0"/></radialGradient><radialGradient id="IconifyId195ac99e25a590abd70664" cx="0" cy="0" r="1" gradientTransform="matrix(5.8706 -6.28124 5.4446 5.08866 18.233 9.994)" gradientUnits="userSpaceOnUse"><stop stop-color="#BF9886"/><stop offset="1" stop-color="#BF9886" stop-opacity="0"/></radialGradient><radialGradient id="IconifyId195ac99e25a590abd70665" cx="0" cy="0" r="1" gradientTransform="matrix(0 -4.21875 .78125 0 10.979 6.525)" gradientUnits="userSpaceOnUse"><stop stop-color="#C9A18C"/><stop offset="1" stop-color="#C9A18C" stop-opacity="0"/></radialGradient><radialGradient id="IconifyId195ac99e25a590abd70666" cx="0" cy="0" r="1" gradientTransform="matrix(-.95862 -1.07283 .90655 -.81004 14.281 10.004)" gradientUnits="userSpaceOnUse"><stop offset=".187" stop-color="#C29B87"/><stop offset="1" stop-color="#C29B87" stop-opacity="0"/></radialGradient><filter id="IconifyId195ac99e25a590abd70667" width="21.451" height="8.965" x="5.65" y="20.845" color-interpolation-filters="sRGB" filterUnits="userSpaceOnUse"><feFlood flood-opacity="0" result="BackgroundImageFix"/><feBlend in="SourceGraphic" in2="BackgroundImageFix" result="shape"/><feColorMatrix in="SourceAlpha" result="hardAlpha" values="0 0 0 0 0 0 0 0 0 0 0 0 0 0 0 0 0 0 127 0"/><feOffset dy="-.3"/><feGaussianBlur stdDeviation=".3"/><feComposite in2="hardAlpha" k2="-1" k3="1" operator="arithmetic"/><feColorMatrix values="0 0 0 0 0.12549 0 0 0 0 0.396078 0 0 0 0 0.882353 0 0 0 1 0"/><feBlend in2="shape" result="effect1_innerShadow_3987_24264"/><feColorMatrix in="SourceAlpha" result="hardAlpha" values="0 0 0 0 0 0 0 0 0 0 0 0 0 0 0 0 0 0 127 0"/><feOffset dx=".75"/><feGaussianBlur stdDeviation=".625"/><feComposite in2="hardAlpha" k2="-1" k3="1" operator="arithmetic"/><feColorMatrix values="0 0 0 0 0.270588 0 0 0 0 0.490196 0 0 0 0 0.666667 0 0 0 1 0"/><feBlend in2="effect1_innerShadow_3987_24264" result="effect2_innerShadow_3987_24264"/></filter><filter id="IconifyId195ac99e25a590abd70668" width="2.689" height="2.689" x="20.081" y="13.487" color-interpolation-filters="sRGB" filterUnits="userSpaceOnUse"><feFlood flood-opacity="0" result="BackgroundImageFix"/><feBlend in="SourceGraphic" in2="BackgroundImageFix" result="shape"/><feGaussianBlur result="effect1_foregroundBlur_3987_24264" stdDeviation=".1"/></filter><filter id="IconifyId195ac99e25a590abd70669" width="2.689" height="2.689" x="9.253" y="13.487" color-interpolation-filters="sRGB" filterUnits="userSpaceOnUse"><feFlood flood-opacity="0" result="BackgroundImageFix"/><feBlend in="SourceGraphic" in2="BackgroundImageFix" result="shape"/><feGaussianBlur result="effect1_foregroundBlur_3987_24264" stdDeviation=".1"/></filter><filter id="IconifyId195ac99e25a590abd70670" width="12.437" height="14.211" x="10.024" y="7.878" color-interpolation-filters="sRGB" filterUnits="userSpaceOnUse"><feFlood flood-opacity="0" result="BackgroundImageFix"/><feBlend in="SourceGraphic" in2="BackgroundImageFix" result="shape"/><feColorMatrix in="SourceAlpha" result="hardAlpha" values="0 0 0 0 0 0 0 0 0 0 0 0 0 0 0 0 0 0 127 0"/><feOffset dx=".5"/><feGaussianBlur stdDeviation=".375"/><feComposite in2="hardAlpha" k2="-1" k3="1" operator="arithmetic"/><feColorMatrix values="0 0 0 0 0.498039 0 0 0 0 0.380392 0 0 0 0 0.356863 0 0 0 1 0"/><feBlend in2="shape" result="effect1_innerShadow_3987_24264"/></filter><filter id="IconifyId195ac99e25a590abd70671" width="7.729" height="10.962" x="16.042" y="4.932" color-interpolation-filters="sRGB" filterUnits="userSpaceOnUse"><feFlood flood-opacity="0" result="BackgroundImageFix"/><feBlend in="SourceGraphic" in2="BackgroundImageFix" result="shape"/><feGaussianBlur result="effect1_foregroundBlur_3987_24264" stdDeviation=".5"/></filter><filter id="IconifyId195ac99e25a590abd70672" width="7.108" height="9.773" x="8.357" y="5.856" color-interpolation-filters="sRGB" filterUnits="userSpaceOnUse"><feFlood flood-opacity="0" result="BackgroundImageFix"/><feBlend in="SourceGraphic" in2="BackgroundImageFix" result="shape"/><feGaussianBlur result="effect1_foregroundBlur_3987_24264" stdDeviation=".5"/></filter><filter id="IconifyId195ac99e25a590abd70673" width="8.297" height="3.863" x="11.832" y="4.679" color-interpolation-filters="sRGB" filterUnits="userSpaceOnUse"><feFlood flood-opacity="0" result="BackgroundImageFix"/><feBlend in="SourceGraphic" in2="BackgroundImageFix" result="shape"/><feColorMatrix in="SourceAlpha" result="hardAlpha" values="0 0 0 0 0 0 0 0 0 0 0 0 0 0 0 0 0 0 127 0"/><feOffset dy="-.25"/><feGaussianBlur stdDeviation=".25"/><feComposite in2="hardAlpha" k2="-1" k3="1" operator="arithmetic"/><feColorMatrix values="0 0 0 0 0.211765 0 0 0 0 0.109804 0 0 0 0 0.101961 0 0 0 1 0"/><feBlend in2="shape" result="effect1_innerShadow_3987_24264"/></filter><filter id="IconifyId195ac99e25a590abd70674" width="3.829" height="3.83" x="11.59" y="11.736" color-interpolation-filters="sRGB" filterUnits="userSpaceOnUse"><feFlood flood-opacity="0" result="BackgroundImageFix"/><feBlend in="SourceGraphic" in2="BackgroundImageFix" result="shape"/><feGaussianBlur result="effect1_foregroundBlur_3987_24264" stdDeviation=".25"/></filter><filter id="IconifyId195ac99e25a590abd70675" width="2.618" height=".92" x="12.249" y="14.169" color-interpolation-filters="sRGB" filterUnits="userSpaceOnUse"><feFlood flood-opacity="0" result="BackgroundImageFix"/><feBlend in="SourceGraphic" in2="BackgroundImageFix" result="shape"/><feGaussianBlur result="effect1_foregroundBlur_3987_24264" stdDeviation=".075"/></filter><filter id="IconifyId195ac99e25a590abd70676" width="2.618" height=".92" x="17.14" y="14.169" color-interpolation-filters="sRGB" filterUnits="userSpaceOnUse"><feFlood flood-opacity="0" result="BackgroundImageFix"/><feBlend in="SourceGraphic" in2="BackgroundImageFix" result="shape"/><feGaussianBlur result="effect1_foregroundBlur_3987_24264" stdDeviation=".075"/></filter><filter id="IconifyId195ac99e25a590abd70677" width="3.122" height="4.211" x="14.143" y="13.62" color-interpolation-filters="sRGB" filterUnits="userSpaceOnUse"><feFlood flood-opacity="0" result="BackgroundImageFix"/><feBlend in="SourceGraphic" in2="BackgroundImageFix" result="shape"/><feGaussianBlur result="effect1_foregroundBlur_3987_24264" stdDeviation=".25"/></filter><filter id="IconifyId195ac99e25a590abd70678" width="4.199" height="1.729" x="13.887" y="17.522" color-interpolation-filters="sRGB" filterUnits="userSpaceOnUse"><feFlood flood-opacity="0" result="BackgroundImageFix"/><feBlend in="SourceGraphic" in2="BackgroundImageFix" result="shape"/><feGaussianBlur result="effect1_foregroundBlur_3987_24264" stdDeviation=".05"/></filter><filter id="IconifyId195ac99e25a590abd70679" width="3.191" height="1.873" x="11.514" y="11.665" color-interpolation-filters="sRGB" filterUnits="userSpaceOnUse"><feFlood flood-opacity="0" result="BackgroundImageFix"/><feBlend in="SourceGraphic" in2="BackgroundImageFix" result="shape"/><feColorMatrix in="SourceAlpha" result="hardAlpha" values="0 0 0 0 0 0 0 0 0 0 0 0 0 0 0 0 0 0 127 0"/><feOffset dx=".15" dy=".25"/><feGaussianBlur stdDeviation=".125"/><feComposite in2="hardAlpha" k2="-1" k3="1" operator="arithmetic"/><feColorMatrix values="0 0 0 0 0.239216 0 0 0 0 0.129412 0 0 0 0 0.156863 0 0 0 1 0"/><feBlend in2="shape" result="effect1_innerShadow_3987_24264"/></filter><filter id="IconifyId195ac99e25a590abd70680" width="3.191" height="1.873" x="17.405" y="11.665" color-interpolation-filters="sRGB" filterUnits="userSpaceOnUse"><feFlood flood-opacity="0" result="BackgroundImageFix"/><feBlend in="SourceGraphic" in2="BackgroundImageFix" result="shape"/><feColorMatrix in="SourceAlpha" result="hardAlpha" values="0 0 0 0 0 0 0 0 0 0 0 0 0 0 0 0 0 0 127 0"/><feOffset dx=".15" dy=".25"/><feGaussianBlur stdDeviation=".125"/><feComposite in2="hardAlpha" k2="-1" k3="1" operator="arithmetic"/><feColorMatrix values="0 0 0 0 0.239216 0 0 0 0 0.129412 0 0 0 0 0.156863 0 0 0 1 0"/><feBlend in2="shape" result="effect1_innerShadow_3987_24264"/></filter><filter id="IconifyId195ac99e25a590abd70681" width="3.085" height="1.469" x="17.433" y="11.609" color-interpolation-filters="sRGB" filterUnits="userSpaceOnUse"><feFlood flood-opacity="0" result="BackgroundImageFix"/><feBlend in="SourceGraphic" in2="BackgroundImageFix" result="shape"/><feGaussianBlur result="effect1_foregroundBlur_3987_24264" stdDeviation=".15"/></filter><filter id="IconifyId195ac99e25a590abd70682" width="3.085" height="1.469" x="11.492" y="11.609" color-interpolation-filters="sRGB" filterUnits="userSpaceOnUse"><feFlood flood-opacity="0" result="BackgroundImageFix"/><feBlend in="SourceGraphic" in2="BackgroundImageFix" result="shape"/><feGaussianBlur result="effect1_foregroundBlur_3987_24264" stdDeviation=".15"/></filter><filter id="IconifyId195ac99e25a590abd70683" width="6.686" height="12.903" x="8.567" y="1.991" color-interpolation-filters="sRGB" filterUnits="userSpaceOnUse"><feFlood flood-opacity="0" result="BackgroundImageFix"/><feBlend in="SourceGraphic" in2="BackgroundImageFix" result="shape"/><feColorMatrix in="SourceAlpha" result="hardAlpha" values="0 0 0 0 0 0 0 0 0 0 0 0 0 0 0 0 0 0 127 0"/><feOffset dx=".5" dy="-.2"/><feGaussianBlur stdDeviation=".625"/><feComposite in2="hardAlpha" k2="-1" k3="1" operator="arithmetic"/><feColorMatrix values="0 0 0 0 0.560784 0 0 0 0 0.407843 0 0 0 0 0.368627 0 0 0 1 0"/><feBlend in2="shape" result="effect1_innerShadow_3987_24264"/></filter><filter id="IconifyId195ac99e25a590abd70684" width="6.436" height="12.953" x="17.208" y="1.941" color-interpolation-filters="sRGB" filterUnits="userSpaceOnUse"><feFlood flood-opacity="0" result="BackgroundImageFix"/><feBlend in="SourceGraphic" in2="BackgroundImageFix" result="shape"/><feColorMatrix in="SourceAlpha" result="hardAlpha" values="0 0 0 0 0 0 0 0 0 0 0 0 0 0 0 0 0 0 127 0"/><feOffset dx=".25" dy="-.25"/><feGaussianBlur stdDeviation=".5"/><feComposite in2="hardAlpha" k2="-1" k3="1" operator="arithmetic"/><feColorMatrix values="0 0 0 0 0.917647 0 0 0 0 0.541176 0 0 0 0 0.160784 0 0 0 1 0"/><feBlend in2="shape" result="effect1_innerShadow_3987_24264"/></filter><filter id="IconifyId195ac99e25a590abd70685" width="6.436" height="12.953" x="17.208" y="1.941" color-interpolation-filters="sRGB" filterUnits="userSpaceOnUse"><feFlood flood-opacity="0" result="BackgroundImageFix"/><feBlend in="SourceGraphic" in2="BackgroundImageFix" result="shape"/><feColorMatrix in="SourceAlpha" result="hardAlpha" values="0 0 0 0 0 0 0 0 0 0 0 0 0 0 0 0 0 0 127 0"/><feOffset dx=".25" dy="-.25"/><feGaussianBlur stdDeviation=".5"/><feComposite in2="hardAlpha" k2="-1" k3="1" operator="arithmetic"/><feColorMatrix values="0 0 0 0 0.486275 0 0 0 0 0.309804 0 0 0 0 0.301961 0 0 0 1 0"/><feBlend in2="shape" result="effect1_innerShadow_3987_24264"/></filter><filter id="IconifyId195ac99e25a590abd70686" width="5.843" height="12.292" x="17.799" y="2.231" color-interpolation-filters="sRGB" filterUnits="userSpaceOnUse"><feFlood flood-opacity="0" result="BackgroundImageFix"/><feBlend in="SourceGraphic" in2="BackgroundImageFix" result="shape"/><feGaussianBlur result="effect1_foregroundBlur_3987_24264" stdDeviation=".25"/></filter><filter id="IconifyId195ac99e25a590abd70687" width="2.811" height="6.368" x="8.687" y="8.671" color-interpolation-filters="sRGB" filterUnits="userSpaceOnUse"><feFlood flood-opacity="0" result="BackgroundImageFix"/><feBlend in="SourceGraphic" in2="BackgroundImageFix" result="shape"/><feGaussianBlur result="effect1_foregroundBlur_3987_24264" stdDeviation=".375"/></filter><filter id="IconifyId195ac99e25a590abd70688" width="5.14" height="8.355" x="9.641" y="2.149" color-interpolation-filters="sRGB" filterUnits="userSpaceOnUse"><feFlood flood-opacity="0" result="BackgroundImageFix"/><feBlend in="SourceGraphic" in2="BackgroundImageFix" result="shape"/><feGaussianBlur result="effect1_foregroundBlur_3987_24264" stdDeviation=".25"/></filter><linearGradient id="IconifyId195ac99e25a590abd70689" x1="14.916" x2="12.475" y1="14.394" y2="14.394" gradientUnits="userSpaceOnUse"><stop offset=".045" stop-color="#584141"/><stop offset=".32" stop-color="#503839"/><stop offset=".794" stop-color="#4B3135"/><stop offset="1" stop-color="#564040"/></linearGradient><linearGradient id="IconifyId195ac99e25a590abd70690" x1="19.807" x2="17.365" y1="14.394" y2="14.394" gradientUnits="userSpaceOnUse"><stop offset=".045" stop-color="#584141"/><stop offset=".32" stop-color="#503839"/><stop offset=".794" stop-color="#4B3135"/><stop offset="1" stop-color="#564040"/></linearGradient><linearGradient id="IconifyId195ac99e25a590abd70691" x1="16.866" x2="15.829" y1="15.9" y2="15.95" gradientUnits="userSpaceOnUse"><stop offset=".106" stop-color="#C59E88"/><stop offset="1" stop-color="#C59E88" stop-opacity="0"/></linearGradient><linearGradient id="IconifyId195ac99e25a590abd70692" x1="19.961" x2="16.539" y1="12.628" y2="12.154" gradientUnits="userSpaceOnUse"><stop stop-color="#5D4646"/><stop offset="1" stop-color="#5D4646" stop-opacity="0"/></linearGradient><linearGradient id="IconifyId195ac99e25a590abd70693" x1="14.008" x2="11.43" y1="12.059" y2="13.326" gradientUnits="userSpaceOnUse"><stop stop-color="#5D4646"/><stop offset="1" stop-color="#5D4646" stop-opacity="0"/></linearGradient><linearGradient id="IconifyId195ac99e25a590abd70694" x1="10.093" x2="10.093" y1="13.506" y2="8.675" gradientUnits="userSpaceOnUse"><stop stop-color="#B78B7F"/><stop offset="1" stop-color="#886361" stop-opacity="0"/><stop offset="1" stop-color="#B78B7F" stop-opacity="0"/></linearGradient></defs></g></svg>