<svg xmlns="http://www.w3.org/2000/svg" width="0.97em" height="1em" viewBox="0 0 32 33"><g fill="none"><g clip-path="url(#IconifyId195ac99e25a590abd153388)"><path fill="url(#IconifyId195ac99e25a590abd153373)" d="M30 18.79C29.89 11.17 23.66 6 16 6S2.11 11.17 2 18.79V19c0 4.42 3.58 8 8 8h12c4.42 0 8-3.58 8-8z"/><path fill="url(#IconifyId195ac99e25a590abd153380)" d="M30 18.79C29.89 11.17 23.66 6 16 6S2.11 11.17 2 18.79V19c0 4.42 3.58 8 8 8h12c4.42 0 8-3.58 8-8z"/><path fill="url(#IconifyId195ac99e25a590abd153381)" d="M30 18.79C29.89 11.17 23.66 6 16 6S2.11 11.17 2 18.79V19c0 4.42 3.58 8 8 8h12c4.42 0 8-3.58 8-8z"/><g filter="url(#IconifyId195ac99e25a590abd153385)"><path fill="url(#IconifyId195ac99e25a590abd153382)" fill-rule="evenodd" d="M29.281 20.813C29.625 11 23.11 7.063 15.5 7.063c10.563 1.218 13.428 9.412 13.781 13.75" clip-rule="evenodd"/></g><path fill="url(#IconifyId195ac99e25a590abd153383)" d="M7.05 19.75a2.949 2.949 0 1 0 5.9 0v-3.88a2.949 2.949 0 1 0-5.9 0z"/><path stroke="url(#IconifyId195ac99e25a590abd153374)" stroke-width=".4" d="M7.05 19.75a2.949 2.949 0 1 0 5.9 0v-3.88a2.949 2.949 0 1 0-5.9 0z"/><path stroke="url(#IconifyId195ac99e25a590abd153375)" stroke-width=".4" d="M7.05 19.75a2.949 2.949 0 1 0 5.9 0v-3.88a2.949 2.949 0 1 0-5.9 0z"/><path fill="url(#IconifyId195ac99e25a590abd153384)" d="M19.05 19.75a2.949 2.949 0 1 0 5.9 0v-3.88a2.949 2.949 0 1 0-5.9 0z"/><path stroke="url(#IconifyId195ac99e25a590abd153376)" stroke-width=".4" d="M19.05 19.75a2.949 2.949 0 1 0 5.9 0v-3.88a2.949 2.949 0 1 0-5.9 0z"/><path stroke="url(#IconifyId195ac99e25a590abd153377)" stroke-width=".4" d="M19.05 19.75a2.949 2.949 0 1 0 5.9 0v-3.88a2.949 2.949 0 1 0-5.9 0z"/><g filter="url(#IconifyId195ac99e25a590abd153386)"><path stroke="url(#IconifyId195ac99e25a590abd153378)" stroke-linecap="round" stroke-width=".8" d="M22.397 21.313a1.995 1.995 0 0 1-1.996-1.997V15.22"/></g><g filter="url(#IconifyId195ac99e25a590abd153387)"><path stroke="url(#IconifyId195ac99e25a590abd153379)" stroke-linecap="round" stroke-width=".8" d="M10.647 21.313a1.995 1.995 0 0 1-1.996-1.997V15.22"/></g></g><defs><linearGradient id="IconifyId195ac99e25a590abd153373" x1="16.625" x2="16.625" y1="8.75" y2="27" gradientUnits="userSpaceOnUse"><stop stop-color="#FFB1BA"/><stop offset="1" stop-color="#FC64A3"/></linearGradient><linearGradient id="IconifyId195ac99e25a590abd153374" x1="4.906" x2="12.25" y1="20.75" y2="14.469" gradientUnits="userSpaceOnUse"><stop stop-color="#FC8BAD"/><stop offset="1" stop-color="#FC8BAD" stop-opacity="0"/></linearGradient><linearGradient id="IconifyId195ac99e25a590abd153375" x1="13.266" x2="10.734" y1="12.609" y2="16.016" gradientUnits="userSpaceOnUse"><stop stop-color="#E789AD"/><stop offset="1" stop-color="#FC8BAD" stop-opacity="0"/></linearGradient><linearGradient id="IconifyId195ac99e25a590abd153376" x1="16.906" x2="24.25" y1="20.75" y2="14.469" gradientUnits="userSpaceOnUse"><stop stop-color="#FC8BAD"/><stop offset="1" stop-color="#FC8BAD" stop-opacity="0"/></linearGradient><linearGradient id="IconifyId195ac99e25a590abd153377" x1="25.266" x2="22.734" y1="12.609" y2="16.016" gradientUnits="userSpaceOnUse"><stop stop-color="#E789AD"/><stop offset="1" stop-color="#FC8BAD" stop-opacity="0"/></linearGradient><linearGradient id="IconifyId195ac99e25a590abd153378" x1="19.313" x2="18.7" y1="22.281" y2="15.724" gradientUnits="userSpaceOnUse"><stop stop-color="#735A69" stop-opacity="0"/><stop offset=".359" stop-color="#735A69"/><stop offset="1" stop-color="#5E4755" stop-opacity=".25"/></linearGradient><linearGradient id="IconifyId195ac99e25a590abd153379" x1="7.562" x2="6.95" y1="22.281" y2="15.724" gradientUnits="userSpaceOnUse"><stop stop-color="#735A69" stop-opacity="0"/><stop offset=".359" stop-color="#735A69"/><stop offset="1" stop-color="#5E4755" stop-opacity=".25"/></linearGradient><radialGradient id="IconifyId195ac99e25a590abd153380" cx="0" cy="0" r="1" gradientTransform="matrix(0 24.5625 -31.655 0 16 8.25)" gradientUnits="userSpaceOnUse"><stop offset=".588" stop-color="#F13F9E" stop-opacity="0"/><stop offset=".847" stop-color="#F13F9E"/></radialGradient><radialGradient id="IconifyId195ac99e25a590abd153381" cx="0" cy="0" r="1" gradientTransform="matrix(-17.25 0 0 -14.4973 18.813 18.625)" gradientUnits="userSpaceOnUse"><stop offset=".891" stop-color="#FCBCC2" stop-opacity="0"/><stop offset="1" stop-color="#FCBCC2"/></radialGradient><radialGradient id="IconifyId195ac99e25a590abd153382" cx="0" cy="0" r="1" gradientTransform="rotate(140.972 10.732 9.915)scale(4.14341 37.6194)" gradientUnits="userSpaceOnUse"><stop stop-color="#FFC9D3"/><stop offset="1" stop-color="#FFC9D3" stop-opacity="0"/></radialGradient><radialGradient id="IconifyId195ac99e25a590abd153383" cx="0" cy="0" r="1" gradientTransform="matrix(3.40625 0 0 9.65104 10.219 18.188)" gradientUnits="userSpaceOnUse"><stop offset=".172" stop-color="#423450"/><stop offset="1" stop-color="#1F1030"/></radialGradient><radialGradient id="IconifyId195ac99e25a590abd153384" cx="0" cy="0" r="1" gradientTransform="matrix(3.40625 0 0 9.65104 22.219 18.188)" gradientUnits="userSpaceOnUse"><stop offset=".172" stop-color="#423450"/><stop offset="1" stop-color="#1F1030"/></radialGradient><filter id="IconifyId195ac99e25a590abd153385" width="15.794" height="15.75" x="14.5" y="6.063" color-interpolation-filters="sRGB" filterUnits="userSpaceOnUse"><feFlood flood-opacity="0" result="BackgroundImageFix"/><feBlend in="SourceGraphic" in2="BackgroundImageFix" result="shape"/><feGaussianBlur result="effect1_foregroundBlur_28327_3099" stdDeviation=".5"/></filter><filter id="IconifyId195ac99e25a590abd153386" width="3.796" height="7.894" x="19.501" y="14.319" color-interpolation-filters="sRGB" filterUnits="userSpaceOnUse"><feFlood flood-opacity="0" result="BackgroundImageFix"/><feBlend in="SourceGraphic" in2="BackgroundImageFix" result="shape"/><feGaussianBlur result="effect1_foregroundBlur_28327_3099" stdDeviation=".25"/></filter><filter id="IconifyId195ac99e25a590abd153387" width="3.796" height="7.894" x="7.751" y="14.319" color-interpolation-filters="sRGB" filterUnits="userSpaceOnUse"><feFlood flood-opacity="0" result="BackgroundImageFix"/><feBlend in="SourceGraphic" in2="BackgroundImageFix" result="shape"/><feGaussianBlur result="effect1_foregroundBlur_28327_3099" stdDeviation=".25"/></filter><clipPath id="IconifyId195ac99e25a590abd153388"><path fill="#fff" d="M0 .5h32v32H0z"/></clipPath></defs></g></svg>