<svg xmlns="http://www.w3.org/2000/svg" width="1em" height="1em" viewBox="0 0 32 32"><g fill="none"><path fill="url(#IconifyId195ad048a32870fdf155887)" d="M22.516 12.435c-.28 0-.5-.22-.5-.5s.22-.5.5-.5c2.11 0 3.83-1.72 3.83-3.83c0-.28.22-.5.5-.5s.5.22.5.5c-.01 2.66-2.17 4.83-4.83 4.83"/><g filter="url(#IconifyId195ad048a32870fdf155920)"><path stroke="#908C9B" stroke-linecap="round" stroke-width=".25" d="M26.402 9.54c-.323.598-1.167 1.782-2.555 2.132"/></g><path fill="url(#IconifyId195ad048a32870fdf155854)" d="M27.176 9.275a2.5 2.5 0 1 0 0-5a2.5 2.5 0 0 0 0 5"/><path fill="url(#IconifyId195ad048a32870fdf155855)" d="M27.176 9.275a2.5 2.5 0 1 0 0-5a2.5 2.5 0 0 0 0 5"/><path fill="url(#IconifyId195ad048a32870fdf155856)" d="M27.176 9.275a2.5 2.5 0 1 0 0-5a2.5 2.5 0 0 0 0 5"/><path fill="url(#IconifyId195ad048a32870fdf155857)" d="M27.176 9.275a2.5 2.5 0 1 0 0-5a2.5 2.5 0 0 0 0 5"/><path fill="url(#IconifyId195ad048a32870fdf155858)" d="M27.176 9.275a2.5 2.5 0 1 0 0-5a2.5 2.5 0 0 0 0 5"/><path fill="url(#IconifyId195ad048a32870fdf155888)" d="M18.676 16.275v2.87c0 1.27.77 2.42 1.95 2.9l2.71 1.1c.2.08.33.28.33.49v5.33c0 .17.14.31.31.31h1.38c.17 0 .31-.14.31-.31v-6.08c0-.37-.21-.71-.54-.88l-1.12-.57a.65.65 0 0 1-.33-.56v-4.6z"/><path fill="url(#IconifyId195ad048a32870fdf155889)" d="M18.676 16.275v2.87c0 1.27.77 2.42 1.95 2.9l2.71 1.1c.2.08.33.28.33.49v5.33c0 .17.14.31.31.31h1.38c.17 0 .31-.14.31-.31v-6.08c0-.37-.21-.71-.54-.88l-1.12-.57a.65.65 0 0 1-.33-.56v-4.6z"/><path fill="url(#IconifyId195ad048a32870fdf155890)" d="M18.676 16.275v2.87c0 1.27.77 2.42 1.95 2.9l2.71 1.1c.2.08.33.28.33.49v5.33c0 .17.14.31.31.31h1.38c.17 0 .31-.14.31-.31v-6.08c0-.37-.21-.71-.54-.88l-1.12-.57a.65.65 0 0 1-.33-.56v-4.6z"/><path fill="url(#IconifyId195ad048a32870fdf155859)" d="M18.676 16.275v2.87c0 1.27.77 2.42 1.95 2.9l2.71 1.1c.2.08.33.28.33.49v5.33c0 .17.14.31.31.31h1.38c.17 0 .31-.14.31-.31v-6.08c0-.37-.21-.71-.54-.88l-1.12-.57a.65.65 0 0 1-.33-.56v-4.6z"/><path fill="url(#IconifyId195ad048a32870fdf155891)" d="M18.676 16.275v2.87c0 1.27.77 2.42 1.95 2.9l2.71 1.1c.2.08.33.28.33.49v5.33c0 .17.14.31.31.31h1.38c.17 0 .31-.14.31-.31v-6.08c0-.37-.21-.71-.54-.88l-1.12-.57a.65.65 0 0 1-.33-.56v-4.6z"/><path fill="url(#IconifyId195ad048a32870fdf155860)" d="M24.676 28.275a2 2 0 1 0 0-4a2 2 0 0 0 0 4"/><path fill="url(#IconifyId195ad048a32870fdf155861)" d="M24.676 28.275a2 2 0 1 0 0-4a2 2 0 0 0 0 4"/><path fill="url(#IconifyId195ad048a32870fdf155862)" d="M24.676 28.275a2 2 0 1 0 0-4a2 2 0 0 0 0 4"/><path fill="url(#IconifyId195ad048a32870fdf155863)" d="M24.676 28.275a2 2 0 1 0 0-4a2 2 0 0 0 0 4"/><path fill="url(#IconifyId195ad048a32870fdf155864)" d="M24.676 28.275a2 2 0 1 0 0-4a2 2 0 0 0 0 4"/><path fill="url(#IconifyId195ad048a32870fdf155892)" d="m28.136 21.995l-1.12-.57a.61.61 0 0 1-.34-.55v-6.36a3.24 3.24 0 0 0-3.24-3.24H6.676v7h12.84c.861 0 1.468-.398 1.838-1.149c.054-.109.322-.068.322.053v1.966c0 1.27.77 2.42 1.95 2.9l2.71 1.1c.2.08.33.28.33.49v5.33c0 .17.14.31.31.31h1.38c.17 0 .31-.14.31-.31v-6.08a.97.97 0 0 0-.53-.89"/><path fill="url(#IconifyId195ad048a32870fdf155865)" d="m28.136 21.995l-1.12-.57a.61.61 0 0 1-.34-.55v-6.36a3.24 3.24 0 0 0-3.24-3.24H6.676v7h12.84c.861 0 1.468-.398 1.838-1.149c.054-.109.322-.068.322.053v1.966c0 1.27.77 2.42 1.95 2.9l2.71 1.1c.2.08.33.28.33.49v5.33c0 .17.14.31.31.31h1.38c.17 0 .31-.14.31-.31v-6.08a.97.97 0 0 0-.53-.89"/><g filter="url(#IconifyId195ad048a32870fdf155921)"><path fill="url(#IconifyId195ad048a32870fdf155893)" d="M22.473 11.978H16v5.078h3.276a2 2 0 0 0 1.888-1.339z"/></g><path fill="url(#IconifyId195ad048a32870fdf155894)" d="M21.52 17.064V16h-6.188v2.275h4.184c.861 0 1.468-.398 1.838-1.149c.025-.05.096-.069.165-.062"/><g filter="url(#IconifyId195ad048a32870fdf155922)"><path stroke="url(#IconifyId195ad048a32870fdf155895)" stroke-width=".65" d="M23.837 12.305c.605.08 1.816.67 1.816 2.39v6.236c0 .382.218.73.56.897l1.126.551a1 1 0 0 1 .56.898v2.149"/></g><path fill="url(#IconifyId195ad048a32870fdf155866)" d="m6.676 7.275l-.75 2.26c-.15.44-.56.74-1.03.74h-2.72a.5.5 0 0 0-.5.49a2.503 2.503 0 0 0 2.5 2.51h7.5v-6z"/><path fill="url(#IconifyId195ad048a32870fdf155896)" d="m6.676 7.275l-.75 2.26c-.15.44-.56.74-1.03.74h-2.72a.5.5 0 0 0-.5.49a2.503 2.503 0 0 0 2.5 2.51h7.5v-6z"/><path fill="url(#IconifyId195ad048a32870fdf155867)" d="m6.676 7.275l-.75 2.26c-.15.44-.56.74-1.03.74h-2.72a.5.5 0 0 0-.5.49a2.503 2.503 0 0 0 2.5 2.51h7.5v-6z"/><path fill="url(#IconifyId195ad048a32870fdf155868)" d="m6.676 7.275l-.75 2.26c-.15.44-.56.74-1.03.74h-2.72a.5.5 0 0 0-.5.49a2.503 2.503 0 0 0 2.5 2.51h7.5v-6z"/><path fill="url(#IconifyId195ad048a32870fdf155869)" d="m6.676 7.275l-.75 2.26c-.15.44-.56.74-1.03.74h-2.72a.5.5 0 0 0-.5.49a2.503 2.503 0 0 0 2.5 2.51h7.5v-6z"/><path fill="url(#IconifyId195ad048a32870fdf155897)" d="M2.676 11.275h-.5c-.28 0-.5-.22-.5-.5s.22-.5.5-.5h.5c.28 0 .5.22.5.5s-.22.5-.5.5"/><path fill="url(#IconifyId195ad048a32870fdf155898)" d="M2.676 11.275h-.5c-.28 0-.5-.22-.5-.5s.22-.5.5-.5h.5c.28 0 .5.22.5.5s-.22.5-.5.5"/><path fill="url(#IconifyId195ad048a32870fdf155899)" d="M12.676 20.656h-2v8.31c0 .17.14.31.31.31h1.38c.17 0 .31-.14.31-.31z"/><path fill="url(#IconifyId195ad048a32870fdf155900)" d="M12.676 20.656h-2v8.31c0 .17.14.31.31.31h1.38c.17 0 .31-.14.31-.31z"/><path fill="url(#IconifyId195ad048a32870fdf155901)" d="M12.676 20.656h-2v8.31c0 .17.14.31.31.31h1.38c.17 0 .31-.14.31-.31z"/><g filter="url(#IconifyId195ad048a32870fdf155923)"><path fill="url(#IconifyId195ad048a32870fdf155902)" d="M11.676 21.922h.531v6.922h-.531z"/></g><path fill="url(#IconifyId195ad048a32870fdf155870)" d="M14.326 9.275c-.35 0-.64-.28-.64-.63l-.01-3.9a2.501 2.501 0 0 0-4.73-1.1c-.19.38-.58.63-1 .63h-1.27c-1.1 0-2 .9-2 2s.9 2 2 2h4.25c.41 0 .75.34.75.75l.02 4.25h-5.53c-.85 0-1.57.64-1.68 1.48l-.31 2.5a3.58 3.58 0 0 0 3.55 4.02h4.26c2.59 0 4.69-2.1 4.69-4.69v-4.95c0-1.3-1.05-2.36-2.35-2.36"/><path fill="url(#IconifyId195ad048a32870fdf155903)" d="M14.326 9.275c-.35 0-.64-.28-.64-.63l-.01-3.9a2.501 2.501 0 0 0-4.73-1.1c-.19.38-.58.63-1 .63h-1.27c-1.1 0-2 .9-2 2s.9 2 2 2h4.25c.41 0 .75.34.75.75l.02 4.25h-5.53c-.85 0-1.57.64-1.68 1.48l-.31 2.5a3.58 3.58 0 0 0 3.55 4.02h4.26c2.59 0 4.69-2.1 4.69-4.69v-4.95c0-1.3-1.05-2.36-2.35-2.36"/><path fill="url(#IconifyId195ad048a32870fdf155871)" d="M14.326 9.275c-.35 0-.64-.28-.64-.63l-.01-3.9a2.501 2.501 0 0 0-4.73-1.1c-.19.38-.58.63-1 .63h-1.27c-1.1 0-2 .9-2 2s.9 2 2 2h4.25c.41 0 .75.34.75.75l.02 4.25h-5.53c-.85 0-1.57.64-1.68 1.48l-.31 2.5a3.58 3.58 0 0 0 3.55 4.02h4.26c2.59 0 4.69-2.1 4.69-4.69v-4.95c0-1.3-1.05-2.36-2.35-2.36"/><path fill="url(#IconifyId195ad048a32870fdf155872)" d="M14.326 9.275c-.35 0-.64-.28-.64-.63l-.01-3.9a2.501 2.501 0 0 0-4.73-1.1c-.19.38-.58.63-1 .63h-1.27c-1.1 0-2 .9-2 2s.9 2 2 2h4.25c.41 0 .75.34.75.75l.02 4.25h-5.53c-.85 0-1.57.64-1.68 1.48l-.31 2.5a3.58 3.58 0 0 0 3.55 4.02h4.26c2.59 0 4.69-2.1 4.69-4.69v-4.95c0-1.3-1.05-2.36-2.35-2.36"/><path fill="url(#IconifyId195ad048a32870fdf155873)" d="M14.326 9.275c-.35 0-.64-.28-.64-.63l-.01-3.9a2.501 2.501 0 0 0-4.73-1.1c-.19.38-.58.63-1 .63h-1.27c-1.1 0-2 .9-2 2s.9 2 2 2h4.25c.41 0 .75.34.75.75l.02 4.25h-5.53c-.85 0-1.57.64-1.68 1.48l-.31 2.5a3.58 3.58 0 0 0 3.55 4.02h4.26c2.59 0 4.69-2.1 4.69-4.69v-4.95c0-1.3-1.05-2.36-2.35-2.36"/><path fill="url(#IconifyId195ad048a32870fdf155904)" d="M14.326 9.275c-.35 0-.64-.28-.64-.63l-.01-3.9a2.501 2.501 0 0 0-4.73-1.1c-.19.38-.58.63-1 .63h-1.27c-1.1 0-2 .9-2 2s.9 2 2 2h4.25c.41 0 .75.34.75.75l.02 4.25h-5.53c-.85 0-1.57.64-1.68 1.48l-.31 2.5a3.58 3.58 0 0 0 3.55 4.02h4.26c2.59 0 4.69-2.1 4.69-4.69v-4.95c0-1.3-1.05-2.36-2.35-2.36"/><path fill="url(#IconifyId195ad048a32870fdf155905)" d="m13.685 8.275l-.01-3.53a2.501 2.501 0 0 0-4.73-1.1c-.19.38-.58.63-1 .63h-1.27c-1.1 0-2 .9-2 2s.9 2 2 2z"/><path fill="url(#IconifyId195ad048a32870fdf155906)" d="M8.743 3.931a1.12 1.12 0 0 1-.797.344h-1.27c-1.1 0-2 .9-2 2s.9 2 2 2h4.64l.406 1.39l1.032.25l-.797-2.68l-.781-3.304z"/><path fill="url(#IconifyId195ad048a32870fdf155907)" d="M8.743 3.931a1.12 1.12 0 0 1-.797.344h-1.27c-1.1 0-2 .9-2 2s.9 2 2 2h4.64l.406 1.39l1.032.25l-.797-2.68l-.781-3.304z"/><path fill="url(#IconifyId195ad048a32870fdf155908)" d="m13.546 12.965l-.9-3.53c-.16-.66-.76-1.16-1.47-1.16s-1.31.5-1.46 1.16l-.91 3.53h.01c-.09.25-.14.53-.14.81a2.5 2.5 0 0 0 5 0c0-.28-.05-.55-.13-.81"/><g filter="url(#IconifyId195ad048a32870fdf155924)"><path fill="#988E9F" d="M10.655 13.444H8.308q.009.001.007.01c-.09.238-.14.503-.14.769c0 1.326 1.144 2.402 2.552 2.402s2.552-1.076 2.552-2.402c0-.27-.051-.529-.133-.779l-.918-3.392a1.49 1.49 0 0 0-.804-.956l.018 3.896z"/></g><g filter="url(#IconifyId195ad048a32870fdf155925)"><path stroke="url(#IconifyId195ad048a32870fdf155909)" stroke-linecap="round" stroke-width=".4" d="M11.31 3.281c.53.01 1.593.362 1.593 1.685v4.32c0 .678.549 1.226 1.226 1.226v0c.676 0 1.225.55 1.225 1.226v4.71a3 3 0 0 1-.555 1.74L14.22 19"/></g><path fill="url(#IconifyId195ad048a32870fdf155910)" d="m13.546 12.965l-.9-3.53c-.16-.66-.76-1.16-1.47-1.16s-1.31.5-1.46 1.16l-.91 3.53h.01c-.09.25-.14.53-.14.81a2.5 2.5 0 0 0 5 0c0-.28-.05-.55-.13-.81"/><path fill="url(#IconifyId195ad048a32870fdf155911)" d="m13.546 12.965l-.9-3.53c-.16-.66-.76-1.16-1.47-1.16s-1.31.5-1.46 1.16l-.91 3.53h.01c-.09.25-.14.53-.14.81a2.5 2.5 0 0 0 5 0c0-.28-.05-.55-.13-.81"/><path fill="url(#IconifyId195ad048a32870fdf155912)" d="m13.546 12.965l-.9-3.53c-.16-.66-.76-1.16-1.47-1.16s-1.31.5-1.46 1.16l-.91 3.53h.01c-.09.25-.14.53-.14.81a2.5 2.5 0 0 0 5 0c0-.28-.05-.55-.13-.81"/><path fill="url(#IconifyId195ad048a32870fdf155874)" d="m13.546 12.965l-.9-3.53c-.16-.66-.76-1.16-1.47-1.16s-1.31.5-1.46 1.16l-.91 3.53h.01c-.09.25-.14.53-.14.81a2.5 2.5 0 0 0 5 0c0-.28-.05-.55-.13-.81"/><path fill="url(#IconifyId195ad048a32870fdf155913)" d="M10.676 21.275h-2v7.69c0 .17.14.31.31.31h1.38c.17 0 .31-.14.31-.31z"/><path fill="url(#IconifyId195ad048a32870fdf155914)" d="M10.676 21.275h-2v7.69c0 .17.14.31.31.31h1.38c.17 0 .31-.14.31-.31z"/><path fill="url(#IconifyId195ad048a32870fdf155915)" d="M10.676 21.275h-2v7.69c0 .17.14.31.31.31h1.38c.17 0 .31-.14.31-.31z"/><path fill="url(#IconifyId195ad048a32870fdf155916)" d="M10.676 21.275h-2v7.69c0 .17.14.31.31.31h1.38c.17 0 .31-.14.31-.31z"/><path fill="url(#IconifyId195ad048a32870fdf155875)" d="M9.8 28.275a2 2 0 1 0 0-4a2 2 0 0 0 0 4"/><path fill="url(#IconifyId195ad048a32870fdf155876)" d="M9.8 28.275a2 2 0 1 0 0-4a2 2 0 0 0 0 4"/><path fill="url(#IconifyId195ad048a32870fdf155877)" d="M9.8 28.275a2 2 0 1 0 0-4a2 2 0 0 0 0 4"/><path fill="url(#IconifyId195ad048a32870fdf155878)" d="M9.8 28.275a2 2 0 1 0 0-4a2 2 0 0 0 0 4"/><path fill="url(#IconifyId195ad048a32870fdf155879)" d="M9.8 28.275a2 2 0 1 0 0-4a2 2 0 0 0 0 4"/><path fill="url(#IconifyId195ad048a32870fdf155880)" d="M11.676 28.275a2 2 0 1 0 0-4a2 2 0 0 0 0 4"/><path fill="url(#IconifyId195ad048a32870fdf155881)" d="M11.676 28.275a2 2 0 1 0 0-4a2 2 0 0 0 0 4"/><path fill="url(#IconifyId195ad048a32870fdf155882)" d="M11.676 28.275a2 2 0 1 0 0-4a2 2 0 0 0 0 4"/><path fill="url(#IconifyId195ad048a32870fdf155883)" d="M27.868 28.275a2 2 0 1 0 0-4a2 2 0 0 0 0 4"/><path fill="url(#IconifyId195ad048a32870fdf155884)" d="M27.868 28.275a2 2 0 1 0 0-4a2 2 0 0 0 0 4"/><path fill="url(#IconifyId195ad048a32870fdf155885)" d="M27.868 28.275a2 2 0 1 0 0-4a2 2 0 0 0 0 4"/><rect width="1" height="2" x="7.676" y="9.275" fill="url(#IconifyId195ad048a32870fdf155917)" rx=".5"/><rect width="1" height="2" x="7.676" y="9.275" fill="url(#IconifyId195ad048a32870fdf155918)" rx=".5"/><g filter="url(#IconifyId195ad048a32870fdf155926)"><path fill="#9692A3" d="m22.379 12.36l-.64 4.343l3.624-1.672c0-1.64-1.469-2.672-2.984-2.672"/></g><g filter="url(#IconifyId195ad048a32870fdf155927)"><circle cx="11.602" cy="4.464" r="1.567" fill="url(#IconifyId195ad048a32870fdf155886)"/></g><g filter="url(#IconifyId195ad048a32870fdf155928)"><rect width="5.891" height="1.463" x="6.472" y="6.544" fill="url(#IconifyId195ad048a32870fdf155919)" rx=".731"/></g><defs><radialGradient id="IconifyId195ad048a32870fdf155854" cx="0" cy="0" r="1" gradientTransform="rotate(136.447 12.984 8.572)scale(5.95039)" gradientUnits="userSpaceOnUse"><stop stop-color="#F0EDF3"/><stop offset=".994" stop-color="#A291B4"/></radialGradient><radialGradient id="IconifyId195ad048a32870fdf155855" cx="0" cy="0" r="1" gradientTransform="rotate(-148.393 15.11 -.378)scale(4.77011 3.85001)" gradientUnits="userSpaceOnUse"><stop offset=".537" stop-color="#B3B1B5" stop-opacity="0"/><stop offset="1" stop-color="#939196"/></radialGradient><radialGradient id="IconifyId195ad048a32870fdf155856" cx="0" cy="0" r="1" gradientTransform="rotate(127.661 13.15 9.701)scale(5.88181 3.961)" gradientUnits="userSpaceOnUse"><stop offset=".405" stop-color="#B3B1B5" stop-opacity="0"/><stop offset="1" stop-color="#939196"/></radialGradient><radialGradient id="IconifyId195ad048a32870fdf155857" cx="0" cy="0" r="1" gradientTransform="matrix(1 4.40625 -4.37095 .99199 27.02 5.469)" gradientUnits="userSpaceOnUse"><stop offset=".702" stop-color="#86838A" stop-opacity="0"/><stop offset="1" stop-color="#86838A"/></radialGradient><radialGradient id="IconifyId195ad048a32870fdf155858" cx="0" cy="0" r="1" gradientTransform="rotate(113.688 12.61 11.738)scale(5.28938 4.95508)" gradientUnits="userSpaceOnUse"><stop offset=".541" stop-color="#B1A0C3" stop-opacity="0"/><stop offset=".984" stop-color="#B1A0C3"/></radialGradient><radialGradient id="IconifyId195ad048a32870fdf155859" cx="0" cy="0" r="1" gradientTransform="matrix(2.46878 -4.31248 4.35751 2.49456 20.55 24.125)" gradientUnits="userSpaceOnUse"><stop stop-color="#914CC7"/><stop offset=".761" stop-color="#814CC7" stop-opacity="0"/></radialGradient><radialGradient id="IconifyId195ad048a32870fdf155860" cx="0" cy="0" r="1" gradientTransform="rotate(137.673 8.967 17.845)scale(6.06253 8.50647)" gradientUnits="userSpaceOnUse"><stop stop-color="#DEDEDE"/><stop offset="1" stop-color="#B195CC"/></radialGradient><radialGradient id="IconifyId195ad048a32870fdf155861" cx="0" cy="0" r="1" gradientTransform="matrix(0 -4.21875 5.01476 0 24.676 28)" gradientUnits="userSpaceOnUse"><stop offset=".393" stop-color="#6D607A" stop-opacity="0"/><stop offset=".896" stop-color="#6D607A"/><stop offset="1" stop-color="#939196"/></radialGradient><radialGradient id="IconifyId195ad048a32870fdf155862" cx="0" cy="0" r="1" gradientTransform="rotate(178.112 13.282 13.097)scale(2.84529)" gradientUnits="userSpaceOnUse"><stop stop-color="#6D607A"/><stop offset="1" stop-color="#6D607A" stop-opacity="0"/></radialGradient><radialGradient id="IconifyId195ad048a32870fdf155863" cx="0" cy="0" r="1" gradientTransform="matrix(-2.18753 -4.21874 2.89373 -1.50048 25.863 28.063)" gradientUnits="userSpaceOnUse"><stop stop-color="#9976BB"/><stop offset=".865" stop-color="#A280C4" stop-opacity="0"/></radialGradient><radialGradient id="IconifyId195ad048a32870fdf155864" cx="0" cy="0" r="1" gradientTransform="matrix(4.15625 3.625 -4.26456 4.88954 21.738 22.156)" gradientUnits="userSpaceOnUse"><stop stop-color="#DAD1E2"/><stop offset="1" stop-color="#DAD1E2" stop-opacity="0"/></radialGradient><radialGradient id="IconifyId195ad048a32870fdf155865" cx="0" cy="0" r="1" gradientTransform="rotate(-45.232 37.962 -14.628)scale(5.45803 6.66799)" gradientUnits="userSpaceOnUse"><stop stop-color="#ABA8B4"/><stop offset=".478" stop-color="#ABA8B4" stop-opacity="0"/></radialGradient><radialGradient id="IconifyId195ad048a32870fdf155866" cx="0" cy="0" r="1" gradientTransform="matrix(5.875 2.4375 -5.89385 14.20566 5.8 9.75)" gradientUnits="userSpaceOnUse"><stop stop-color="#898592"/><stop offset="1" stop-color="#80778F"/></radialGradient><radialGradient id="IconifyId195ad048a32870fdf155867" cx="0" cy="0" r="1" gradientTransform="rotate(-45.31 19.004 4.388)scale(4.08802 3.27008)" gradientUnits="userSpaceOnUse"><stop stop-color="#9182AB"/><stop offset="1" stop-color="#9182AB" stop-opacity="0"/></radialGradient><radialGradient id="IconifyId195ad048a32870fdf155868" cx="0" cy="0" r="1" gradientTransform="matrix(.90625 1.78125 -2.38514 1.2135 4.926 9.031)" gradientUnits="userSpaceOnUse"><stop stop-color="#9999A4"/><stop offset="1" stop-color="#9999A4" stop-opacity="0"/></radialGradient><radialGradient id="IconifyId195ad048a32870fdf155869" cx="0" cy="0" r="1" gradientTransform="rotate(140.774 2.619 5.283)scale(7.90668 7.59198)" gradientUnits="userSpaceOnUse"><stop offset=".806" stop-color="#9999A4" stop-opacity="0"/><stop offset="1" stop-color="#9999A4"/></radialGradient><radialGradient id="IconifyId195ad048a32870fdf155870" cx="0" cy="0" r="1" gradientTransform="matrix(-8.49182 9.51328 -14.55744 -12.99438 17.533 7.67)" gradientUnits="userSpaceOnUse"><stop stop-color="#EBE7EF"/><stop offset="1" stop-color="#C8BDD6"/></radialGradient><radialGradient id="IconifyId195ad048a32870fdf155871" cx="0" cy="0" r="1" gradientTransform="matrix(3.9375 -2.4375 2.34295 3.78476 15.176 7.313)" gradientUnits="userSpaceOnUse"><stop stop-color="#B7B1BE"/><stop offset=".678" stop-color="#B7B1BE" stop-opacity="0"/></radialGradient><radialGradient id="IconifyId195ad048a32870fdf155872" cx="0" cy="0" r="1" gradientTransform="matrix(-.37498 3.21875 -5.70473 -.6646 7.488 12.374)" gradientUnits="userSpaceOnUse"><stop stop-color="#A7A3AB"/><stop offset=".976" stop-color="#A39EA9" stop-opacity="0"/></radialGradient><radialGradient id="IconifyId195ad048a32870fdf155873" cx="0" cy="0" r="1" gradientTransform="matrix(-1.37499 -2.08757 2.61264 -1.72082 15.27 21.275)" gradientUnits="userSpaceOnUse"><stop offset=".034" stop-color="#A7A3AB"/><stop offset="1" stop-color="#A39EA9" stop-opacity="0"/></radialGradient><radialGradient id="IconifyId195ad048a32870fdf155874" cx="0" cy="0" r="1" gradientTransform="matrix(0 12.0931 -6.25827 0 11.176 5.844)" gradientUnits="userSpaceOnUse"><stop offset=".788" stop-color="#A280C4" stop-opacity="0"/><stop offset="1" stop-color="#A280C4"/></radialGradient><radialGradient id="IconifyId195ad048a32870fdf155875" cx="0" cy="0" r="1" gradientTransform="rotate(137.673 1.53 14.966)scale(6.06253 8.50647)" gradientUnits="userSpaceOnUse"><stop stop-color="#DEDEDE"/><stop offset="1" stop-color="#B195CC"/></radialGradient><radialGradient id="IconifyId195ad048a32870fdf155876" cx="0" cy="0" r="1" gradientTransform="matrix(0 6.28404 -5.28527 0 9.8 23.06)" gradientUnits="userSpaceOnUse"><stop offset=".389" stop-color="#A280C4" stop-opacity="0"/><stop offset="1" stop-color="#9976BB"/></radialGradient><radialGradient id="IconifyId195ad048a32870fdf155877" cx="0" cy="0" r="1" gradientTransform="matrix(0 -4.21875 5.01476 0 9.8 28)" gradientUnits="userSpaceOnUse"><stop offset=".393" stop-color="#6D607A" stop-opacity="0"/><stop offset="1" stop-color="#939196"/><stop offset="1" stop-color="#6D607A"/></radialGradient><radialGradient id="IconifyId195ad048a32870fdf155878" cx="0" cy="0" r="1" gradientTransform="rotate(180 5.572 12.914)scale(2.21875)" gradientUnits="userSpaceOnUse"><stop stop-color="#6D607A"/><stop offset="1" stop-color="#6D607A" stop-opacity="0"/></radialGradient><radialGradient id="IconifyId195ad048a32870fdf155879" cx="0" cy="0" r="1" gradientTransform="matrix(4.15625 3.625 -4.26456 4.88954 6.863 22.156)" gradientUnits="userSpaceOnUse"><stop stop-color="#DAD1E2"/><stop offset="1" stop-color="#DAD1E2" stop-opacity="0"/></radialGradient><radialGradient id="IconifyId195ad048a32870fdf155880" cx="0" cy="0" r="1" gradientTransform="rotate(124.498 -.427 16.07)scale(4.31623 6.05621)" gradientUnits="userSpaceOnUse"><stop stop-color="#F0EDF3"/><stop offset="1" stop-color="#B195CC"/></radialGradient><radialGradient id="IconifyId195ad048a32870fdf155881" cx="0" cy="0" r="1" gradientTransform="matrix(0 8.1257 -6.83421 0 11.676 23.06)" gradientUnits="userSpaceOnUse"><stop offset=".465" stop-color="#A280C4" stop-opacity="0"/><stop offset="1" stop-color="#A280C4"/></radialGradient><radialGradient id="IconifyId195ad048a32870fdf155882" cx="0" cy="0" r="1" gradientTransform="rotate(-148.393 10.006 11.55)scale(3.81608 3.08001)" gradientUnits="userSpaceOnUse"><stop offset=".537" stop-color="#B3B1B5" stop-opacity="0"/><stop offset="1" stop-color="#939196"/></radialGradient><radialGradient id="IconifyId195ad048a32870fdf155883" cx="0" cy="0" r="1" gradientTransform="rotate(124.498 7.67 20.33)scale(4.31623 6.05621)" gradientUnits="userSpaceOnUse"><stop stop-color="#F0EDF3"/><stop offset="1" stop-color="#B195CC"/></radialGradient><radialGradient id="IconifyId195ad048a32870fdf155884" cx="0" cy="0" r="1" gradientTransform="matrix(0 8.1257 -6.83421 0 27.868 23.06)" gradientUnits="userSpaceOnUse"><stop offset=".465" stop-color="#A280C4" stop-opacity="0"/><stop offset="1" stop-color="#A280C4"/></radialGradient><radialGradient id="IconifyId195ad048a32870fdf155885" cx="0" cy="0" r="1" gradientTransform="rotate(-148.393 18.103 9.258)scale(3.81608 3.08001)" gradientUnits="userSpaceOnUse"><stop offset=".537" stop-color="#B3B1B5" stop-opacity="0"/><stop offset="1" stop-color="#939196"/></radialGradient><radialGradient id="IconifyId195ad048a32870fdf155886" cx="0" cy="0" r="1" gradientTransform="rotate(128.884 5.16 4.81)scale(1.86678 1.45868)" gradientUnits="userSpaceOnUse"><stop stop-color="#fff"/><stop offset="1" stop-color="#fff" stop-opacity="0"/></radialGradient><linearGradient id="IconifyId195ad048a32870fdf155887" x1="25.707" x2="26.863" y1="11.25" y2="8.712" gradientUnits="userSpaceOnUse"><stop stop-color="#8F8B99"/><stop offset="1" stop-color="#6E647D"/></linearGradient><linearGradient id="IconifyId195ad048a32870fdf155888" x1="21.98" x2="19.669" y1="23.803" y2="37.627" gradientUnits="userSpaceOnUse"><stop stop-color="#9B9B9B"/><stop offset="1" stop-color="#D3D3D3"/></linearGradient><linearGradient id="IconifyId195ad048a32870fdf155889" x1="23.926" x2="23.926" y1="16.275" y2="25.156" gradientUnits="userSpaceOnUse"><stop stop-color="#332541"/><stop offset="1" stop-color="#6E6877"/></linearGradient><linearGradient id="IconifyId195ad048a32870fdf155890" x1="26.113" x2="23.816" y1="25.156" y2="25.156" gradientUnits="userSpaceOnUse"><stop stop-color="#332541"/><stop offset="1" stop-color="#6E6877" stop-opacity="0"/></linearGradient><linearGradient id="IconifyId195ad048a32870fdf155891" x1="23.988" x2="23.988" y1="30.25" y2="26.5" gradientUnits="userSpaceOnUse"><stop stop-color="#914CC7"/><stop offset=".473" stop-color="#814CC7" stop-opacity="0"/></linearGradient><linearGradient id="IconifyId195ad048a32870fdf155892" x1="19.426" x2="25.176" y1="26.375" y2="10.75" gradientUnits="userSpaceOnUse"><stop stop-color="#7F6D97"/><stop offset="1" stop-color="#A3A3AA"/></linearGradient><linearGradient id="IconifyId195ad048a32870fdf155893" x1="19.236" x2="19.236" y1="11.978" y2="17.056" gradientUnits="userSpaceOnUse"><stop stop-color="#ABA8B4"/><stop offset="1" stop-color="#ABA8B4" stop-opacity="0"/></linearGradient><linearGradient id="IconifyId195ad048a32870fdf155894" x1="20.019" x2="20.019" y1="22.188" y2="16.625" gradientUnits="userSpaceOnUse"><stop offset=".147" stop-color="#6B2B9D"/><stop offset=".91" stop-color="#6B2B9D" stop-opacity="0"/></linearGradient><linearGradient id="IconifyId195ad048a32870fdf155895" x1="25.868" x2="25.868" y1="12.305" y2="26.31" gradientUnits="userSpaceOnUse"><stop stop-color="#C8C7D0"/><stop offset=".313" stop-color="#C8C7D0" stop-opacity="0"/><stop offset=".974" stop-color="#C8C7D0"/></linearGradient><linearGradient id="IconifyId195ad048a32870fdf155896" x1="9.988" x2="8.082" y1="10.625" y2="10.125" gradientUnits="userSpaceOnUse"><stop stop-color="#66636F"/><stop offset="1" stop-color="#66636F" stop-opacity="0"/></linearGradient><linearGradient id="IconifyId195ad048a32870fdf155897" x1="2.949" x2="2.092" y1="10.59" y2="10.821" gradientUnits="userSpaceOnUse"><stop offset=".225" stop-color="#6B5E60"/><stop offset="1" stop-color="#433338"/></linearGradient><linearGradient id="IconifyId195ad048a32870fdf155898" x1="3.41" x2="3.41" y1="11.45" y2="10.606" gradientUnits="userSpaceOnUse"><stop stop-color="#552D52"/><stop offset="1" stop-color="#552D52" stop-opacity="0"/></linearGradient><linearGradient id="IconifyId195ad048a32870fdf155899" x1="13.176" x2="13.176" y1="28.5" y2="19.75" gradientUnits="userSpaceOnUse"><stop stop-color="#9C97A7"/><stop offset="1" stop-color="#7F7591"/></linearGradient><linearGradient id="IconifyId195ad048a32870fdf155900" x1="10.332" x2="12.426" y1="27.699" y2="27.719" gradientUnits="userSpaceOnUse"><stop stop-color="#938F9B"/><stop offset=".509" stop-color="#938F9B" stop-opacity="0"/></linearGradient><linearGradient id="IconifyId195ad048a32870fdf155901" x1="12.196" x2="12.196" y1="30.258" y2="26.959" gradientUnits="userSpaceOnUse"><stop stop-color="#914CC7"/><stop offset=".473" stop-color="#814CC7" stop-opacity="0"/></linearGradient><linearGradient id="IconifyId195ad048a32870fdf155902" x1="12.207" x2="12.365" y1="23.094" y2="29.37" gradientUnits="userSpaceOnUse"><stop stop-color="#AAA4B5"/><stop offset=".787" stop-color="#938F9B" stop-opacity="0"/></linearGradient><linearGradient id="IconifyId195ad048a32870fdf155903" x1="10.412" x2="10.412" y1="-30.246" y2="23.25" gradientUnits="userSpaceOnUse"><stop offset=".9" stop-color="#A280C4" stop-opacity="0"/><stop offset="1" stop-color="#A280C4"/></linearGradient><linearGradient id="IconifyId195ad048a32870fdf155904" x1="17.894" x2="16.363" y1="17.063" y2="17.063" gradientUnits="userSpaceOnUse"><stop offset=".429" stop-color="#A7A3AB"/><stop offset="1" stop-color="#A39EA9" stop-opacity="0"/></linearGradient><linearGradient id="IconifyId195ad048a32870fdf155905" x1="9.988" x2="6.27" y1="6.813" y2="2.637" gradientUnits="userSpaceOnUse"><stop offset=".329" stop-color="#B7B1BE" stop-opacity="0"/><stop offset="1" stop-color="#B7B1BE"/></linearGradient><linearGradient id="IconifyId195ad048a32870fdf155906" x1="10.988" x2="10.988" y1="11.219" y2="6.5" gradientUnits="userSpaceOnUse"><stop stop-color="#CDB8E1"/><stop offset=".854" stop-color="#BDA0D9" stop-opacity="0"/></linearGradient><linearGradient id="IconifyId195ad048a32870fdf155907" x1="8.863" x2="8.863" y1="5.5" y2="8.813" gradientUnits="userSpaceOnUse"><stop offset=".698" stop-color="#B7B1BE" stop-opacity="0"/><stop offset="1" stop-color="#B7B1BE"/></linearGradient><linearGradient id="IconifyId195ad048a32870fdf155908" x1="11.176" x2="11.176" y1="15.748" y2="7.105" gradientUnits="userSpaceOnUse"><stop offset=".006" stop-color="#CCC"/><stop offset="1" stop-color="#E6E6E6"/></linearGradient><linearGradient id="IconifyId195ad048a32870fdf155909" x1="13.332" x2="13.332" y1="3.281" y2="19" gradientUnits="userSpaceOnUse"><stop stop-color="#F0ECF3"/><stop offset="1" stop-color="#F0ECF3" stop-opacity="0"/></linearGradient><linearGradient id="IconifyId195ad048a32870fdf155910" x1="12.426" x2="8.676" y1="10.969" y2="18.094" gradientUnits="userSpaceOnUse"><stop stop-color="#D8D1DF"/><stop offset="1" stop-color="#C2ADD7"/></linearGradient><linearGradient id="IconifyId195ad048a32870fdf155911" x1="17.551" x2="10.582" y1="10.688" y2="12.438" gradientUnits="userSpaceOnUse"><stop stop-color="#fff"/><stop offset="1" stop-color="#fff" stop-opacity="0"/></linearGradient><linearGradient id="IconifyId195ad048a32870fdf155912" x1="11.176" x2="8.424" y1="12.275" y2="11.697" gradientUnits="userSpaceOnUse"><stop offset=".463" stop-color="#B7B1BE" stop-opacity="0"/><stop offset="1" stop-color="#B7B1BE"/></linearGradient><linearGradient id="IconifyId195ad048a32870fdf155913" x1="9.676" x2="9.676" y1="21.577" y2="31.329" gradientUnits="userSpaceOnUse"><stop stop-color="#9B9B9B"/><stop offset="1" stop-color="#D3D3D3"/></linearGradient><linearGradient id="IconifyId195ad048a32870fdf155914" x1="8.051" x2="8.051" y1="19.438" y2="26.625" gradientUnits="userSpaceOnUse"><stop stop-color="#554F60"/><stop offset="1" stop-color="#85828B"/></linearGradient><linearGradient id="IconifyId195ad048a32870fdf155915" x1="10.196" x2="10.196" y1="30.188" y2="27.125" gradientUnits="userSpaceOnUse"><stop stop-color="#914CC7"/><stop offset=".473" stop-color="#814CC7" stop-opacity="0"/></linearGradient><linearGradient id="IconifyId195ad048a32870fdf155916" x1="8.332" x2="9.988" y1="27.813" y2="27.813" gradientUnits="userSpaceOnUse"><stop stop-color="#938F9B"/><stop offset=".509" stop-color="#938F9B" stop-opacity="0"/></linearGradient><linearGradient id="IconifyId195ad048a32870fdf155917" x1="8.535" x2="7.91" y1="10.275" y2="10.275" gradientUnits="userSpaceOnUse"><stop offset=".225" stop-color="#6B5E60"/><stop offset="1" stop-color="#433338"/></linearGradient><linearGradient id="IconifyId195ad048a32870fdf155918" x1="8.832" x2="8.832" y1="11.625" y2="9.938" gradientUnits="userSpaceOnUse"><stop stop-color="#552D52"/><stop offset="1" stop-color="#552D52" stop-opacity="0"/></linearGradient><linearGradient id="IconifyId195ad048a32870fdf155919" x1="11.613" x2="6.629" y1="8.006" y2="8.006" gradientUnits="userSpaceOnUse"><stop stop-color="#CDB8E1"/><stop offset="1" stop-color="#BDA0D9" stop-opacity="0"/></linearGradient><filter id="IconifyId195ad048a32870fdf155920" width="3.305" height="2.883" x="23.473" y="9.164" color-interpolation-filters="sRGB" filterUnits="userSpaceOnUse"><feFlood flood-opacity="0" result="BackgroundImageFix"/><feBlend in="SourceGraphic" in2="BackgroundImageFix" result="shape"/><feGaussianBlur result="effect1_foregroundBlur_28327_1841" stdDeviation=".125"/></filter><filter id="IconifyId195ad048a32870fdf155921" width="8.472" height="7.078" x="15" y="10.978" color-interpolation-filters="sRGB" filterUnits="userSpaceOnUse"><feFlood flood-opacity="0" result="BackgroundImageFix"/><feBlend in="SourceGraphic" in2="BackgroundImageFix" result="shape"/><feGaussianBlur result="effect1_foregroundBlur_28327_1841" stdDeviation=".5"/></filter><filter id="IconifyId195ad048a32870fdf155922" width="7.03" height="16.043" x="22.494" y="10.683" color-interpolation-filters="sRGB" filterUnits="userSpaceOnUse"><feFlood flood-opacity="0" result="BackgroundImageFix"/><feBlend in="SourceGraphic" in2="BackgroundImageFix" result="shape"/><feGaussianBlur result="effect1_foregroundBlur_28327_1841" stdDeviation=".65"/></filter><filter id="IconifyId195ad048a32870fdf155923" width="1.531" height="7.922" x="11.176" y="21.422" color-interpolation-filters="sRGB" filterUnits="userSpaceOnUse"><feFlood flood-opacity="0" result="BackgroundImageFix"/><feBlend in="SourceGraphic" in2="BackgroundImageFix" result="shape"/><feGaussianBlur result="effect1_foregroundBlur_28327_1841" stdDeviation=".25"/></filter><filter id="IconifyId195ad048a32870fdf155924" width="7.103" height="9.529" x="7.176" y="8.096" color-interpolation-filters="sRGB" filterUnits="userSpaceOnUse"><feFlood flood-opacity="0" result="BackgroundImageFix"/><feBlend in="SourceGraphic" in2="BackgroundImageFix" result="shape"/><feGaussianBlur result="effect1_foregroundBlur_28327_1841" stdDeviation=".5"/></filter><filter id="IconifyId195ad048a32870fdf155925" width="6.045" height="17.719" x="10.31" y="2.281" color-interpolation-filters="sRGB" filterUnits="userSpaceOnUse"><feFlood flood-opacity="0" result="BackgroundImageFix"/><feBlend in="SourceGraphic" in2="BackgroundImageFix" result="shape"/><feGaussianBlur result="effect1_foregroundBlur_28327_1841" stdDeviation=".4"/></filter><filter id="IconifyId195ad048a32870fdf155926" width="5.625" height="6.344" x="20.738" y="11.359" color-interpolation-filters="sRGB" filterUnits="userSpaceOnUse"><feFlood flood-opacity="0" result="BackgroundImageFix"/><feBlend in="SourceGraphic" in2="BackgroundImageFix" result="shape"/><feGaussianBlur result="effect1_foregroundBlur_28327_1841" stdDeviation=".5"/></filter><filter id="IconifyId195ad048a32870fdf155927" width="7.134" height="7.135" x="8.035" y=".897" color-interpolation-filters="sRGB" filterUnits="userSpaceOnUse"><feFlood flood-opacity="0" result="BackgroundImageFix"/><feBlend in="SourceGraphic" in2="BackgroundImageFix" result="shape"/><feGaussianBlur result="effect1_foregroundBlur_28327_1841" stdDeviation="1"/></filter><filter id="IconifyId195ad048a32870fdf155928" width="9.891" height="5.463" x="4.472" y="4.544" color-interpolation-filters="sRGB" filterUnits="userSpaceOnUse"><feFlood flood-opacity="0" result="BackgroundImageFix"/><feBlend in="SourceGraphic" in2="BackgroundImageFix" result="shape"/><feGaussianBlur result="effect1_foregroundBlur_28327_1841" stdDeviation="1"/></filter></defs></g></svg>