<svg xmlns="http://www.w3.org/2000/svg" width="1em" height="1em" viewBox="0 0 32 32"><defs><path id="IconifyId195ac99e25a590abd168903" fill="#fff" d="M0 0h32v32H0z"/></defs><g fill="none"><g clip-path="url(#IconifyId195ac99e25a590abd168937)"><g clip-path="url(#IconifyId195ac99e25a590abd168938)"><g opacity=".6"><path fill="url(#IconifyId195ac99e25a590abd168904)" d="M13.999 29.998c9.334 0 13.999-6.268 13.999-14c0-7.73-4.665-13.998-14-13.998C4.665 2 0 8.268 0 15.999s4.664 13.999 13.999 13.999"/><path fill="url(#IconifyId195ac99e25a590abd168905)" d="M13.999 29.998c9.334 0 13.999-6.268 13.999-14c0-7.73-4.665-13.998-14-13.998C4.665 2 0 8.268 0 15.999s4.664 13.999 13.999 13.999"/><path fill="url(#IconifyId195ac99e25a590abd168906)" d="M13.999 29.998c9.334 0 13.999-6.268 13.999-14c0-7.73-4.665-13.998-14-13.998C4.665 2 0 8.268 0 15.999s4.664 13.999 13.999 13.999"/><path fill="url(#IconifyId195ac99e25a590abd168907)" fill-opacity=".6" d="M13.999 29.998c9.334 0 13.999-6.268 13.999-14c0-7.73-4.665-13.998-14-13.998C4.665 2 0 8.268 0 15.999s4.664 13.999 13.999 13.999"/><path fill="url(#IconifyId195ac99e25a590abd168908)" d="M13.999 29.998c9.334 0 13.999-6.268 13.999-14c0-7.73-4.665-13.998-14-13.998C4.665 2 0 8.268 0 15.999s4.664 13.999 13.999 13.999"/><path fill="url(#IconifyId195ac99e25a590abd168909)" d="M13.999 29.998c9.334 0 13.999-6.268 13.999-14c0-7.73-4.665-13.998-14-13.998C4.665 2 0 8.268 0 15.999s4.664 13.999 13.999 13.999"/><path fill="url(#IconifyId195ac99e25a590abd168910)" d="M13.999 29.998c9.334 0 13.999-6.268 13.999-14c0-7.73-4.665-13.998-14-13.998C4.665 2 0 8.268 0 15.999s4.664 13.999 13.999 13.999"/><path fill="url(#IconifyId195ac99e25a590abd168911)" d="M13.999 29.998c9.334 0 13.999-6.268 13.999-14c0-7.73-4.665-13.998-14-13.998C4.665 2 0 8.268 0 15.999s4.664 13.999 13.999 13.999"/></g><g opacity=".6"><path fill="url(#IconifyId195ac99e25a590abd168912)" d="M17.999 29.998c9.334 0 13.999-6.268 13.999-14c0-7.73-4.665-13.998-14-13.998C8.665 2 4 8.268 4 15.999s4.664 13.999 13.999 13.999"/><path fill="url(#IconifyId195ac99e25a590abd168913)" d="M17.999 29.998c9.334 0 13.999-6.268 13.999-14c0-7.73-4.665-13.998-14-13.998C8.665 2 4 8.268 4 15.999s4.664 13.999 13.999 13.999"/><path fill="url(#IconifyId195ac99e25a590abd168914)" d="M17.999 29.998c9.334 0 13.999-6.268 13.999-14c0-7.73-4.665-13.998-14-13.998C8.665 2 4 8.268 4 15.999s4.664 13.999 13.999 13.999"/><path fill="url(#IconifyId195ac99e25a590abd168915)" fill-opacity=".6" d="M17.999 29.998c9.334 0 13.999-6.268 13.999-14c0-7.73-4.665-13.998-14-13.998C8.665 2 4 8.268 4 15.999s4.664 13.999 13.999 13.999"/><path fill="url(#IconifyId195ac99e25a590abd168916)" d="M17.999 29.998c9.334 0 13.999-6.268 13.999-14c0-7.73-4.665-13.998-14-13.998C8.665 2 4 8.268 4 15.999s4.664 13.999 13.999 13.999"/><path fill="url(#IconifyId195ac99e25a590abd168917)" d="M17.999 29.998c9.334 0 13.999-6.268 13.999-14c0-7.73-4.665-13.998-14-13.998C8.665 2 4 8.268 4 15.999s4.664 13.999 13.999 13.999"/><path fill="url(#IconifyId195ac99e25a590abd168918)" d="M17.999 29.998c9.334 0 13.999-6.268 13.999-14c0-7.73-4.665-13.998-14-13.998C8.665 2 4 8.268 4 15.999s4.664 13.999 13.999 13.999"/><path fill="url(#IconifyId195ac99e25a590abd168919)" d="M17.999 29.998c9.334 0 13.999-6.268 13.999-14c0-7.73-4.665-13.998-14-13.998C8.665 2 4 8.268 4 15.999s4.664 13.999 13.999 13.999"/></g><path fill="url(#IconifyId195ac99e25a590abd168931)" fill-rule="evenodd" d="M5.07 7.988c-.594.562-.952 1.24-1.096 1.67a.5.5 0 1 1-.948-.316c.19-.57.631-1.392 1.355-2.08C5.113 6.567 6.148 6 7.5 6a.5.5 0 0 1 0 1c-1.049 0-1.847.433-2.432.988" clip-rule="evenodd" opacity=".6"/><path fill="url(#IconifyId195ac99e25a590abd168932)" fill-rule="evenodd" d="M26.93 7.988c.593.562.952 1.24 1.096 1.67a.5.5 0 1 0 .948-.316c-.19-.57-.631-1.392-1.355-2.08C26.887 6.567 25.852 6 24.5 6a.5.5 0 1 0 0 1c1.049 0 1.847.433 2.432.988" clip-rule="evenodd" opacity=".6"/><path fill="url(#IconifyId195ac99e25a590abd168920)" fill-rule="evenodd" d="M15.999 2.102C7.999 2.938 4 8.84 4 15.999S7.998 29.06 15.999 29.896c8-.836 11.999-6.74 11.999-13.897c0-7.158-3.998-13.061-12-13.897" clip-rule="evenodd"/><path fill="url(#IconifyId195ac99e25a590abd168921)" fill-rule="evenodd" d="M15.999 2.102C7.999 2.938 4 8.84 4 15.999S7.998 29.06 15.999 29.896c8-.836 11.999-6.74 11.999-13.897c0-7.158-3.998-13.061-12-13.897" clip-rule="evenodd"/><path fill="url(#IconifyId195ac99e25a590abd168922)" fill-rule="evenodd" d="M15.999 2.102C7.999 2.938 4 8.84 4 15.999S7.998 29.06 15.999 29.896c8-.836 11.999-6.74 11.999-13.897c0-7.158-3.998-13.061-12-13.897" clip-rule="evenodd"/><path fill="url(#IconifyId195ac99e25a590abd168923)" fill-opacity=".6" fill-rule="evenodd" d="M15.999 2.102C7.999 2.938 4 8.84 4 15.999S7.998 29.06 15.999 29.896c8-.836 11.999-6.74 11.999-13.897c0-7.158-3.998-13.061-12-13.897" clip-rule="evenodd"/><path fill="url(#IconifyId195ac99e25a590abd168924)" fill-rule="evenodd" d="M15.999 2.102C7.999 2.938 4 8.84 4 15.999S7.998 29.06 15.999 29.896c8-.836 11.999-6.74 11.999-13.897c0-7.158-3.998-13.061-12-13.897" clip-rule="evenodd"/><path fill="url(#IconifyId195ac99e25a590abd168925)" fill-rule="evenodd" d="M15.999 2.102C7.999 2.938 4 8.84 4 15.999S7.998 29.06 15.999 29.896c8-.836 11.999-6.74 11.999-13.897c0-7.158-3.998-13.061-12-13.897" clip-rule="evenodd"/><path fill="url(#IconifyId195ac99e25a590abd168926)" fill-rule="evenodd" d="M15.999 2.102C7.999 2.938 4 8.84 4 15.999S7.998 29.06 15.999 29.896c8-.836 11.999-6.74 11.999-13.897c0-7.158-3.998-13.061-12-13.897" clip-rule="evenodd"/><path fill="url(#IconifyId195ac99e25a590abd168927)" fill-rule="evenodd" d="M15.999 2.102C7.999 2.938 4 8.84 4 15.999S7.998 29.06 15.999 29.896c8-.836 11.999-6.74 11.999-13.897c0-7.158-3.998-13.061-12-13.897" clip-rule="evenodd"/><circle cx="9" cy="16" r="5" fill="url(#IconifyId195ac99e25a590abd168928)"/><circle cx="19.5" cy="16.5" r="4.5" fill="url(#IconifyId195ac99e25a590abd168929)"/><path fill="#fff" d="M6.5 19a4.5 4.5 0 1 0 0-9a4.5 4.5 0 0 0 0 9m19 0a4.5 4.5 0 1 0 0-9a4.5 4.5 0 0 0 0 9" opacity=".4"/><path fill="#fff" d="M8.5 19a4.5 4.5 0 1 0 0-9a4.5 4.5 0 0 0 0 9m15 0a4.5 4.5 0 1 0 0-9a4.5 4.5 0 0 0 0 9" opacity=".5"/><path fill="#fff" d="M10.5 19a4.5 4.5 0 1 0 0-9a4.5 4.5 0 0 0 0 9m11 0a4.5 4.5 0 1 0 0-9a4.5 4.5 0 0 0 0 9"/><path fill="url(#IconifyId195ac99e25a590abd168933)" d="M12 17a2 2 0 1 0 0-4a2 2 0 0 0 0 4"/><path fill="url(#IconifyId195ac99e25a590abd168934)" d="M20 17a2 2 0 1 0 0-4a2 2 0 0 0 0 4"/><path fill="url(#IconifyId195ac99e25a590abd168935)" fill-rule="evenodd" d="M8.07 7.988c-.594.562-.952 1.24-1.096 1.67a.5.5 0 1 1-.948-.316c.19-.57.631-1.392 1.355-2.08C8.113 6.567 9.148 6 10.5 6a.5.5 0 1 1 0 1c-1.049 0-1.847.433-2.432.988" clip-rule="evenodd"/><path fill="url(#IconifyId195ac99e25a590abd168936)" fill-rule="evenodd" d="M23.93 7.988c.593.562.952 1.24 1.096 1.67a.5.5 0 1 0 .948-.316c-.19-.57-.631-1.392-1.355-2.08C23.887 6.567 22.852 6 21.5 6a.5.5 0 1 0 0 1c1.049 0 1.847.433 2.432.988" clip-rule="evenodd"/><path fill="url(#IconifyId195ac99e25a590abd168930)" d="M13 24a3 3 0 1 1 6 0a3 3 0 0 1-6 0"/></g></g><defs><radialGradient id="IconifyId195ac99e25a590abd168904" cx="0" cy="0" r="1" gradientTransform="rotate(132.839 9.786 9.629)scale(37.5033)" gradientUnits="userSpaceOnUse"><stop stop-color="#FFF478"/><stop offset=".475" stop-color="#FFB02E"/><stop offset="1" stop-color="#F70A8D"/></radialGradient><radialGradient id="IconifyId195ac99e25a590abd168905" cx="0" cy="0" r="1" gradientTransform="rotate(131.878 9.74 9.746)scale(38.9487)" gradientUnits="userSpaceOnUse"><stop stop-color="#FFF478"/><stop offset=".475" stop-color="#FFB02E"/><stop offset="1" stop-color="#F70A8D"/></radialGradient><radialGradient id="IconifyId195ac99e25a590abd168906" cx="0" cy="0" r="1" gradientTransform="rotate(101.31 1.876 11.989)scale(17.8466 22.8581)" gradientUnits="userSpaceOnUse"><stop offset=".788" stop-color="#F59639" stop-opacity="0"/><stop offset=".973" stop-color="#FF7DCE"/></radialGradient><radialGradient id="IconifyId195ac99e25a590abd168907" cx="0" cy="0" r="1" gradientTransform="matrix(-29 29 -29 -29 16 14)" gradientUnits="userSpaceOnUse"><stop offset=".315" stop-opacity="0"/><stop offset="1"/></radialGradient><radialGradient id="IconifyId195ac99e25a590abd168908" cx="0" cy="0" r="1" gradientTransform="rotate(77.692 -3.555 17.192)scale(28.1469)" gradientUnits="userSpaceOnUse"><stop offset=".508" stop-color="#7D6133" stop-opacity="0"/><stop offset="1" stop-color="#715B32"/></radialGradient><radialGradient id="IconifyId195ac99e25a590abd168909" cx="0" cy="0" r="1" gradientTransform="matrix(7.5 10.99996 -7.97335 5.4364 14.5 16.5)" gradientUnits="userSpaceOnUse"><stop stop-color="#FFB849"/><stop offset="1" stop-color="#FFB847" stop-opacity="0"/></radialGradient><radialGradient id="IconifyId195ac99e25a590abd168910" cx="0" cy="0" r="1" gradientTransform="matrix(11.49998 2 -2 11.49998 18.5 18)" gradientUnits="userSpaceOnUse"><stop stop-color="#FFA64B"/><stop offset=".9" stop-color="#FFAE46" stop-opacity="0"/></radialGradient><radialGradient id="IconifyId195ac99e25a590abd168911" cx="0" cy="0" r="1" gradientTransform="rotate(43.971 -10.827 26.696)scale(59.0529)" gradientUnits="userSpaceOnUse"><stop offset=".185" stop-opacity="0"/><stop offset="1" stop-opacity=".4"/></radialGradient><radialGradient id="IconifyId195ac99e25a590abd168912" cx="0" cy="0" r="1" gradientTransform="rotate(132.839 11.786 10.502)scale(37.5033)" gradientUnits="userSpaceOnUse"><stop stop-color="#FFF478"/><stop offset=".475" stop-color="#FFB02E"/><stop offset="1" stop-color="#F70A8D"/></radialGradient><radialGradient id="IconifyId195ac99e25a590abd168913" cx="0" cy="0" r="1" gradientTransform="rotate(131.878 11.74 10.64)scale(38.9487)" gradientUnits="userSpaceOnUse"><stop stop-color="#FFF478"/><stop offset=".475" stop-color="#FFB02E"/><stop offset="1" stop-color="#F70A8D"/></radialGradient><radialGradient id="IconifyId195ac99e25a590abd168914" cx="0" cy="0" r="1" gradientTransform="rotate(101.31 3.876 13.628)scale(17.8466 22.8581)" gradientUnits="userSpaceOnUse"><stop offset=".788" stop-color="#F59639" stop-opacity="0"/><stop offset=".973" stop-color="#FF7DCE"/></radialGradient><radialGradient id="IconifyId195ac99e25a590abd168915" cx="0" cy="0" r="1" gradientTransform="matrix(-29 29 -29 -29 20 14)" gradientUnits="userSpaceOnUse"><stop offset=".315" stop-opacity="0"/><stop offset="1"/></radialGradient><radialGradient id="IconifyId195ac99e25a590abd168916" cx="0" cy="0" r="1" gradientTransform="rotate(77.692 -1.555 19.675)scale(28.1469)" gradientUnits="userSpaceOnUse"><stop offset=".508" stop-color="#7D6133" stop-opacity="0"/><stop offset="1" stop-color="#715B32"/></radialGradient><radialGradient id="IconifyId195ac99e25a590abd168917" cx="0" cy="0" r="1" gradientTransform="matrix(7.5 10.99996 -7.97335 5.4364 18.5 16.5)" gradientUnits="userSpaceOnUse"><stop stop-color="#FFB849"/><stop offset="1" stop-color="#FFB847" stop-opacity="0"/></radialGradient><radialGradient id="IconifyId195ac99e25a590abd168918" cx="0" cy="0" r="1" gradientTransform="matrix(11.49998 2 -2 11.49998 22.5 18)" gradientUnits="userSpaceOnUse"><stop stop-color="#FFA64B"/><stop offset=".9" stop-color="#FFAE46" stop-opacity="0"/></radialGradient><radialGradient id="IconifyId195ac99e25a590abd168919" cx="0" cy="0" r="1" gradientTransform="rotate(43.971 -8.827 31.65)scale(59.0529)" gradientUnits="userSpaceOnUse"><stop offset=".185" stop-opacity="0"/><stop offset="1" stop-opacity=".4"/></radialGradient><radialGradient id="IconifyId195ac99e25a590abd168920" cx="0" cy="0" r="1" gradientTransform="rotate(132.839 11.786 10.502)scale(37.5033)" gradientUnits="userSpaceOnUse"><stop stop-color="#FFF478"/><stop offset=".475" stop-color="#FFB02E"/><stop offset="1" stop-color="#F70A8D"/></radialGradient><radialGradient id="IconifyId195ac99e25a590abd168921" cx="0" cy="0" r="1" gradientTransform="rotate(131.878 11.74 10.64)scale(38.9487)" gradientUnits="userSpaceOnUse"><stop stop-color="#FFF478"/><stop offset=".475" stop-color="#FFB02E"/><stop offset="1" stop-color="#F70A8D"/></radialGradient><radialGradient id="IconifyId195ac99e25a590abd168922" cx="0" cy="0" r="1" gradientTransform="rotate(101.31 3.876 13.628)scale(17.8466 22.8581)" gradientUnits="userSpaceOnUse"><stop offset=".788" stop-color="#F59639" stop-opacity="0"/><stop offset=".973" stop-color="#FF7DCE"/></radialGradient><radialGradient id="IconifyId195ac99e25a590abd168923" cx="0" cy="0" r="1" gradientTransform="matrix(-29 29 -29 -29 20 14)" gradientUnits="userSpaceOnUse"><stop offset=".315" stop-opacity="0"/><stop offset="1"/></radialGradient><radialGradient id="IconifyId195ac99e25a590abd168924" cx="0" cy="0" r="1" gradientTransform="rotate(77.692 -1.555 19.675)scale(28.1469)" gradientUnits="userSpaceOnUse"><stop offset=".508" stop-color="#7D6133" stop-opacity="0"/><stop offset="1" stop-color="#715B32"/></radialGradient><radialGradient id="IconifyId195ac99e25a590abd168925" cx="0" cy="0" r="1" gradientTransform="matrix(7.5 10.99996 -7.97335 5.4364 18.5 16.5)" gradientUnits="userSpaceOnUse"><stop stop-color="#FFB849"/><stop offset="1" stop-color="#FFB847" stop-opacity="0"/></radialGradient><radialGradient id="IconifyId195ac99e25a590abd168926" cx="0" cy="0" r="1" gradientTransform="matrix(11.49998 2 -2 11.49998 22.5 18)" gradientUnits="userSpaceOnUse"><stop stop-color="#FFA64B"/><stop offset=".9" stop-color="#FFAE46" stop-opacity="0"/></radialGradient><radialGradient id="IconifyId195ac99e25a590abd168927" cx="0" cy="0" r="1" gradientTransform="rotate(43.971 -8.827 31.65)scale(59.0529)" gradientUnits="userSpaceOnUse"><stop offset=".185" stop-opacity="0"/><stop offset="1" stop-opacity=".4"/></radialGradient><radialGradient id="IconifyId195ac99e25a590abd168928" cx="0" cy="0" r="1" gradientTransform="rotate(135 3.936 8.725)scale(9.74236 5.04232)" gradientUnits="userSpaceOnUse"><stop stop-color="#392108"/><stop offset="1" stop-color="#C87928" stop-opacity="0"/></radialGradient><radialGradient id="IconifyId195ac99e25a590abd168929" cx="0" cy="0" r="1" gradientTransform="matrix(-5.75 5.75 -3.24597 -3.24597 23 13)" gradientUnits="userSpaceOnUse"><stop stop-color="#392108"/><stop offset="1" stop-color="#C87928" stop-opacity="0"/></radialGradient><radialGradient id="IconifyId195ac99e25a590abd168930" cx="0" cy="0" r="1" gradientTransform="rotate(-90 22.167 6.167)scale(7.33333)" gradientUnits="userSpaceOnUse"><stop stop-color="#F70A8D"/><stop offset="1" stop-color="#89029C"/></radialGradient><linearGradient id="IconifyId195ac99e25a590abd168931" x1="3.833" x2="3.833" y1="10.4" y2="8.6" gradientUnits="userSpaceOnUse"><stop offset=".03" stop-color="#524049"/><stop offset="1" stop-color="#4A2C42"/></linearGradient><linearGradient id="IconifyId195ac99e25a590abd168932" x1="28.166" x2="28.166" y1="10.4" y2="8.6" gradientUnits="userSpaceOnUse"><stop offset=".03" stop-color="#524049"/><stop offset="1" stop-color="#4A2C42"/></linearGradient><linearGradient id="IconifyId195ac99e25a590abd168933" x1="20.615" x2="19.927" y1="13" y2="17.03" gradientUnits="userSpaceOnUse"><stop stop-color="#553B3E"/><stop offset="1" stop-color="#3D2432"/></linearGradient><linearGradient id="IconifyId195ac99e25a590abd168934" x1="20.615" x2="19.927" y1="13" y2="17.03" gradientUnits="userSpaceOnUse"><stop stop-color="#553B3E"/><stop offset="1" stop-color="#3D2432"/></linearGradient><linearGradient id="IconifyId195ac99e25a590abd168935" x1="6.833" x2="6.833" y1="10.4" y2="8.6" gradientUnits="userSpaceOnUse"><stop offset=".03" stop-color="#524049"/><stop offset="1" stop-color="#4A2C42"/></linearGradient><linearGradient id="IconifyId195ac99e25a590abd168936" x1="25.166" x2="25.166" y1="10.4" y2="8.6" gradientUnits="userSpaceOnUse"><stop offset=".03" stop-color="#524049"/><stop offset="1" stop-color="#4A2C42"/></linearGradient><clipPath id="IconifyId195ac99e25a590abd168937"><use href="#IconifyId195ac99e25a590abd168903"/></clipPath><clipPath id="IconifyId195ac99e25a590abd168938"><use href="#IconifyId195ac99e25a590abd168903"/></clipPath></defs></g></svg>