<svg xmlns="http://www.w3.org/2000/svg" width="1em" height="1em" viewBox="0 0 32 32"><g fill="none"><rect width="13.855" height="4.801" x="17.969" y="10.906" fill="#C8C7C8" rx="2.4" transform="rotate(-45 17.969 10.906)"/><rect width="13.855" height="4.801" x="17.969" y="10.906" fill="url(#IconifyId195ac99e25a590abd169502)" rx="2.4" transform="rotate(-45 17.969 10.906)"/><rect width="13.855" height="4.801" x="17.969" y="10.906" fill="url(#IconifyId195ac99e25a590abd169503)" rx="2.4" transform="rotate(-45 17.969 10.906)"/><rect width="13.855" height="4.801" x="17.969" y="10.906" fill="url(#IconifyId195ac99e25a590abd169504)" rx="2.4" transform="rotate(-45 17.969 10.906)"/><rect width="13.855" height="4.801" x="17.969" y="10.906" fill="url(#IconifyId195ac99e25a590abd169522)" rx="2.4" transform="rotate(-45 17.969 10.906)"/><g filter="url(#IconifyId195ac99e25a590abd169513)"><path fill="url(#IconifyId195ac99e25a590abd169505)" d="M27.856 3.919h.699v6.197h-.699z" transform="rotate(45 27.856 3.919)"/></g><path fill="url(#IconifyId195ac99e25a590abd169523)" d="M19.666 9.209a2.4 2.4 0 1 0 3.395 3.395l3.037-3.038l-3.395-3.394z"/><g filter="url(#IconifyId195ac99e25a590abd169514)"><path fill="#3379FF" d="M2.75 22.484a1.613 1.613 0 0 1 0-2.28l3.11-3.11a1.613 1.613 0 0 1 2.28 2.281l-3.109 3.11c-.63.63-1.651.63-2.281 0"/><path fill="url(#IconifyId195ac99e25a590abd169506)" d="M2.75 22.484a1.613 1.613 0 0 1 0-2.28l3.11-3.11a1.613 1.613 0 0 1 2.28 2.281l-3.109 3.11c-.63.63-1.651.63-2.281 0"/></g><g filter="url(#IconifyId195ac99e25a590abd169515)"><path fill="#3379FF" d="M6.23 25.965a1.613 1.613 0 0 1 0-2.281l3.11-3.11a1.613 1.613 0 1 1 2.281 2.281l-3.11 3.11c-.63.63-1.65.63-2.28 0"/><path fill="url(#IconifyId195ac99e25a590abd169507)" d="M6.23 25.965a1.613 1.613 0 0 1 0-2.281l3.11-3.11a1.613 1.613 0 1 1 2.281 2.281l-3.11 3.11c-.63.63-1.65.63-2.28 0"/></g><g filter="url(#IconifyId195ac99e25a590abd169516)"><path fill="#3379FF" d="M9.687 29.453a1.613 1.613 0 0 1 0-2.281l3.11-3.11a1.613 1.613 0 1 1 2.281 2.282l-3.11 3.11c-.63.63-1.65.63-2.28 0"/><path fill="url(#IconifyId195ac99e25a590abd169508)" d="M9.687 29.453a1.613 1.613 0 0 1 0-2.281l3.11-3.11a1.613 1.613 0 1 1 2.281 2.282l-3.11 3.11c-.63.63-1.65.63-2.28 0"/></g><path fill="url(#IconifyId195ac99e25a590abd169524)" d="M23.425 21.112A8.734 8.734 0 0 0 11.091 8.778l-.443.398L22.031 22.39z"/><path fill="url(#IconifyId195ac99e25a590abd169525)" d="M23.425 21.112A8.734 8.734 0 0 0 11.091 8.778l-.443.398L22.031 22.39z"/><path fill="url(#IconifyId195ac99e25a590abd169526)" d="M23.425 21.112A8.734 8.734 0 0 0 11.091 8.778l-.443.398L22.031 22.39z"/><path fill="url(#IconifyId195ac99e25a590abd169527)" d="M23.425 21.112A8.734 8.734 0 0 0 11.091 8.778l-.443.398L22.031 22.39z"/><path fill="url(#IconifyId195ac99e25a590abd169509)" d="M23.425 21.112A8.734 8.734 0 0 0 11.091 8.778l-.443.398L22.031 22.39z"/><g filter="url(#IconifyId195ac99e25a590abd169517)"><path fill="url(#IconifyId195ac99e25a590abd169510)" d="M6.957 9.176a3.204 3.204 0 0 1 4.532 0l11.933 11.933a3.204 3.204 0 1 1-4.532 4.531L6.957 13.707a3.204 3.204 0 0 1 0-4.531"/></g><path fill="url(#IconifyId195ac99e25a590abd169511)" d="M6.957 9.176a3.204 3.204 0 0 1 4.532 0l11.933 11.933a3.204 3.204 0 1 1-4.532 4.531L6.957 13.707a3.204 3.204 0 0 1 0-4.531"/><path fill="url(#IconifyId195ac99e25a590abd169512)" d="M6.957 9.176a3.204 3.204 0 0 1 4.532 0l11.933 11.933a3.204 3.204 0 1 1-4.532 4.531L6.957 13.707a3.204 3.204 0 0 1 0-4.531"/><g filter="url(#IconifyId195ac99e25a590abd169518)"><rect width="18.913" height="1.609" x="9.882" y="9.333" fill="#DFDDE1" rx=".805" transform="rotate(45 9.882 9.333)"/></g><g filter="url(#IconifyId195ac99e25a590abd169519)"><rect width="1.05" height="5.42" x="7.391" y="17.303" fill="#498CFF" rx=".525" transform="rotate(45.861 7.391 17.303)"/></g><g filter="url(#IconifyId195ac99e25a590abd169520)"><rect width="1.05" height="5.42" x="10.794" y="20.833" fill="#498CFF" rx=".525" transform="rotate(45.861 10.794 20.833)"/></g><g filter="url(#IconifyId195ac99e25a590abd169521)"><rect width="1.05" height="5.42" x="14.369" y="24.315" fill="#498CFF" rx=".525" transform="rotate(45.861 14.369 24.315)"/></g><defs><linearGradient id="IconifyId195ac99e25a590abd169502" x1="27.139" x2="27.139" y1="16.143" y2="14.199" gradientUnits="userSpaceOnUse"><stop stop-color="#A6A1AD"/><stop offset="1" stop-color="#BBB7C0" stop-opacity="0"/></linearGradient><linearGradient id="IconifyId195ac99e25a590abd169503" x1="26.542" x2="26.476" y1="10.508" y2="13.315" gradientUnits="userSpaceOnUse"><stop stop-color="#9F9F9F"/><stop offset="1" stop-color="#B4B3B5" stop-opacity="0"/></linearGradient><linearGradient id="IconifyId195ac99e25a590abd169504" x1="32.265" x2="29.57" y1="13.447" y2="13.447" gradientUnits="userSpaceOnUse"><stop stop-color="#CCC"/><stop offset="1" stop-color="#CCC" stop-opacity="0"/></linearGradient><linearGradient id="IconifyId195ac99e25a590abd169505" x1="29.133" x2="29.275" y1="9.536" y2="3.497" gradientUnits="userSpaceOnUse"><stop stop-color="#CFCFCF"/><stop offset="1" stop-color="#CFCFCF" stop-opacity="0"/></linearGradient><linearGradient id="IconifyId195ac99e25a590abd169506" x1="2.75" x2="4.156" y1="22.75" y2="21.281" gradientUnits="userSpaceOnUse"><stop stop-color="#354FD8"/><stop offset="1" stop-color="#354FD8" stop-opacity="0"/></linearGradient><linearGradient id="IconifyId195ac99e25a590abd169507" x1="6.23" x2="7.637" y1="26.23" y2="24.762" gradientUnits="userSpaceOnUse"><stop stop-color="#354FD8"/><stop offset="1" stop-color="#354FD8" stop-opacity="0"/></linearGradient><linearGradient id="IconifyId195ac99e25a590abd169508" x1="9.687" x2="11.094" y1="29.719" y2="28.25" gradientUnits="userSpaceOnUse"><stop stop-color="#354FD8"/><stop offset="1" stop-color="#354FD8" stop-opacity="0"/></linearGradient><linearGradient id="IconifyId195ac99e25a590abd169509" x1="17.312" x2="18.152" y1="16.063" y2="15.219" gradientUnits="userSpaceOnUse"><stop offset=".292" stop-color="#B5B5B5"/><stop offset="1" stop-color="#B5B5B5" stop-opacity="0"/></linearGradient><linearGradient id="IconifyId195ac99e25a590abd169510" x1="16.594" x2="12.156" y1="15.25" y2="19.438" gradientUnits="userSpaceOnUse"><stop stop-color="#CECECE"/><stop offset="1" stop-color="#A7A0B0"/></linearGradient><linearGradient id="IconifyId195ac99e25a590abd169511" x1="18.515" x2="15.987" y1="15.936" y2="18.531" gradientUnits="userSpaceOnUse"><stop offset=".031" stop-color="#D3D2D3"/><stop offset="1" stop-color="#C1BEC4" stop-opacity="0"/></linearGradient><linearGradient id="IconifyId195ac99e25a590abd169512" x1="5.841" x2="8.635" y1="8.917" y2="11.811" gradientUnits="userSpaceOnUse"><stop offset=".03" stop-color="#A6A6A7"/><stop offset="1" stop-color="#A6A6A7" stop-opacity="0"/></linearGradient><filter id="IconifyId195ac99e25a590abd169513" width="5.876" height="5.876" x="22.974" y="3.419" color-interpolation-filters="sRGB" filterUnits="userSpaceOnUse"><feFlood flood-opacity="0" result="BackgroundImageFix"/><feBlend in="SourceGraphic" in2="BackgroundImageFix" result="shape"/><feGaussianBlur result="effect1_foregroundBlur_18_25869" stdDeviation=".25"/></filter><filter id="IconifyId195ac99e25a590abd169514" width="6.336" height="6.336" x="2.277" y="16.621" color-interpolation-filters="sRGB" filterUnits="userSpaceOnUse"><feFlood flood-opacity="0" result="BackgroundImageFix"/><feBlend in="SourceGraphic" in2="BackgroundImageFix" result="shape"/><feColorMatrix in="SourceAlpha" result="hardAlpha" values="0 0 0 0 0 0 0 0 0 0 0 0 0 0 0 0 0 0 127 0"/><feOffset/><feGaussianBlur stdDeviation=".5"/><feComposite in2="hardAlpha" k2="-1" k3="1" operator="arithmetic"/><feColorMatrix values="0 0 0 0 0.2 0 0 0 0 0.352941 0 0 0 0 0.858824 0 0 0 1 0"/><feBlend in2="shape" result="effect1_innerShadow_18_25869"/></filter><filter id="IconifyId195ac99e25a590abd169515" width="6.336" height="6.336" x="5.758" y="20.102" color-interpolation-filters="sRGB" filterUnits="userSpaceOnUse"><feFlood flood-opacity="0" result="BackgroundImageFix"/><feBlend in="SourceGraphic" in2="BackgroundImageFix" result="shape"/><feColorMatrix in="SourceAlpha" result="hardAlpha" values="0 0 0 0 0 0 0 0 0 0 0 0 0 0 0 0 0 0 127 0"/><feOffset/><feGaussianBlur stdDeviation=".5"/><feComposite in2="hardAlpha" k2="-1" k3="1" operator="arithmetic"/><feColorMatrix values="0 0 0 0 0.2 0 0 0 0 0.352941 0 0 0 0 0.858824 0 0 0 1 0"/><feBlend in2="shape" result="effect1_innerShadow_18_25869"/></filter><filter id="IconifyId195ac99e25a590abd169516" width="6.336" height="6.336" x="9.215" y="23.59" color-interpolation-filters="sRGB" filterUnits="userSpaceOnUse"><feFlood flood-opacity="0" result="BackgroundImageFix"/><feBlend in="SourceGraphic" in2="BackgroundImageFix" result="shape"/><feColorMatrix in="SourceAlpha" result="hardAlpha" values="0 0 0 0 0 0 0 0 0 0 0 0 0 0 0 0 0 0 127 0"/><feOffset/><feGaussianBlur stdDeviation=".5"/><feComposite in2="hardAlpha" k2="-1" k3="1" operator="arithmetic"/><feColorMatrix values="0 0 0 0 0.2 0 0 0 0 0.352941 0 0 0 0 0.858824 0 0 0 1 0"/><feBlend in2="shape" result="effect1_innerShadow_18_25869"/></filter><filter id="IconifyId195ac99e25a590abd169517" width="18.342" height="18.842" x="6.019" y="7.737" color-interpolation-filters="sRGB" filterUnits="userSpaceOnUse"><feFlood flood-opacity="0" result="BackgroundImageFix"/><feBlend in="SourceGraphic" in2="BackgroundImageFix" result="shape"/><feColorMatrix in="SourceAlpha" result="hardAlpha" values="0 0 0 0 0 0 0 0 0 0 0 0 0 0 0 0 0 0 127 0"/><feOffset dy="-.5"/><feGaussianBlur stdDeviation=".75"/><feComposite in2="hardAlpha" k2="-1" k3="1" operator="arithmetic"/><feColorMatrix values="0 0 0 0 0.552941 0 0 0 0 0.482353 0 0 0 0 0.666667 0 0 0 1 0"/><feBlend in2="shape" result="effect1_innerShadow_18_25869"/></filter><filter id="IconifyId195ac99e25a590abd169518" width="16.845" height="16.845" x="7.578" y="8.166" color-interpolation-filters="sRGB" filterUnits="userSpaceOnUse"><feFlood flood-opacity="0" result="BackgroundImageFix"/><feBlend in="SourceGraphic" in2="BackgroundImageFix" result="shape"/><feGaussianBlur result="effect1_foregroundBlur_18_25869" stdDeviation=".75"/></filter><filter id="IconifyId195ac99e25a590abd169519" width="5.686" height="5.594" x="2.969" y="16.77" color-interpolation-filters="sRGB" filterUnits="userSpaceOnUse"><feFlood flood-opacity="0" result="BackgroundImageFix"/><feBlend in="SourceGraphic" in2="BackgroundImageFix" result="shape"/><feGaussianBlur result="effect1_foregroundBlur_18_25869" stdDeviation=".375"/></filter><filter id="IconifyId195ac99e25a590abd169520" width="5.686" height="5.594" x="6.372" y="20.301" color-interpolation-filters="sRGB" filterUnits="userSpaceOnUse"><feFlood flood-opacity="0" result="BackgroundImageFix"/><feBlend in="SourceGraphic" in2="BackgroundImageFix" result="shape"/><feGaussianBlur result="effect1_foregroundBlur_18_25869" stdDeviation=".375"/></filter><filter id="IconifyId195ac99e25a590abd169521" width="5.686" height="5.594" x="9.946" y="23.782" color-interpolation-filters="sRGB" filterUnits="userSpaceOnUse"><feFlood flood-opacity="0" result="BackgroundImageFix"/><feBlend in="SourceGraphic" in2="BackgroundImageFix" result="shape"/><feGaussianBlur result="effect1_foregroundBlur_18_25869" stdDeviation=".375"/></filter><radialGradient id="IconifyId195ac99e25a590abd169522" cx="0" cy="0" r="1" gradientTransform="matrix(2.58536 1.10486 -.59281 1.38718 30.564 13.69)" gradientUnits="userSpaceOnUse"><stop stop-color="#DDDCDE"/><stop offset="1" stop-color="#CCCBCC" stop-opacity="0"/></radialGradient><radialGradient id="IconifyId195ac99e25a590abd169523" cx="0" cy="0" r="1" gradientTransform="rotate(135 10.28 9.036)scale(3.93328 2.86477)" gradientUnits="userSpaceOnUse"><stop offset=".247" stop-color="#979697"/><stop offset="1" stop-color="#7B7581"/></radialGradient><radialGradient id="IconifyId195ac99e25a590abd169524" cx="0" cy="0" r="1" gradientTransform="rotate(135.562 8.908 10.433)scale(9.5979 10.8918)" gradientUnits="userSpaceOnUse"><stop offset=".167" stop-color="#D6D6D7"/><stop offset="1" stop-color="#AEAEAE"/></radialGradient><radialGradient id="IconifyId195ac99e25a590abd169525" cx="0" cy="0" r="1" gradientTransform="matrix(-7.75111 -7.88429 6.54322 -6.4327 20.079 15.97)" gradientUnits="userSpaceOnUse"><stop offset=".795" stop-color="#B0B0B0" stop-opacity="0"/><stop offset="1" stop-color="#A1A1A1"/></radialGradient><radialGradient id="IconifyId195ac99e25a590abd169526" cx="0" cy="0" r="1" gradientTransform="matrix(3.8257 12.80773 -16.42223 4.90536 19.546 8.85)" gradientUnits="userSpaceOnUse"><stop offset=".718" stop-color="#ACA3B7" stop-opacity="0"/><stop offset=".952" stop-color="#ACA3B7"/></radialGradient><radialGradient id="IconifyId195ac99e25a590abd169527" cx="0" cy="0" r="1" gradientTransform="matrix(4.92348 -2.89036 1.97299 3.36082 19.247 14.469)" gradientUnits="userSpaceOnUse"><stop stop-color="#E0DFE1"/><stop offset="1" stop-color="#E0DFE1" stop-opacity="0"/></radialGradient></defs></g></svg>