<svg xmlns="http://www.w3.org/2000/svg" width="1em" height="1em" viewBox="0 0 32 32"><g fill="none"><path fill="url(#IconifyId195ad048a32870fdf173274)" d="M26.253 2.015H5.643c-2.03 0-3.68 1.65-3.68 3.68v20.61c0 2.03 1.65 3.68 3.68 3.68h20.61c2.03 0 3.68-1.65 3.68-3.68V5.695c0-2.03-1.64-3.68-3.68-3.68"/><path fill="url(#IconifyId195ad048a32870fdf173275)" d="M26.253 2.015H5.643c-2.03 0-3.68 1.65-3.68 3.68v20.61c0 2.03 1.65 3.68 3.68 3.68h20.61c2.03 0 3.68-1.65 3.68-3.68V5.695c0-2.03-1.64-3.68-3.68-3.68"/><path fill="url(#IconifyId195ad048a32870fdf173276)" d="M26.253 2.015H5.643c-2.03 0-3.68 1.65-3.68 3.68v20.61c0 2.03 1.65 3.68 3.68 3.68h20.61c2.03 0 3.68-1.65 3.68-3.68V5.695c0-2.03-1.64-3.68-3.68-3.68"/><path fill="#CAB1E3" d="m13.393 17.832l-10.69 10.69c.34.46.79.83 1.3 1.09l10.59-10.59z"/><path fill="url(#IconifyId195ad048a32870fdf173277)" d="m13.393 17.832l-10.69 10.69c.34.46.79.83 1.3 1.09l10.59-10.59z"/><path fill="url(#IconifyId195ad048a32870fdf173288)" d="m13.393 17.832l-10.69 10.69c.34.46.79.83 1.3 1.09l10.59-10.59z"/><path fill="url(#IconifyId195ad048a32870fdf173289)" d="m13.393 17.832l-10.69 10.69c.34.46.79.83 1.3 1.09l10.59-10.59z"/><g filter="url(#IconifyId195ad048a32870fdf173300)"><rect width="2.055" height="22.561" x="26.08" y="4.156" fill="url(#IconifyId195ad048a32870fdf173278)" rx="1.027"/></g><path fill="url(#IconifyId195ad048a32870fdf173290)" d="M11.963 7.515a.5.5 0 1 1-1 0a.5.5 0 0 1 1 0"/><path fill="url(#IconifyId195ad048a32870fdf173279)" d="M8.318 8.277a.445.445 0 1 0-.63.63l2.39 2.39a.445.445 0 1 0 .63-.63z"/><path fill="url(#IconifyId195ad048a32870fdf173291)" d="M6.463 13.015a.5.5 0 1 0 0-1a.5.5 0 0 0 0 1"/><path fill="url(#IconifyId195ad048a32870fdf173280)" d="M4.713 16.087a.445.445 0 1 0 0 .89h3.38a.445.445 0 1 0 0-.89z"/><path fill="url(#IconifyId195ad048a32870fdf173292)" d="M6.463 21.015a.5.5 0 1 0 0-1a.5.5 0 0 0 0 1"/><path fill="url(#IconifyId195ad048a32870fdf173293)" d="M12.443 26.015a.5.5 0 1 0 0-1a.5.5 0 0 0 0 1"/><path fill="url(#IconifyId195ad048a32870fdf173281)" d="M15.953 23.947c.245 0 .445.2.445.445v3.38a.445.445 0 0 1-.89 0v-3.38c0-.246.199-.445.445-.445"/><path fill="url(#IconifyId195ad048a32870fdf173294)" d="M19.963 25.515a.5.5 0 1 1-1 0a.5.5 0 0 1 1 0"/><path fill="url(#IconifyId195ad048a32870fdf173282)" d="M21.188 21.777a.445.445 0 0 1 .63 0l2.39 2.39a.445.445 0 1 1-.63.63l-2.39-2.39a.445.445 0 0 1 0-.63"/><path fill="url(#IconifyId195ad048a32870fdf173295)" d="M25.963 20.515a.5.5 0 1 1-1 0a.5.5 0 0 1 1 0"/><path fill="url(#IconifyId195ad048a32870fdf173296)" d="M23.358 16.532c0-.246.199-.445.444-.445h3.38a.445.445 0 1 1 0 .89h-3.38a.445.445 0 0 1-.444-.445"/><path fill="url(#IconifyId195ad048a32870fdf173283)" d="M23.358 16.532c0-.246.199-.445.444-.445h3.38a.445.445 0 1 1 0 .89h-3.38a.445.445 0 0 1-.444-.445"/><path fill="url(#IconifyId195ad048a32870fdf173297)" d="M25.993 12.515a.5.5 0 1 1-1 0a.5.5 0 0 1 1 0"/><path fill="url(#IconifyId195ad048a32870fdf173298)" d="M24.208 8.277a.445.445 0 0 1 0 .63l-2.39 2.39a.445.445 0 1 1-.63-.63l2.39-2.39a.445.445 0 0 1 .63 0"/><path fill="url(#IconifyId195ad048a32870fdf173284)" d="M24.208 8.277a.445.445 0 0 1 0 .63l-2.39 2.39a.445.445 0 1 1-.63-.63l2.39-2.39a.445.445 0 0 1 .63 0"/><path fill="url(#IconifyId195ad048a32870fdf173299)" d="M20.963 7.515a.5.5 0 1 1-1 0a.5.5 0 0 1 1 0"/><path fill="url(#IconifyId195ad048a32870fdf173285)" d="M16.398 5.302a.445.445 0 0 0-.89 0v3.38a.445.445 0 1 0 .89 0z"/><g filter="url(#IconifyId195ad048a32870fdf173301)"><path fill="url(#IconifyId195ad048a32870fdf173286)" d="m22.943 13.282l-4.25.91c-.24.06-.45-.16-.4-.4l.91-4.25c.08-.37-.41-.58-.62-.26l-2.36 3.65c-.13.21-.44.21-.57 0l-2.36-3.65c-.21-.31-.7-.11-.62.26l.91 4.25c.06.24-.16.45-.4.4l-4.25-.91c-.37-.08-.58.41-.26.62l3.65 2.36c.21.13.21.44 0 .57l-3.65 2.36c-.31.21-.11.7.26.62l4.25-.91c.24-.06.45.16.4.4l-.91 4.25c-.08.37.41.58.62.26l2.36-3.65c.13-.21.44-.21.57 0l2.36 3.65c.21.31.7.11.62-.26l-.91-4.25c-.06-.24.16-.45.4-.4l4.25.91c.37.08.58-.41.26-.62l-3.65-2.36a.337.337 0 0 1 0-.57l3.65-2.36c.31-.21.11-.7-.26-.62"/></g><g filter="url(#IconifyId195ad048a32870fdf173302)"><path fill="url(#IconifyId195ad048a32870fdf173287)" d="m22.943 13.282l-4.25.91c-.24.06-.45-.16-.4-.4l.91-4.25c.08-.37-.41-.58-.62-.26l-2.36 3.65c-.13.21-.44.21-.57 0l-2.36-3.65c-.21-.31-.7-.11-.62.26l.91 4.25c.06.24-.16.45-.4.4l-4.25-.91c-.37-.08-.58.41-.26.62l3.65 2.36c.21.13.21.44 0 .57l-3.65 2.36c-.31.21-.11.7.26.62l4.25-.91c.24-.06.45.16.4.4l-.91 4.25c-.08.37.41.58.62.26l2.36-3.65c.13-.21.44-.21.57 0l2.36 3.65c.21.31.7.11.62-.26l-.91-4.25c-.06-.24.16-.45.4-.4l4.25.91c.37.08.58-.41.26-.62l-3.65-2.36a.337.337 0 0 1 0-.57l3.65-2.36c.31-.21.11-.7-.26-.62"/></g><g filter="url(#IconifyId195ad048a32870fdf173303)"><path stroke="#FFE557" stroke-linecap="round" stroke-width=".25" d="M18.975 16.532c-.039.109-.008.4.423.692c.43.293 2.539 1.558 3.539 2.154"/></g><g filter="url(#IconifyId195ad048a32870fdf173304)"><path stroke="#FFE557" stroke-linecap="round" stroke-width=".25" d="m18.77 9.778l-.982 4.232a.403.403 0 0 0 .25.48"/></g><defs><linearGradient id="IconifyId195ad048a32870fdf173274" x1="15.947" x2="15.947" y1="26.061" y2=".464" gradientUnits="userSpaceOnUse"><stop stop-color="#8A52B9"/><stop offset="1" stop-color="#1C1C1D"/></linearGradient><linearGradient id="IconifyId195ad048a32870fdf173275" x1="-1.783" x2="5.247" y1="20.315" y2="20.315" gradientUnits="userSpaceOnUse"><stop stop-color="#181818"/><stop offset="1" stop-color="#5E2E91" stop-opacity="0"/></linearGradient><linearGradient id="IconifyId195ad048a32870fdf173276" x1="17.127" x2="17.127" y1="31.59" y2="27.281" gradientUnits="userSpaceOnUse"><stop offset=".127" stop-color="#5D328D"/><stop offset="1" stop-color="#5D328D" stop-opacity="0"/></linearGradient><linearGradient id="IconifyId195ad048a32870fdf173277" x1="6.993" x2="7.724" y1="23.722" y2="24.475" gradientUnits="userSpaceOnUse"><stop stop-color="#A594B1"/><stop offset="1" stop-color="#A594B1" stop-opacity="0"/></linearGradient><linearGradient id="IconifyId195ad048a32870fdf173278" x1="27.108" x2="27.108" y1="4.156" y2="26.717" gradientUnits="userSpaceOnUse"><stop stop-color="#514E55"/><stop offset="1" stop-color="#9F6AD1"/></linearGradient><linearGradient id="IconifyId195ad048a32870fdf173279" x1="9.383" x2="8.844" y1="9.259" y2="9.831" gradientUnits="userSpaceOnUse"><stop stop-color="#FFC059"/><stop offset="1" stop-color="#FB9634"/></linearGradient><linearGradient id="IconifyId195ad048a32870fdf173280" x1="6.403" x2="6.403" y1="16.087" y2="16.977" gradientUnits="userSpaceOnUse"><stop stop-color="#F59C43"/><stop offset="1" stop-color="#ED8242"/></linearGradient><linearGradient id="IconifyId195ad048a32870fdf173281" x1="16.548" x2="15.831" y1="26.493" y2="26.493" gradientUnits="userSpaceOnUse"><stop stop-color="#FFC953"/><stop offset="1" stop-color="#FAA249"/></linearGradient><linearGradient id="IconifyId195ad048a32870fdf173282" x1="22.845" x2="22.285" y1="22.829" y2="23.356" gradientUnits="userSpaceOnUse"><stop stop-color="#FFE25B"/><stop offset="1" stop-color="#FFBE52"/></linearGradient><linearGradient id="IconifyId195ad048a32870fdf173283" x1="25.713" x2="25.713" y1="17.171" y2="16.532" gradientUnits="userSpaceOnUse"><stop stop-color="#F0B258"/><stop offset="1" stop-color="#F0B258" stop-opacity="0"/></linearGradient><linearGradient id="IconifyId195ad048a32870fdf173284" x1="21.057" x2="22.853" y1="11.734" y2="9.787" gradientUnits="userSpaceOnUse"><stop stop-color="#F0B258"/><stop offset="1" stop-color="#F0B258" stop-opacity="0"/></linearGradient><linearGradient id="IconifyId195ad048a32870fdf173285" x1="16.249" x2="15.586" y1="7.355" y2="7.355" gradientUnits="userSpaceOnUse"><stop stop-color="#FFD257"/><stop offset="1" stop-color="#ECA132"/></linearGradient><linearGradient id="IconifyId195ad048a32870fdf173286" x1="21.087" x2="12.932" y1="14.724" y2="19.733" gradientUnits="userSpaceOnUse"><stop offset=".291" stop-color="#FFCF50"/><stop offset="1" stop-color="#EC9744"/></linearGradient><linearGradient id="IconifyId195ad048a32870fdf173287" x1="20.023" x2="10.139" y1="16.547" y2="20.707" gradientUnits="userSpaceOnUse"><stop offset=".21" stop-color="#EC9744" stop-opacity="0"/><stop offset="1" stop-color="#EC9744"/></linearGradient><radialGradient id="IconifyId195ad048a32870fdf173288" cx="0" cy="0" r="1" gradientTransform="rotate(132.898 -.215 14.337)scale(7.69983 2.55926)" gradientUnits="userSpaceOnUse"><stop stop-color="#DFC7F6"/><stop offset="1" stop-color="#DFC7F6" stop-opacity="0"/></radialGradient><radialGradient id="IconifyId195ad048a32870fdf173289" cx="0" cy="0" r="1" gradientTransform="matrix(-1.37396 6.24911 -1.93452 -.42533 13.552 18.979)" gradientUnits="userSpaceOnUse"><stop stop-color="#C79CB8"/><stop offset="1" stop-color="#C79CB8" stop-opacity="0"/></radialGradient><radialGradient id="IconifyId195ad048a32870fdf173290" cx="0" cy="0" r="1" gradientTransform="matrix(-.53036 .56157 -.56156 -.53036 11.788 7.313)" gradientUnits="userSpaceOnUse"><stop stop-color="#FFC255"/><stop offset="1" stop-color="#FC9B32"/></radialGradient><radialGradient id="IconifyId195ad048a32870fdf173291" cx="0" cy="0" r="1" gradientTransform="matrix(-.53037 .56156 -.56155 -.53037 6.788 12.313)" gradientUnits="userSpaceOnUse"><stop stop-color="#FFB052"/><stop offset="1" stop-color="#FA8A3D"/></radialGradient><radialGradient id="IconifyId195ad048a32870fdf173292" cx="0" cy="0" r="1" gradientTransform="matrix(-.53037 .56156 -.56155 -.53037 6.788 20.313)" gradientUnits="userSpaceOnUse"><stop stop-color="#FFB052"/><stop offset="1" stop-color="#FA8A3D"/></radialGradient><radialGradient id="IconifyId195ad048a32870fdf173293" cx="0" cy="0" r="1" gradientTransform="matrix(-.53036 .56157 -.56156 -.53036 12.767 25.313)" gradientUnits="userSpaceOnUse"><stop stop-color="#FFBD55"/><stop offset="1" stop-color="#FF964F"/></radialGradient><radialGradient id="IconifyId195ad048a32870fdf173294" cx="0" cy="0" r="1" gradientTransform="matrix(-.53039 .56156 -.56155 -.53039 19.788 25.313)" gradientUnits="userSpaceOnUse"><stop stop-color="#FFD556"/><stop offset="1" stop-color="#FFAE4E"/></radialGradient><radialGradient id="IconifyId195ad048a32870fdf173295" cx="0" cy="0" r="1" gradientTransform="matrix(-.53037 .56156 -.56155 -.53037 25.788 20.313)" gradientUnits="userSpaceOnUse"><stop stop-color="#FFEB5F"/><stop offset="1" stop-color="#FFC23E"/></radialGradient><radialGradient id="IconifyId195ad048a32870fdf173296" cx="0" cy="0" r="1" gradientTransform="matrix(-1.60249 0 0 -.45834 27.628 16.532)" gradientUnits="userSpaceOnUse"><stop stop-color="#FFED61"/><stop offset="1" stop-color="#FFCF32"/></radialGradient><radialGradient id="IconifyId195ad048a32870fdf173297" cx="0" cy="0" r="1" gradientTransform="matrix(-.53037 .56156 -.56155 -.53037 25.818 12.313)" gradientUnits="userSpaceOnUse"><stop stop-color="#FFEC61"/><stop offset="1" stop-color="#FFC744"/></radialGradient><radialGradient id="IconifyId195ad048a32870fdf173298" cx="0" cy="0" r="1" gradientTransform="matrix(-2.1406 2.32814 -.66383 -.61036 24.51 7.89)" gradientUnits="userSpaceOnUse"><stop stop-color="#FFED61"/><stop offset="1" stop-color="#FFCF32"/></radialGradient><radialGradient id="IconifyId195ad048a32870fdf173299" cx="0" cy="0" r="1" gradientTransform="matrix(-.53037 .56156 -.56155 -.53037 20.788 7.313)" gradientUnits="userSpaceOnUse"><stop stop-color="#FFDC5C"/><stop offset="1" stop-color="#FFB737"/></radialGradient><filter id="IconifyId195ad048a32870fdf173300" width="7.055" height="27.561" x="23.58" y="1.656" color-interpolation-filters="sRGB" filterUnits="userSpaceOnUse"><feFlood flood-opacity="0" result="BackgroundImageFix"/><feBlend in="SourceGraphic" in2="BackgroundImageFix" result="shape"/><feGaussianBlur result="effect1_foregroundBlur_18_372" stdDeviation="1.25"/></filter><filter id="IconifyId195ad048a32870fdf173301" width="15.144" height="14.844" x="8.215" y="9.125" color-interpolation-filters="sRGB" filterUnits="userSpaceOnUse"><feFlood flood-opacity="0" result="BackgroundImageFix"/><feBlend in="SourceGraphic" in2="BackgroundImageFix" result="shape"/><feColorMatrix in="SourceAlpha" result="hardAlpha" values="0 0 0 0 0 0 0 0 0 0 0 0 0 0 0 0 0 0 127 0"/><feOffset dx="-.3"/><feGaussianBlur stdDeviation=".25"/><feComposite in2="hardAlpha" k2="-1" k3="1" operator="arithmetic"/><feColorMatrix values="0 0 0 0 1 0 0 0 0 0.905882 0 0 0 0 0.364706 0 0 0 1 0"/><feBlend in2="shape" result="effect1_innerShadow_18_372"/></filter><filter id="IconifyId195ad048a32870fdf173302" width="15.094" height="15.094" x="8.515" y="8.875" color-interpolation-filters="sRGB" filterUnits="userSpaceOnUse"><feFlood flood-opacity="0" result="BackgroundImageFix"/><feBlend in="SourceGraphic" in2="BackgroundImageFix" result="shape"/><feColorMatrix in="SourceAlpha" result="hardAlpha" values="0 0 0 0 0 0 0 0 0 0 0 0 0 0 0 0 0 0 127 0"/><feOffset dx=".25" dy="-.25"/><feGaussianBlur stdDeviation=".25"/><feComposite in2="hardAlpha" k2="-1" k3="1" operator="arithmetic"/><feColorMatrix values="0 0 0 0 0.882353 0 0 0 0 0.501961 0 0 0 0 0.282353 0 0 0 1 0"/><feBlend in2="shape" result="effect1_innerShadow_18_372"/></filter><filter id="IconifyId195ad048a32870fdf173303" width="5.425" height="4.297" x="18.237" y="15.807" color-interpolation-filters="sRGB" filterUnits="userSpaceOnUse"><feFlood flood-opacity="0" result="BackgroundImageFix"/><feBlend in="SourceGraphic" in2="BackgroundImageFix" result="shape"/><feGaussianBlur result="effect1_foregroundBlur_18_372" stdDeviation=".3"/></filter><filter id="IconifyId195ad048a32870fdf173304" width="2.444" height="6.162" x="17.05" y="9.053" color-interpolation-filters="sRGB" filterUnits="userSpaceOnUse"><feFlood flood-opacity="0" result="BackgroundImageFix"/><feBlend in="SourceGraphic" in2="BackgroundImageFix" result="shape"/><feGaussianBlur result="effect1_foregroundBlur_18_372" stdDeviation=".3"/></filter></defs></g></svg>