<svg xmlns="http://www.w3.org/2000/svg" width="1em" height="1em" viewBox="0 0 512 512"><defs><linearGradient id="IconifyId195ad048a32870fdf1329" x1="99.5" x2="232.6" y1="30.7" y2="261.4" gradientUnits="userSpaceOnUse"><stop offset="0" stop-color="#f3f7fe"/><stop offset=".5" stop-color="#f3f7fe"/><stop offset="1" stop-color="#deeafb"/></linearGradient><linearGradient id="IconifyId195ad048a32870fdf1330" x1="1314.8" x2="1324.2" y1="-739.9" y2="-715.3" gradientTransform="rotate(-9 7682.04 6929.539)" gradientUnits="userSpaceOnUse"><stop offset="0" stop-color="#0b65ed"/><stop offset=".5" stop-color="#0a5ad4"/><stop offset="1" stop-color="#0950bc"/></linearGradient><linearGradient id="IconifyId195ad048a32870fdf1331" x1="1370.1" x2="1379.5" y1="-731.1" y2="-706.5" href="#IconifyId195ad048a32870fdf1330"/><linearGradient id="IconifyId195ad048a32870fdf1332" x1="1425.4" x2="1434.9" y1="-722.4" y2="-697.8" href="#IconifyId195ad048a32870fdf1330"/><symbol id="IconifyId195ad048a32870fdf1333" viewBox="0 0 350 222"><path fill="url(#IconifyId195ad048a32870fdf1329)" stroke="#e6effc" stroke-miterlimit="10" stroke-width="6" d="m291 107l-2.5.1A83.9 83.9 0 0 0 135.6 43A56 56 0 0 0 51 91a56.6 56.6 0 0 0 .8 9A60 60 0 0 0 63 219l4-.2v.2h224a56 56 0 0 0 0-112Z"/></symbol></defs><use width="350" height="222" href="#IconifyId195ad048a32870fdf1333" transform="translate(81 145)"/><path fill="url(#IconifyId195ad048a32870fdf1330)" stroke="#0a5ad4" stroke-miterlimit="10" d="M200 376a8 8 0 0 1-8-8v-12a8 8 0 0 1 16 0v12a8 8 0 0 1-8 8Z" opacity="0"><animateTransform id="IconifyId195ad048a32870fdf1334" additive="sum" attributeName="transform" begin="0s; x1.end+1s" dur="1s" keyTimes="0; .25; 1" type="translate" values="0 -32; 0 -32; 0 120;"/><animate id="IconifyId195ad048a32870fdf1335" attributeName="opacity" begin="0s; y1.end+1s" dur="1s" keyTimes="0; .25; 1" values="0; 1; 0"/></path><path fill="url(#IconifyId195ad048a32870fdf1331)" stroke="#0a5ad4" stroke-miterlimit="10" d="M256 376a8 8 0 0 1-8-8v-12a8 8 0 0 1 16 0v12a8 8 0 0 1-8 8Z" opacity="0"><animateTransform id="IconifyId195ad048a32870fdf1336" additive="sum" attributeName="transform" begin="1.34s; x2.end+1s" dur="1s" keyTimes="0; .25; 1" type="translate" values="0 -32; 0 -32; 0 120;"/><animate id="IconifyId195ad048a32870fdf1337" attributeName="opacity" begin="1.34s; y2.end+1s" dur="1s" keyTimes="0; .25; 1" values="0; 1; 0"/></path><path fill="url(#IconifyId195ad048a32870fdf1332)" stroke="#0a5ad4" stroke-miterlimit="10" d="M312 376a8 8 0 0 1-8-8v-12a8 8 0 0 1 16 0v12a8 8 0 0 1-8 8Z" opacity="0"><animateTransform id="IconifyId195ad048a32870fdf1338" additive="sum" attributeName="transform" begin=".67s; x3.end+1s" dur="1s" keyTimes="0; .25; 1" type="translate" values="0 -32; 0 -32; 0 120;"/><animate id="IconifyId195ad048a32870fdf1339" attributeName="opacity" begin=".67s; y3.end+1s" dur="1s" keyTimes="0; .25; 1" values="0; 1; 0"/></path></svg>