<svg xmlns="http://www.w3.org/2000/svg" width="1em" height="1em" viewBox="0 0 512 512"><defs><linearGradient id="IconifyId195ad048a32870fdf1365" x1="6" x2="18" y1="169.6" y2="190.4" gradientUnits="userSpaceOnUse"><stop offset="0" stop-color="#fde68a"/><stop offset=".5" stop-color="#fde68a"/><stop offset="1" stop-color="#fde171"/></linearGradient><linearGradient id="IconifyId195ad048a32870fdf1366" x1="66" x2="78" y1="169.6" y2="190.4" href="#IconifyId195ad048a32870fdf1365"/><linearGradient id="IconifyId195ad048a32870fdf1367" x1="38" x2="50" y1="137.6" y2="158.4" href="#IconifyId195ad048a32870fdf1365"/><linearGradient id="IconifyId195ad048a32870fdf1368" x1="98" x2="110" y1="137.6" y2="158.4" href="#IconifyId195ad048a32870fdf1365"/><linearGradient id="IconifyId195ad048a32870fdf1369" x1="70" x2="82" y1="101.6" y2="122.4" href="#IconifyId195ad048a32870fdf1365"/><linearGradient id="IconifyId195ad048a32870fdf1370" x1="130" x2="142" y1="101.6" y2="122.4" href="#IconifyId195ad048a32870fdf1365"/><linearGradient id="IconifyId195ad048a32870fdf1371" x1="102" x2="114" y1="69.6" y2="90.4" href="#IconifyId195ad048a32870fdf1365"/><linearGradient id="IconifyId195ad048a32870fdf1372" x1="162" x2="174" y1="69.6" y2="90.4" href="#IconifyId195ad048a32870fdf1365"/><linearGradient id="IconifyId195ad048a32870fdf1373" x1="134" x2="146" y1="33.6" y2="54.4" href="#IconifyId195ad048a32870fdf1365"/><linearGradient id="IconifyId195ad048a32870fdf1374" x1="194" x2="206" y1="33.6" y2="54.4" href="#IconifyId195ad048a32870fdf1365"/><linearGradient id="IconifyId195ad048a32870fdf1375" x1="166" x2="178" y1="1.6" y2="22.4" href="#IconifyId195ad048a32870fdf1365"/><linearGradient id="IconifyId195ad048a32870fdf1376" x1="226" x2="238" y1="1.6" y2="22.4" href="#IconifyId195ad048a32870fdf1365"/><symbol id="IconifyId195ad048a32870fdf1377" viewBox="0 0 359 231"><path fill="none" stroke="#e2e8f0" stroke-linecap="round" stroke-linejoin="round" stroke-width="15" d="M295.5 223.5a56 56 0 0 0 0-112l-2.5.1a83.9 83.9 0 0 0-153-64.2a56 56 0 0 0-84.6 48.1a56.6 56.6 0 0 0 .8 9a60 60 0 0 0 11.2 119"/></symbol><symbol id="IconifyId195ad048a32870fdf1378" viewBox="0 0 244 192"><circle cx="12" cy="180" r="12" fill="url(#IconifyId195ad048a32870fdf1365)"><animate attributeName="opacity" begin="-1s" dur=".67s" repeatCount="indefinite" values=".5; 1; .5"/></circle><circle cx="72" cy="180" r="12" fill="url(#IconifyId195ad048a32870fdf1366)"><animate attributeName="opacity" begin="-1.08s" dur=".67s" repeatCount="indefinite" values=".5; 1; .5"/></circle><circle cx="44" cy="148" r="12" fill="url(#IconifyId195ad048a32870fdf1367)"><animate attributeName="opacity" begin="-1.16s" dur=".67s" repeatCount="indefinite" values=".5; 1; .5"/></circle><circle cx="104" cy="148" r="12" fill="url(#IconifyId195ad048a32870fdf1368)"><animate attributeName="opacity" begin="-1.24s" dur=".67s" repeatCount="indefinite" values=".5; 1; .5"/></circle><circle cx="76" cy="112" r="12" fill="url(#IconifyId195ad048a32870fdf1369)"><animate attributeName="opacity" begin="-1.32s" dur=".67s" repeatCount="indefinite" values=".5; 1; .5"/></circle><circle cx="136" cy="112" r="12" fill="url(#IconifyId195ad048a32870fdf1370)"><animate attributeName="opacity" begin="-1.40s" dur=".67s" repeatCount="indefinite" values=".5; 1; .5"/></circle><circle cx="108" cy="80" r="12" fill="url(#IconifyId195ad048a32870fdf1371)"><animate attributeName="opacity" begin="-1.48s" dur=".67s" repeatCount="indefinite" values=".5; 1; .5"/></circle><circle cx="168" cy="80" r="12" fill="url(#IconifyId195ad048a32870fdf1372)"><animate attributeName="opacity" begin="-1.56s" dur=".67s" repeatCount="indefinite" values=".5; 1; .5"/></circle><circle cx="140" cy="44" r="12" fill="url(#IconifyId195ad048a32870fdf1373)"><animate attributeName="opacity" begin="-1.64s" dur=".67s" repeatCount="indefinite" values=".5; 1; .5"/></circle><circle cx="200" cy="44" r="12" fill="url(#IconifyId195ad048a32870fdf1374)"><animate attributeName="opacity" begin="-1.72s" dur=".67s" repeatCount="indefinite" values=".5; 1; .5"/></circle><circle cx="172" cy="12" r="12" fill="url(#IconifyId195ad048a32870fdf1375)"><animate attributeName="opacity" begin="-1.80s" dur=".67s" repeatCount="indefinite" values=".5; 1; .5"/></circle><circle cx="232" cy="12" r="12" fill="url(#IconifyId195ad048a32870fdf1376)"><animate attributeName="opacity" begin="-1.88s" dur=".67s" repeatCount="indefinite" values=".5; 1; .5"/></circle></symbol><clipPath id="IconifyId195ad048a32870fdf1379"><path fill="none" d="M0 0h512L0 512V0z"/></clipPath></defs><g clip-path="url(#IconifyId195ad048a32870fdf1379)"><use width="359" height="231" href="#IconifyId195ad048a32870fdf1377" transform="translate(80.5 140.5)"/></g><use width="244" height="192" href="#IconifyId195ad048a32870fdf1378" transform="translate(192 182)"/></svg>