<svg xmlns="http://www.w3.org/2000/svg" width="1em" height="1em" viewBox="0 0 512 512"><defs><linearGradient id="IconifyId195ad048a32870fdf15276" x1="99.5" x2="232.6" y1="30.7" y2="261.4" gradientUnits="userSpaceOnUse"><stop offset="0" stop-color="#f3f7fe"/><stop offset=".5" stop-color="#f3f7fe"/><stop offset="1" stop-color="#deeafb"/></linearGradient><linearGradient id="IconifyId195ad048a32870fdf15277" x1="6.5" x2="18.5" y1="2.1" y2="22.9" gradientUnits="userSpaceOnUse"><stop offset="0" stop-color="#86c3db"/><stop offset=".5" stop-color="#86c3db"/><stop offset="1" stop-color="#5eafcf"/></linearGradient><linearGradient id="IconifyId195ad048a32870fdf15278" x1="62.5" x2="74.5" y1="2.1" y2="22.9" href="#IconifyId195ad048a32870fdf15277"/><linearGradient id="IconifyId195ad048a32870fdf15279" x1="118.5" x2="130.5" y1="2.1" y2="22.9" href="#IconifyId195ad048a32870fdf15277"/><linearGradient id="IconifyId195ad048a32870fdf15280" x1="34.7" x2="119.2" y1="18.6" y2="165" href="#IconifyId195ad048a32870fdf15277"/><symbol id="IconifyId195ad048a32870fdf15281" viewBox="0 0 172 172"><path fill="url(#IconifyId195ad048a32870fdf15280)" stroke="#72b9d5" stroke-linecap="round" stroke-linejoin="round" stroke-width="4" d="M160.6 107.4a84.8 84.8 0 0 1-85.4-84.3A83.3 83.3 0 0 1 78 2A84.7 84.7 0 0 0 2 85.7A84.8 84.8 0 0 0 87.4 170a85.2 85.2 0 0 0 82.6-63.1a88 88 0 0 1-9.4.5Z"><animateTransform additive="sum" attributeName="transform" dur="6s" repeatCount="indefinite" type="rotate" values="-15 86 86; 9 86 86; -15 86 86"/></path></symbol><symbol id="IconifyId195ad048a32870fdf15282" viewBox="0 0 350 222"><path fill="url(#IconifyId195ad048a32870fdf15276)" stroke="#e6effc" stroke-miterlimit="10" stroke-width="6" d="m291 107l-2.5.1A83.9 83.9 0 0 0 135.6 43A56 56 0 0 0 51 91a56.6 56.6 0 0 0 .8 9A60 60 0 0 0 63 219l4-.2v.2h224a56 56 0 0 0 0-112Z"/></symbol><symbol id="IconifyId195ad048a32870fdf15283" viewBox="0 0 351 246"><use width="172" height="172" href="#IconifyId195ad048a32870fdf15281"/><use width="350" height="222" href="#IconifyId195ad048a32870fdf15282" transform="translate(1 24)"/></symbol><symbol id="IconifyId195ad048a32870fdf15284" viewBox="0 0 137 25"><path fill="url(#IconifyId195ad048a32870fdf15278)" stroke="#86c3db" stroke-miterlimit="10" d="M12.5.5a12 12 0 1 0 12 12a12 12 0 0 0-12-12Z" opacity="0"><animateTransform id="IconifyId195ad048a32870fdf15285" additive="sum" attributeName="transform" begin="0s; x1.end+.42s" dur=".58s" keyTimes="0; .71; 1" type="translate" values="0 -46; 0 86; -18 74"/><animate id="IconifyId195ad048a32870fdf15286" attributeName="opacity" begin="0s; y1.end+.42s" dur=".58s" keyTimes="0; .14; .71; 1" values="0; 1; 1; 0"/></path><path fill="url(#IconifyId195ad048a32870fdf15279)" stroke="#86c3db" stroke-miterlimit="10" d="M68.5.5a12 12 0 1 0 12 12a12 12 0 0 0-12-12Z" opacity="0"><animateTransform id="IconifyId195ad048a32870fdf15287" additive="sum" attributeName="transform" begin=".67s; x2.end+.42s" dur=".58s" keyTimes="0; .71; 1" type="translate" values="0 -46; 0 86; 0 74"/><animate id="IconifyId195ad048a32870fdf15288" attributeName="opacity" begin=".67s; y2.end+.42s" dur=".58s" keyTimes="0; .14; .71; 1" values="0; 1; 1; 0"/></path><path fill="url(#IconifyId195ad048a32870fdf15280)" stroke="#86c3db" stroke-miterlimit="10" d="M124.5.5a12 12 0 1 0 12 12a12 12 0 0 0-12-12Z" opacity="0"><animateTransform id="IconifyId195ad048a32870fdf15289" additive="sum" attributeName="transform" begin=".33s; x3.end+.42s" dur=".58s" keyTimes="0; .71; 1" type="translate" values="0 -46; 0 86; 18 74"/><animate id="IconifyId195ad048a32870fdf15290" attributeName="opacity" begin=".33s; y3.end+.42s" dur=".58s" keyTimes="0; .14; .71; 1" values="0; 1; 1; 0"/></path></symbol></defs><use width="351" height="246" href="#IconifyId195ad048a32870fdf15283" transform="translate(80 121)"/><use width="137" height="25" href="#IconifyId195ad048a32870fdf15284" transform="translate(187.5 349.5)"/></svg>