<svg xmlns="http://www.w3.org/2000/svg" width="1em" height="1em" viewBox="0 0 512 512"><defs><linearGradient id="IconifyId195ad048a32870fdf15184" x1="99.5" x2="232.6" y1="30.7" y2="261.4" gradientUnits="userSpaceOnUse"><stop offset="0" stop-color="#f3f7fe"/><stop offset=".5" stop-color="#f3f7fe"/><stop offset="1" stop-color="#deeafb"/></linearGradient><linearGradient id="IconifyId195ad048a32870fdf15185" x1="96" x2="168" y1="-2.4" y2="122.3" gradientUnits="userSpaceOnUse"><stop offset="0" stop-color="#d4d7dd"/><stop offset=".5" stop-color="#d4d7dd"/><stop offset="1" stop-color="#bec1c6"/></linearGradient><linearGradient id="IconifyId195ad048a32870fdf15186" x2="168" y1="-50.4" y2="74.3" href="#IconifyId195ad048a32870fdf15185"/><linearGradient id="IconifyId195ad048a32870fdf15187" x1="34.7" x2="119.2" y1="18.6" y2="165" gradientUnits="userSpaceOnUse"><stop offset="0" stop-color="#86c3db"/><stop offset=".5" stop-color="#86c3db"/><stop offset="1" stop-color="#5eafcf"/></linearGradient><symbol id="IconifyId195ad048a32870fdf15188" viewBox="0 0 172 172"><path fill="url(#IconifyId195ad048a32870fdf15187)" stroke="#72b9d5" stroke-linecap="round" stroke-linejoin="round" stroke-width="4" d="M160.6 107.4a84.8 84.8 0 0 1-85.4-84.3A83.3 83.3 0 0 1 78 2A84.7 84.7 0 0 0 2 85.7A84.8 84.8 0 0 0 87.4 170a85.2 85.2 0 0 0 82.6-63.1a88 88 0 0 1-9.4.5Z"><animateTransform additive="sum" attributeName="transform" dur="6s" repeatCount="indefinite" type="rotate" values="-15 86 86; 9 86 86; -15 86 86"/></path></symbol><symbol id="IconifyId195ad048a32870fdf15189" viewBox="0 0 350 222"><path fill="url(#IconifyId195ad048a32870fdf15184)" stroke="#e6effc" stroke-miterlimit="10" stroke-width="6" d="m291 107l-2.5.1A83.9 83.9 0 0 0 135.6 43A56 56 0 0 0 51 91a56.6 56.6 0 0 0 .8 9A60 60 0 0 0 63 219l4-.2v.2h224a56 56 0 0 0 0-112Z"/></symbol><symbol id="IconifyId195ad048a32870fdf15190" viewBox="0 0 351 246"><use width="172" height="172" href="#IconifyId195ad048a32870fdf15188"/><use width="350" height="222" href="#IconifyId195ad048a32870fdf15189" transform="translate(1 24)"/></symbol><symbol id="IconifyId195ad048a32870fdf15191" viewBox="0 0 264 72"><path fill="none" stroke="url(#IconifyId195ad048a32870fdf15185)" stroke-linecap="round" stroke-miterlimit="10" stroke-width="24" d="M12 60h240"><animateTransform additive="sum" attributeName="transform" dur="6s" repeatCount="indefinite" type="translate" values="-24 0; 24 0; -24 0"/></path><path fill="none" stroke="url(#IconifyId195ad048a32870fdf15186)" stroke-linecap="round" stroke-miterlimit="10" stroke-width="24" d="M12 12h240"><animateTransform additive="sum" attributeName="transform" dur="6s" repeatCount="indefinite" type="translate" values="24 0; -24 0; 24 0"/></path></symbol></defs><use width="351" height="246" href="#IconifyId195ad048a32870fdf15190" transform="translate(80 121)"/><use width="264" height="72" href="#IconifyId195ad048a32870fdf15191" transform="translate(124 402)"/></svg>