<svg xmlns="http://www.w3.org/2000/svg" width="1em" height="1em" viewBox="0 0 24 24"><g fill="none"><path fill="url(#IconifyId195ad048a32870fdf19133)" fill-rule="evenodd" d="M2 8.667h3.195A1.833 1.833 0 0 1 7.028 10.5a1.267 1.267 0 0 1-1.266 1.267h-.053A1.533 1.533 0 0 1 7.238 13.3a2.033 2.033 0 0 1-2.033 2.033H2zm1.429.952h1.428a.952.952 0 0 1 0 1.905H3.43zm0 2.857h1.428a.952.952 0 1 1 0 1.905H3.43z" clip-rule="evenodd"/><path fill="url(#IconifyId195ad048a32870fdf19134)" d="M7.714 8.667h1.924l4.743 6.666h-1.924z"/><path fill="url(#IconifyId195ad048a32870fdf19135)" d="M13.905 8.667h-1.924L7.24 15.333h1.923zm1.429 0h1.923L22 15.333h-1.924z"/><path fill="url(#IconifyId195ad048a32870fdf19136)" d="M21.524 8.667H19.6l-4.743 6.666h1.924z"/><defs><linearGradient id="IconifyId195ad048a32870fdf19133" x1="21.999" x2="2.013" y1="11.821" y2="11.286" gradientUnits="userSpaceOnUse"><stop stop-color="#59B5F6"/><stop offset="1" stop-color="#1648C7"/></linearGradient><linearGradient id="IconifyId195ad048a32870fdf19134" x1="22" x2="2.013" y1="11.821" y2="11.286" gradientUnits="userSpaceOnUse"><stop stop-color="#59B5F6"/><stop offset="1" stop-color="#1648C7"/></linearGradient><linearGradient id="IconifyId195ad048a32870fdf19135" x1="22" x2="2.013" y1="11.821" y2="11.286" gradientUnits="userSpaceOnUse"><stop stop-color="#59B5F6"/><stop offset="1" stop-color="#1648C7"/></linearGradient><linearGradient id="IconifyId195ad048a32870fdf19136" x1="22" x2="2.013" y1="11.821" y2="11.286" gradientUnits="userSpaceOnUse"><stop stop-color="#59B5F6"/><stop offset="1" stop-color="#1648C7"/></linearGradient></defs></g></svg>