<svg xmlns="http://www.w3.org/2000/svg" width="1em" height="1em" viewBox="0 0 24 24"><mask id="IconifyId195ac99e25a590abd50753" width="5" height="5" x="13" y="3" maskUnits="userSpaceOnUse" style="mask-type:alpha"><path fill="#fff" d="M13.892 3v4.098l3.554-2.046z"/></mask><mask id="IconifyId195ac99e25a590abd50754" width="4" height="5" x="17" y="5" maskUnits="userSpaceOnUse" style="mask-type:alpha"><path fill="#fff" d="M17.446 5.052v4.097L21 7.098z" opacity=".9"/></mask><mask id="IconifyId195ac99e25a590abd50755" width="5" height="5" x="13" y="7" maskUnits="userSpaceOnUse" style="mask-type:alpha"><path fill="#fff" d="M13.892 7.097v4.098l3.554-2.046z" opacity=".8"/></mask><mask id="IconifyId195ac99e25a590abd50756" width="4" height="5" x="17" y="9" maskUnits="userSpaceOnUse" style="mask-type:alpha"><path fill="#fff" d="M17.446 9.15v4.097L21 11.195z" opacity=".8"/></mask><mask id="IconifyId195ac99e25a590abd50757" width="5" height="5" x="13" y="11" maskUnits="userSpaceOnUse" style="mask-type:alpha"><path fill="#fff" d="M13.892 11.195v4.098l3.554-2.046z" opacity=".8"/></mask><mask id="IconifyId195ac99e25a590abd50758" width="4" height="5" x="17" y="13" maskUnits="userSpaceOnUse" style="mask-type:alpha"><path fill="#fff" d="M17.446 13.246v4.098L21 15.292z"/></mask><mask id="IconifyId195ac99e25a590abd50759" width="5" height="6" x="4" y="6" maskUnits="userSpaceOnUse" style="mask-type:alpha"><path fill="#fff" d="M4.704 6.96v4.097l3.554-2.052z" opacity=".4"/></mask><mask id="IconifyId195ac99e25a590abd50760" width="4" height="5" x="9" y="8" maskUnits="userSpaceOnUse" style="mask-type:alpha"><path fill="#fff" d="M9.19 8.483v4.097l3.548-2.046z" opacity=".2"/></mask><mask id="IconifyId195ac99e25a590abd50761" width="5" height="5" x="6" y="11" maskUnits="userSpaceOnUse" style="mask-type:alpha"><path fill="#fff" d="M6.554 11.075v4.097l3.554-2.052z" opacity=".3"/></mask><mask id="IconifyId195ac99e25a590abd50762" width="5" height="5" x="8" y="14" maskUnits="userSpaceOnUse" style="mask-type:alpha"><path fill="#fff" d="M8.896 14.166v4.098l3.549-2.052z" opacity=".9"/></mask><mask id="IconifyId195ac99e25a590abd50763" width="5" height="6" x="13" y="15" maskUnits="userSpaceOnUse" style="mask-type:alpha"><path fill="#fff" d="M13.863 15.93v4.097l3.548-2.052z" opacity=".7"/></mask><mask id="IconifyId195ac99e25a590abd50764" width="5" height="5" x="9" y="6" maskUnits="userSpaceOnUse" style="mask-type:alpha"><path fill="#fff" d="M9.78 6.46v4.097l3.549-2.046z" opacity=".9"/></mask><mask id="IconifyId195ac99e25a590abd50765" width="4" height="5" x="10" y="3" maskUnits="userSpaceOnUse" style="mask-type:alpha"><path fill="#fff" d="M13.892 3v4.098l-3.555-2.046z" opacity=".8"/></mask><mask id="IconifyId195ac99e25a590abd50766" width="4" height="5" x="6" y="4" maskUnits="userSpaceOnUse" style="mask-type:alpha"><path fill="#fff" d="M9.781 4.741v4.097L6.227 6.787z" opacity=".6"/></mask><mask id="IconifyId195ac99e25a590abd50767" width="5" height="5" x="9" y="6" maskUnits="userSpaceOnUse" style="mask-type:alpha"><path fill="#fff" d="M13.335 6.77v4.097L9.78 8.816z" opacity=".6"/></mask><mask id="IconifyId195ac99e25a590abd50768" width="5" height="5" x="5" y="8" maskUnits="userSpaceOnUse" style="mask-type:alpha"><path fill="#fff" d="M9.173 8.483v4.097l-3.555-2.046z" opacity=".95"/></mask><mask id="IconifyId195ac99e25a590abd50769" width="4" height="5" x="10" y="11" maskUnits="userSpaceOnUse" style="mask-type:alpha"><path fill="#fff" d="M13.892 11.195v4.098l-3.549-2.046z" opacity=".6"/></mask><mask id="IconifyId195ac99e25a590abd50770" width="4" height="5" x="3" y="12" maskUnits="userSpaceOnUse" style="mask-type:alpha"><path fill="#fff" d="M6.554 12.15v4.097L3 14.195z" opacity=".55"/></mask><mask id="IconifyId195ac99e25a590abd50771" width="4" height="5" x="17" y="7" maskUnits="userSpaceOnUse" style="mask-type:alpha"><path fill="#fff" d="M21 7.097v4.098l-3.555-2.046z"/></mask><mask id="IconifyId195ac99e25a590abd50772" width="5" height="5" x="13" y="9" maskUnits="userSpaceOnUse" style="mask-type:alpha"><path fill="#fff" d="M17.446 9.15v4.097l-3.555-2.052z" opacity=".95"/></mask><mask id="IconifyId195ac99e25a590abd50773" width="4" height="5" x="17" y="11" maskUnits="userSpaceOnUse" style="mask-type:alpha"><path fill="#fff" d="M21 11.195v4.098l-3.555-2.046z" opacity=".9"/></mask><mask id="IconifyId195ac99e25a590abd50774" width="5" height="5" x="13" y="13" maskUnits="userSpaceOnUse" style="mask-type:alpha"><path fill="#fff" d="M17.446 13.246v4.098l-3.555-2.052z" opacity=".7"/></mask><mask id="IconifyId195ac99e25a590abd50775" width="5" height="6" x="9" y="14" maskUnits="userSpaceOnUse" style="mask-type:alpha"><path fill="#fff" d="M13.105 14.954v4.097l-3.554-2.046z" opacity=".4"/></mask><mask id="IconifyId195ac99e25a590abd50776" width="5" height="5" x="13" y="5" maskUnits="userSpaceOnUse" style="mask-type:alpha"><path fill="#fff" d="M17.446 5.052v4.097L13.89 7.098z"/></mask><g fill="none"><g mask="url(#IconifyId195ac99e25a590abd50753)"><path fill="url(#IconifyId195ac99e25a590abd50777)" d="M22.095 2.045H2.726v19.09h19.369z"/></g><g mask="url(#IconifyId195ac99e25a590abd50754)"><path fill="url(#IconifyId195ac99e25a590abd50778)" d="M22.095 2.045H2.726v19.09h19.369z"/></g><g mask="url(#IconifyId195ac99e25a590abd50755)"><path fill="url(#IconifyId195ac99e25a590abd50779)" d="M22.095 2.045H2.726v19.09h19.369z"/></g><g mask="url(#IconifyId195ac99e25a590abd50756)"><path fill="url(#IconifyId195ac99e25a590abd50780)" d="M22.095 2.045H2.726v19.09h19.369z"/></g><g mask="url(#IconifyId195ac99e25a590abd50757)"><path fill="url(#IconifyId195ac99e25a590abd50781)" d="M22.095 2.045H2.726v19.09h19.369z"/></g><g mask="url(#IconifyId195ac99e25a590abd50758)"><path fill="url(#IconifyId195ac99e25a590abd50782)" d="M22.095 2.045H2.726v19.09h19.369z"/></g><g mask="url(#IconifyId195ac99e25a590abd50759)"><path fill="url(#IconifyId195ac99e25a590abd50783)" d="M22.095 2.045H2.726v19.09h19.369z"/></g><g mask="url(#IconifyId195ac99e25a590abd50760)"><path fill="url(#IconifyId195ac99e25a590abd50784)" d="M22.095 2.045H2.726v19.09h19.369z"/></g><g mask="url(#IconifyId195ac99e25a590abd50761)"><path fill="url(#IconifyId195ac99e25a590abd50785)" d="M22.095 2.045H2.726v19.09h19.369z"/></g><g mask="url(#IconifyId195ac99e25a590abd50762)"><path fill="url(#IconifyId195ac99e25a590abd50786)" d="M22.095 2.045H2.726v19.09h19.369z"/></g><g mask="url(#IconifyId195ac99e25a590abd50763)"><path fill="url(#IconifyId195ac99e25a590abd50787)" d="M22.095 2.045H2.726v19.09h19.369z"/></g><g mask="url(#IconifyId195ac99e25a590abd50764)"><path fill="url(#IconifyId195ac99e25a590abd50788)" d="M22.095 2.045H2.726v19.09h19.369z"/></g><g mask="url(#IconifyId195ac99e25a590abd50765)"><path fill="url(#IconifyId195ac99e25a590abd50789)" d="M22.095 2.045H2.726v19.09h19.369z"/></g><g mask="url(#IconifyId195ac99e25a590abd50766)"><path fill="url(#IconifyId195ac99e25a590abd50790)" d="M22.095 2.045H2.726v19.09h19.369z"/></g><g mask="url(#IconifyId195ac99e25a590abd50767)"><path fill="url(#IconifyId195ac99e25a590abd50791)" d="M22.095 2.045H2.726v19.09h19.369z"/></g><g mask="url(#IconifyId195ac99e25a590abd50768)"><path fill="url(#IconifyId195ac99e25a590abd50792)" d="M22.095 2.045H2.726v19.09h19.369z"/></g><g mask="url(#IconifyId195ac99e25a590abd50769)"><path fill="url(#IconifyId195ac99e25a590abd50793)" d="M22.095 2.045H2.726v19.09h19.369z"/></g><g mask="url(#IconifyId195ac99e25a590abd50770)"><path fill="url(#IconifyId195ac99e25a590abd50794)" d="M22.095 2.045H2.726v19.09h19.369z"/></g><g mask="url(#IconifyId195ac99e25a590abd50771)"><path fill="url(#IconifyId195ac99e25a590abd50795)" d="M22.095 2.045H2.726v19.09h19.369z"/></g><g mask="url(#IconifyId195ac99e25a590abd50772)"><path fill="url(#IconifyId195ac99e25a590abd50796)" d="M22.095 2.045H2.726v19.09h19.369z"/></g><g mask="url(#IconifyId195ac99e25a590abd50773)"><path fill="url(#IconifyId195ac99e25a590abd50797)" d="M22.095 2.045H2.726v19.09h19.369z"/></g><g mask="url(#IconifyId195ac99e25a590abd50774)"><path fill="url(#IconifyId195ac99e25a590abd50798)" d="M22.095 2.045H2.726v19.09h19.369z"/></g><g mask="url(#IconifyId195ac99e25a590abd50775)"><path fill="url(#IconifyId195ac99e25a590abd50799)" d="M22.095 2.045H2.726v19.09h19.369z"/></g><g mask="url(#IconifyId195ac99e25a590abd50776)"><path fill="url(#IconifyId195ac99e25a590abd50800)" d="M22.095 2.045H2.726v19.09h19.369z"/></g><defs><linearGradient id="IconifyId195ac99e25a590abd50777" x1="5.252" x2="28.003" y1="12.971" y2="16.854" gradientUnits="userSpaceOnUse"><stop offset=".07" stop-color="#77FE9E"/><stop offset=".369" stop-color="#72A7FF"/><stop offset="1" stop-color="#EC02D5"/></linearGradient><linearGradient id="IconifyId195ac99e25a590abd50778" x1="5.252" x2="28.003" y1="12.971" y2="16.854" gradientUnits="userSpaceOnUse"><stop offset=".07" stop-color="#77FE9E"/><stop offset=".369" stop-color="#72A7FF"/><stop offset="1" stop-color="#EC02D5"/></linearGradient><linearGradient id="IconifyId195ac99e25a590abd50779" x1="5.252" x2="28.003" y1="12.971" y2="16.854" gradientUnits="userSpaceOnUse"><stop offset=".07" stop-color="#77FE9E"/><stop offset=".369" stop-color="#72A7FF"/><stop offset="1" stop-color="#EC02D5"/></linearGradient><linearGradient id="IconifyId195ac99e25a590abd50780" x1="5.252" x2="28.003" y1="12.971" y2="16.854" gradientUnits="userSpaceOnUse"><stop offset=".07" stop-color="#77FE9E"/><stop offset=".369" stop-color="#72A7FF"/><stop offset="1" stop-color="#EC02D5"/></linearGradient><linearGradient id="IconifyId195ac99e25a590abd50781" x1="5.252" x2="28.003" y1="12.971" y2="16.854" gradientUnits="userSpaceOnUse"><stop offset=".07" stop-color="#77FE9E"/><stop offset=".369" stop-color="#72A7FF"/><stop offset="1" stop-color="#EC02D5"/></linearGradient><linearGradient id="IconifyId195ac99e25a590abd50782" x1="5.252" x2="28.003" y1="12.971" y2="16.854" gradientUnits="userSpaceOnUse"><stop offset=".07" stop-color="#77FE9E"/><stop offset=".369" stop-color="#72A7FF"/><stop offset="1" stop-color="#EC02D5"/></linearGradient><linearGradient id="IconifyId195ac99e25a590abd50783" x1="5.252" x2="28.003" y1="12.971" y2="16.854" gradientUnits="userSpaceOnUse"><stop offset=".07" stop-color="#77FE9E"/><stop offset=".369" stop-color="#72A7FF"/><stop offset="1" stop-color="#EC02D5"/></linearGradient><linearGradient id="IconifyId195ac99e25a590abd50784" x1="5.252" x2="28.003" y1="12.971" y2="16.854" gradientUnits="userSpaceOnUse"><stop offset=".07" stop-color="#77FE9E"/><stop offset=".369" stop-color="#72A7FF"/><stop offset="1" stop-color="#EC02D5"/></linearGradient><linearGradient id="IconifyId195ac99e25a590abd50785" x1="5.252" x2="28.003" y1="12.971" y2="16.854" gradientUnits="userSpaceOnUse"><stop offset=".07" stop-color="#77FE9E"/><stop offset=".369" stop-color="#72A7FF"/><stop offset="1" stop-color="#EC02D5"/></linearGradient><linearGradient id="IconifyId195ac99e25a590abd50786" x1="5.252" x2="28.003" y1="12.971" y2="16.854" gradientUnits="userSpaceOnUse"><stop offset=".07" stop-color="#77FE9E"/><stop offset=".369" stop-color="#72A7FF"/><stop offset="1" stop-color="#EC02D5"/></linearGradient><linearGradient id="IconifyId195ac99e25a590abd50787" x1="5.252" x2="28.003" y1="12.971" y2="16.854" gradientUnits="userSpaceOnUse"><stop offset=".07" stop-color="#77FE9E"/><stop offset=".369" stop-color="#72A7FF"/><stop offset="1" stop-color="#EC02D5"/></linearGradient><linearGradient id="IconifyId195ac99e25a590abd50788" x1="5.252" x2="28.003" y1="12.971" y2="16.854" gradientUnits="userSpaceOnUse"><stop offset=".07" stop-color="#77FE9E"/><stop offset=".369" stop-color="#72A7FF"/><stop offset="1" stop-color="#EC02D5"/></linearGradient><linearGradient id="IconifyId195ac99e25a590abd50789" x1="5.252" x2="28.003" y1="12.971" y2="16.854" gradientUnits="userSpaceOnUse"><stop offset=".07" stop-color="#77FE9E"/><stop offset=".369" stop-color="#72A7FF"/><stop offset="1" stop-color="#EC02D5"/></linearGradient><linearGradient id="IconifyId195ac99e25a590abd50790" x1="5.252" x2="28.003" y1="12.971" y2="16.854" gradientUnits="userSpaceOnUse"><stop offset=".07" stop-color="#77FE9E"/><stop offset=".369" stop-color="#72A7FF"/><stop offset="1" stop-color="#EC02D5"/></linearGradient><linearGradient id="IconifyId195ac99e25a590abd50791" x1="5.252" x2="28.003" y1="12.971" y2="16.854" gradientUnits="userSpaceOnUse"><stop offset=".07" stop-color="#77FE9E"/><stop offset=".369" stop-color="#72A7FF"/><stop offset="1" stop-color="#EC02D5"/></linearGradient><linearGradient id="IconifyId195ac99e25a590abd50792" x1="5.252" x2="28.003" y1="12.971" y2="16.854" gradientUnits="userSpaceOnUse"><stop offset=".07" stop-color="#77FE9E"/><stop offset=".369" stop-color="#72A7FF"/><stop offset="1" stop-color="#EC02D5"/></linearGradient><linearGradient id="IconifyId195ac99e25a590abd50793" x1="5.252" x2="28.003" y1="12.971" y2="16.854" gradientUnits="userSpaceOnUse"><stop offset=".07" stop-color="#77FE9E"/><stop offset=".369" stop-color="#72A7FF"/><stop offset="1" stop-color="#EC02D5"/></linearGradient><linearGradient id="IconifyId195ac99e25a590abd50794" x1="5.252" x2="28.003" y1="12.971" y2="16.854" gradientUnits="userSpaceOnUse"><stop offset=".07" stop-color="#77FE9E"/><stop offset=".369" stop-color="#72A7FF"/><stop offset="1" stop-color="#EC02D5"/></linearGradient><linearGradient id="IconifyId195ac99e25a590abd50795" x1="5.252" x2="28.003" y1="12.971" y2="16.854" gradientUnits="userSpaceOnUse"><stop offset=".07" stop-color="#77FE9E"/><stop offset=".369" stop-color="#72A7FF"/><stop offset="1" stop-color="#EC02D5"/></linearGradient><linearGradient id="IconifyId195ac99e25a590abd50796" x1="5.252" x2="28.003" y1="12.971" y2="16.854" gradientUnits="userSpaceOnUse"><stop offset=".07" stop-color="#77FE9E"/><stop offset=".369" stop-color="#72A7FF"/><stop offset="1" stop-color="#EC02D5"/></linearGradient><linearGradient id="IconifyId195ac99e25a590abd50797" x1="5.252" x2="28.003" y1="12.971" y2="16.854" gradientUnits="userSpaceOnUse"><stop offset=".07" stop-color="#77FE9E"/><stop offset=".369" stop-color="#72A7FF"/><stop offset="1" stop-color="#EC02D5"/></linearGradient><linearGradient id="IconifyId195ac99e25a590abd50798" x1="5.252" x2="28.003" y1="12.971" y2="16.854" gradientUnits="userSpaceOnUse"><stop offset=".07" stop-color="#77FE9E"/><stop offset=".369" stop-color="#72A7FF"/><stop offset="1" stop-color="#EC02D5"/></linearGradient><linearGradient id="IconifyId195ac99e25a590abd50799" x1="5.252" x2="28.003" y1="12.971" y2="16.854" gradientUnits="userSpaceOnUse"><stop offset=".07" stop-color="#77FE9E"/><stop offset=".369" stop-color="#72A7FF"/><stop offset="1" stop-color="#EC02D5"/></linearGradient><linearGradient id="IconifyId195ac99e25a590abd50800" x1="5.252" x2="28.003" y1="12.971" y2="16.854" gradientUnits="userSpaceOnUse"><stop offset=".07" stop-color="#77FE9E"/><stop offset=".369" stop-color="#72A7FF"/><stop offset="1" stop-color="#EC02D5"/></linearGradient></defs></g></svg>