<svg xmlns="http://www.w3.org/2000/svg" width="1em" height="1em" viewBox="0 0 24 24"><mask id="IconifyId195ad048a32870fdf50729" width="5" height="5" x="13" y="3" maskUnits="userSpaceOnUse" style="mask-type:alpha"><path fill="#fff" d="M13.892 3v4.098l3.554-2.046z"/></mask><mask id="IconifyId195ad048a32870fdf50730" width="4" height="5" x="17" y="5" maskUnits="userSpaceOnUse" style="mask-type:alpha"><path fill="#fff" d="M17.446 5.052v4.097L21 7.098z" opacity=".9"/></mask><mask id="IconifyId195ad048a32870fdf50731" width="5" height="5" x="13" y="7" maskUnits="userSpaceOnUse" style="mask-type:alpha"><path fill="#fff" d="M13.892 7.097v4.098l3.554-2.046z" opacity=".8"/></mask><mask id="IconifyId195ad048a32870fdf50732" width="4" height="5" x="17" y="9" maskUnits="userSpaceOnUse" style="mask-type:alpha"><path fill="#fff" d="M17.446 9.15v4.097L21 11.195z" opacity=".8"/></mask><mask id="IconifyId195ad048a32870fdf50733" width="5" height="5" x="13" y="11" maskUnits="userSpaceOnUse" style="mask-type:alpha"><path fill="#fff" d="M13.892 11.195v4.098l3.554-2.046z" opacity=".8"/></mask><mask id="IconifyId195ad048a32870fdf50734" width="4" height="5" x="17" y="13" maskUnits="userSpaceOnUse" style="mask-type:alpha"><path fill="#fff" d="M17.446 13.246v4.098L21 15.292z"/></mask><mask id="IconifyId195ad048a32870fdf50735" width="5" height="6" x="4" y="6" maskUnits="userSpaceOnUse" style="mask-type:alpha"><path fill="#fff" d="M4.704 6.96v4.097l3.554-2.052z" opacity=".4"/></mask><mask id="IconifyId195ad048a32870fdf50736" width="4" height="5" x="9" y="8" maskUnits="userSpaceOnUse" style="mask-type:alpha"><path fill="#fff" d="M9.19 8.483v4.097l3.548-2.046z" opacity=".2"/></mask><mask id="IconifyId195ad048a32870fdf50737" width="5" height="5" x="6" y="11" maskUnits="userSpaceOnUse" style="mask-type:alpha"><path fill="#fff" d="M6.554 11.075v4.097l3.554-2.052z" opacity=".3"/></mask><mask id="IconifyId195ad048a32870fdf50738" width="5" height="5" x="8" y="14" maskUnits="userSpaceOnUse" style="mask-type:alpha"><path fill="#fff" d="M8.896 14.166v4.098l3.549-2.052z" opacity=".9"/></mask><mask id="IconifyId195ad048a32870fdf50739" width="5" height="6" x="13" y="15" maskUnits="userSpaceOnUse" style="mask-type:alpha"><path fill="#fff" d="M13.863 15.93v4.097l3.548-2.052z" opacity=".7"/></mask><mask id="IconifyId195ad048a32870fdf50740" width="5" height="5" x="9" y="6" maskUnits="userSpaceOnUse" style="mask-type:alpha"><path fill="#fff" d="M9.78 6.46v4.097l3.549-2.046z" opacity=".9"/></mask><mask id="IconifyId195ad048a32870fdf50741" width="4" height="5" x="10" y="3" maskUnits="userSpaceOnUse" style="mask-type:alpha"><path fill="#fff" d="M13.892 3v4.098l-3.555-2.046z" opacity=".8"/></mask><mask id="IconifyId195ad048a32870fdf50742" width="4" height="5" x="6" y="4" maskUnits="userSpaceOnUse" style="mask-type:alpha"><path fill="#fff" d="M9.781 4.741v4.097L6.227 6.787z" opacity=".6"/></mask><mask id="IconifyId195ad048a32870fdf50743" width="5" height="5" x="9" y="6" maskUnits="userSpaceOnUse" style="mask-type:alpha"><path fill="#fff" d="M13.335 6.77v4.097L9.78 8.816z" opacity=".6"/></mask><mask id="IconifyId195ad048a32870fdf50744" width="5" height="5" x="5" y="8" maskUnits="userSpaceOnUse" style="mask-type:alpha"><path fill="#fff" d="M9.173 8.483v4.097l-3.555-2.046z" opacity=".95"/></mask><mask id="IconifyId195ad048a32870fdf50745" width="4" height="5" x="10" y="11" maskUnits="userSpaceOnUse" style="mask-type:alpha"><path fill="#fff" d="M13.892 11.195v4.098l-3.549-2.046z" opacity=".6"/></mask><mask id="IconifyId195ad048a32870fdf50746" width="4" height="5" x="3" y="12" maskUnits="userSpaceOnUse" style="mask-type:alpha"><path fill="#fff" d="M6.554 12.15v4.097L3 14.195z" opacity=".55"/></mask><mask id="IconifyId195ad048a32870fdf50747" width="4" height="5" x="17" y="7" maskUnits="userSpaceOnUse" style="mask-type:alpha"><path fill="#fff" d="M21 7.097v4.098l-3.555-2.046z"/></mask><mask id="IconifyId195ad048a32870fdf50748" width="5" height="5" x="13" y="9" maskUnits="userSpaceOnUse" style="mask-type:alpha"><path fill="#fff" d="M17.446 9.15v4.097l-3.555-2.052z" opacity=".95"/></mask><mask id="IconifyId195ad048a32870fdf50749" width="4" height="5" x="17" y="11" maskUnits="userSpaceOnUse" style="mask-type:alpha"><path fill="#fff" d="M21 11.195v4.098l-3.555-2.046z" opacity=".9"/></mask><mask id="IconifyId195ad048a32870fdf50750" width="5" height="5" x="13" y="13" maskUnits="userSpaceOnUse" style="mask-type:alpha"><path fill="#fff" d="M17.446 13.246v4.098l-3.555-2.052z" opacity=".7"/></mask><mask id="IconifyId195ad048a32870fdf50751" width="5" height="6" x="9" y="14" maskUnits="userSpaceOnUse" style="mask-type:alpha"><path fill="#fff" d="M13.105 14.954v4.097l-3.554-2.046z" opacity=".4"/></mask><mask id="IconifyId195ad048a32870fdf50752" width="5" height="5" x="13" y="5" maskUnits="userSpaceOnUse" style="mask-type:alpha"><path fill="#fff" d="M17.446 5.052v4.097L13.89 7.098z"/></mask><g fill="none"><g mask="url(#IconifyId195ad048a32870fdf50729)"><path fill="url(#IconifyId195ad048a32870fdf50753)" d="M22.095 2.045H2.726v19.09h19.369z"/></g><g mask="url(#IconifyId195ad048a32870fdf50730)"><path fill="url(#IconifyId195ad048a32870fdf50754)" d="M22.095 2.045H2.726v19.09h19.369z"/></g><g mask="url(#IconifyId195ad048a32870fdf50731)"><path fill="url(#IconifyId195ad048a32870fdf50755)" d="M22.095 2.045H2.726v19.09h19.369z"/></g><g mask="url(#IconifyId195ad048a32870fdf50732)"><path fill="url(#IconifyId195ad048a32870fdf50756)" d="M22.095 2.045H2.726v19.09h19.369z"/></g><g mask="url(#IconifyId195ad048a32870fdf50733)"><path fill="url(#IconifyId195ad048a32870fdf50757)" d="M22.095 2.045H2.726v19.09h19.369z"/></g><g mask="url(#IconifyId195ad048a32870fdf50734)"><path fill="url(#IconifyId195ad048a32870fdf50758)" d="M22.095 2.045H2.726v19.09h19.369z"/></g><g mask="url(#IconifyId195ad048a32870fdf50735)"><path fill="url(#IconifyId195ad048a32870fdf50759)" d="M22.095 2.045H2.726v19.09h19.369z"/></g><g mask="url(#IconifyId195ad048a32870fdf50736)"><path fill="url(#IconifyId195ad048a32870fdf50760)" d="M22.095 2.045H2.726v19.09h19.369z"/></g><g mask="url(#IconifyId195ad048a32870fdf50737)"><path fill="url(#IconifyId195ad048a32870fdf50761)" d="M22.095 2.045H2.726v19.09h19.369z"/></g><g mask="url(#IconifyId195ad048a32870fdf50738)"><path fill="url(#IconifyId195ad048a32870fdf50762)" d="M22.095 2.045H2.726v19.09h19.369z"/></g><g mask="url(#IconifyId195ad048a32870fdf50739)"><path fill="url(#IconifyId195ad048a32870fdf50763)" d="M22.095 2.045H2.726v19.09h19.369z"/></g><g mask="url(#IconifyId195ad048a32870fdf50740)"><path fill="url(#IconifyId195ad048a32870fdf50764)" d="M22.095 2.045H2.726v19.09h19.369z"/></g><g mask="url(#IconifyId195ad048a32870fdf50741)"><path fill="url(#IconifyId195ad048a32870fdf50765)" d="M22.095 2.045H2.726v19.09h19.369z"/></g><g mask="url(#IconifyId195ad048a32870fdf50742)"><path fill="url(#IconifyId195ad048a32870fdf50766)" d="M22.095 2.045H2.726v19.09h19.369z"/></g><g mask="url(#IconifyId195ad048a32870fdf50743)"><path fill="url(#IconifyId195ad048a32870fdf50767)" d="M22.095 2.045H2.726v19.09h19.369z"/></g><g mask="url(#IconifyId195ad048a32870fdf50744)"><path fill="url(#IconifyId195ad048a32870fdf50768)" d="M22.095 2.045H2.726v19.09h19.369z"/></g><g mask="url(#IconifyId195ad048a32870fdf50745)"><path fill="url(#IconifyId195ad048a32870fdf50769)" d="M22.095 2.045H2.726v19.09h19.369z"/></g><g mask="url(#IconifyId195ad048a32870fdf50746)"><path fill="url(#IconifyId195ad048a32870fdf50770)" d="M22.095 2.045H2.726v19.09h19.369z"/></g><g mask="url(#IconifyId195ad048a32870fdf50747)"><path fill="url(#IconifyId195ad048a32870fdf50771)" d="M22.095 2.045H2.726v19.09h19.369z"/></g><g mask="url(#IconifyId195ad048a32870fdf50748)"><path fill="url(#IconifyId195ad048a32870fdf50772)" d="M22.095 2.045H2.726v19.09h19.369z"/></g><g mask="url(#IconifyId195ad048a32870fdf50749)"><path fill="url(#IconifyId195ad048a32870fdf50773)" d="M22.095 2.045H2.726v19.09h19.369z"/></g><g mask="url(#IconifyId195ad048a32870fdf50750)"><path fill="url(#IconifyId195ad048a32870fdf50774)" d="M22.095 2.045H2.726v19.09h19.369z"/></g><g mask="url(#IconifyId195ad048a32870fdf50751)"><path fill="url(#IconifyId195ad048a32870fdf50775)" d="M22.095 2.045H2.726v19.09h19.369z"/></g><g mask="url(#IconifyId195ad048a32870fdf50752)"><path fill="url(#IconifyId195ad048a32870fdf50776)" d="M22.095 2.045H2.726v19.09h19.369z"/></g><defs><linearGradient id="IconifyId195ad048a32870fdf50753" x1="5.252" x2="28.003" y1="12.971" y2="16.854" gradientUnits="userSpaceOnUse"><stop offset=".07" stop-color="#77FE9E"/><stop offset=".369" stop-color="#72A7FF"/><stop offset="1" stop-color="#EC02D5"/></linearGradient><linearGradient id="IconifyId195ad048a32870fdf50754" x1="5.252" x2="28.003" y1="12.971" y2="16.854" gradientUnits="userSpaceOnUse"><stop offset=".07" stop-color="#77FE9E"/><stop offset=".369" stop-color="#72A7FF"/><stop offset="1" stop-color="#EC02D5"/></linearGradient><linearGradient id="IconifyId195ad048a32870fdf50755" x1="5.252" x2="28.003" y1="12.971" y2="16.854" gradientUnits="userSpaceOnUse"><stop offset=".07" stop-color="#77FE9E"/><stop offset=".369" stop-color="#72A7FF"/><stop offset="1" stop-color="#EC02D5"/></linearGradient><linearGradient id="IconifyId195ad048a32870fdf50756" x1="5.252" x2="28.003" y1="12.971" y2="16.854" gradientUnits="userSpaceOnUse"><stop offset=".07" stop-color="#77FE9E"/><stop offset=".369" stop-color="#72A7FF"/><stop offset="1" stop-color="#EC02D5"/></linearGradient><linearGradient id="IconifyId195ad048a32870fdf50757" x1="5.252" x2="28.003" y1="12.971" y2="16.854" gradientUnits="userSpaceOnUse"><stop offset=".07" stop-color="#77FE9E"/><stop offset=".369" stop-color="#72A7FF"/><stop offset="1" stop-color="#EC02D5"/></linearGradient><linearGradient id="IconifyId195ad048a32870fdf50758" x1="5.252" x2="28.003" y1="12.971" y2="16.854" gradientUnits="userSpaceOnUse"><stop offset=".07" stop-color="#77FE9E"/><stop offset=".369" stop-color="#72A7FF"/><stop offset="1" stop-color="#EC02D5"/></linearGradient><linearGradient id="IconifyId195ad048a32870fdf50759" x1="5.252" x2="28.003" y1="12.971" y2="16.854" gradientUnits="userSpaceOnUse"><stop offset=".07" stop-color="#77FE9E"/><stop offset=".369" stop-color="#72A7FF"/><stop offset="1" stop-color="#EC02D5"/></linearGradient><linearGradient id="IconifyId195ad048a32870fdf50760" x1="5.252" x2="28.003" y1="12.971" y2="16.854" gradientUnits="userSpaceOnUse"><stop offset=".07" stop-color="#77FE9E"/><stop offset=".369" stop-color="#72A7FF"/><stop offset="1" stop-color="#EC02D5"/></linearGradient><linearGradient id="IconifyId195ad048a32870fdf50761" x1="5.252" x2="28.003" y1="12.971" y2="16.854" gradientUnits="userSpaceOnUse"><stop offset=".07" stop-color="#77FE9E"/><stop offset=".369" stop-color="#72A7FF"/><stop offset="1" stop-color="#EC02D5"/></linearGradient><linearGradient id="IconifyId195ad048a32870fdf50762" x1="5.252" x2="28.003" y1="12.971" y2="16.854" gradientUnits="userSpaceOnUse"><stop offset=".07" stop-color="#77FE9E"/><stop offset=".369" stop-color="#72A7FF"/><stop offset="1" stop-color="#EC02D5"/></linearGradient><linearGradient id="IconifyId195ad048a32870fdf50763" x1="5.252" x2="28.003" y1="12.971" y2="16.854" gradientUnits="userSpaceOnUse"><stop offset=".07" stop-color="#77FE9E"/><stop offset=".369" stop-color="#72A7FF"/><stop offset="1" stop-color="#EC02D5"/></linearGradient><linearGradient id="IconifyId195ad048a32870fdf50764" x1="5.252" x2="28.003" y1="12.971" y2="16.854" gradientUnits="userSpaceOnUse"><stop offset=".07" stop-color="#77FE9E"/><stop offset=".369" stop-color="#72A7FF"/><stop offset="1" stop-color="#EC02D5"/></linearGradient><linearGradient id="IconifyId195ad048a32870fdf50765" x1="5.252" x2="28.003" y1="12.971" y2="16.854" gradientUnits="userSpaceOnUse"><stop offset=".07" stop-color="#77FE9E"/><stop offset=".369" stop-color="#72A7FF"/><stop offset="1" stop-color="#EC02D5"/></linearGradient><linearGradient id="IconifyId195ad048a32870fdf50766" x1="5.252" x2="28.003" y1="12.971" y2="16.854" gradientUnits="userSpaceOnUse"><stop offset=".07" stop-color="#77FE9E"/><stop offset=".369" stop-color="#72A7FF"/><stop offset="1" stop-color="#EC02D5"/></linearGradient><linearGradient id="IconifyId195ad048a32870fdf50767" x1="5.252" x2="28.003" y1="12.971" y2="16.854" gradientUnits="userSpaceOnUse"><stop offset=".07" stop-color="#77FE9E"/><stop offset=".369" stop-color="#72A7FF"/><stop offset="1" stop-color="#EC02D5"/></linearGradient><linearGradient id="IconifyId195ad048a32870fdf50768" x1="5.252" x2="28.003" y1="12.971" y2="16.854" gradientUnits="userSpaceOnUse"><stop offset=".07" stop-color="#77FE9E"/><stop offset=".369" stop-color="#72A7FF"/><stop offset="1" stop-color="#EC02D5"/></linearGradient><linearGradient id="IconifyId195ad048a32870fdf50769" x1="5.252" x2="28.003" y1="12.971" y2="16.854" gradientUnits="userSpaceOnUse"><stop offset=".07" stop-color="#77FE9E"/><stop offset=".369" stop-color="#72A7FF"/><stop offset="1" stop-color="#EC02D5"/></linearGradient><linearGradient id="IconifyId195ad048a32870fdf50770" x1="5.252" x2="28.003" y1="12.971" y2="16.854" gradientUnits="userSpaceOnUse"><stop offset=".07" stop-color="#77FE9E"/><stop offset=".369" stop-color="#72A7FF"/><stop offset="1" stop-color="#EC02D5"/></linearGradient><linearGradient id="IconifyId195ad048a32870fdf50771" x1="5.252" x2="28.003" y1="12.971" y2="16.854" gradientUnits="userSpaceOnUse"><stop offset=".07" stop-color="#77FE9E"/><stop offset=".369" stop-color="#72A7FF"/><stop offset="1" stop-color="#EC02D5"/></linearGradient><linearGradient id="IconifyId195ad048a32870fdf50772" x1="5.252" x2="28.003" y1="12.971" y2="16.854" gradientUnits="userSpaceOnUse"><stop offset=".07" stop-color="#77FE9E"/><stop offset=".369" stop-color="#72A7FF"/><stop offset="1" stop-color="#EC02D5"/></linearGradient><linearGradient id="IconifyId195ad048a32870fdf50773" x1="5.252" x2="28.003" y1="12.971" y2="16.854" gradientUnits="userSpaceOnUse"><stop offset=".07" stop-color="#77FE9E"/><stop offset=".369" stop-color="#72A7FF"/><stop offset="1" stop-color="#EC02D5"/></linearGradient><linearGradient id="IconifyId195ad048a32870fdf50774" x1="5.252" x2="28.003" y1="12.971" y2="16.854" gradientUnits="userSpaceOnUse"><stop offset=".07" stop-color="#77FE9E"/><stop offset=".369" stop-color="#72A7FF"/><stop offset="1" stop-color="#EC02D5"/></linearGradient><linearGradient id="IconifyId195ad048a32870fdf50775" x1="5.252" x2="28.003" y1="12.971" y2="16.854" gradientUnits="userSpaceOnUse"><stop offset=".07" stop-color="#77FE9E"/><stop offset=".369" stop-color="#72A7FF"/><stop offset="1" stop-color="#EC02D5"/></linearGradient><linearGradient id="IconifyId195ad048a32870fdf50776" x1="5.252" x2="28.003" y1="12.971" y2="16.854" gradientUnits="userSpaceOnUse"><stop offset=".07" stop-color="#77FE9E"/><stop offset=".369" stop-color="#72A7FF"/><stop offset="1" stop-color="#EC02D5"/></linearGradient></defs></g></svg>