<svg xmlns="http://www.w3.org/2000/svg" width="1em" height="1em" viewBox="0 0 24 24"><g fill="none"><path fill="url(#IconifyId195ad048a32870fdf50834)" d="m3 12l1.421-1.422L5.842 12l-1.42 1.421z"/><path fill="url(#IconifyId195ad048a32870fdf50835)" d="m4.895 13.895l1.42-1.421l3.316 3.315l-1.42 1.422z"/><path fill="url(#IconifyId195ad048a32870fdf50836)" d="m8.684 13.895l1.421-1.421l1.421 1.42l-1.42 1.422z"/><path fill="url(#IconifyId195ad048a32870fdf50837)" d="M10.58 12L12 10.577L13.423 12L12 13.42z"/><path fill="url(#IconifyId195ad048a32870fdf50838)" d="m12.474 10.106l1.421-1.421l1.421 1.42l-1.42 1.422z"/><path fill="#F3BA2F" d="m14.369 8.21l1.42-1.42l3.317 3.315l-1.422 1.42z"/><path fill="url(#IconifyId195ad048a32870fdf50839)" d="m12.474 13.895l1.421-1.421l1.421 1.42l-1.42 1.422z"/><path fill="url(#IconifyId195ad048a32870fdf50840)" d="m14.369 15.79l3.315-3.316l1.422 1.42l-3.316 3.316z"/><path fill="#F3BA2F" d="m18.158 12l1.421-1.422L21 12l-1.42 1.421z"/><path fill="url(#IconifyId195ad048a32870fdf50841)" d="M4.895 10.105L8.21 6.789L9.631 8.21l-3.315 3.316z"/><path fill="url(#IconifyId195ad048a32870fdf50842)" d="m8.684 10.106l1.421-1.421l1.421 1.42l-1.42 1.422z"/><defs><linearGradient id="IconifyId195ad048a32870fdf50834" x1="9.394" x2="10.825" y1="10.815" y2="9.389" gradientUnits="userSpaceOnUse"><stop stop-color="#4086FF"/><stop offset="1" stop-color="#48D5FF"/></linearGradient><linearGradient id="IconifyId195ad048a32870fdf50835" x1="9.3" x2="12.02" y1="13.563" y2="8.865" gradientUnits="userSpaceOnUse"><stop stop-color="#4086FF"/><stop offset="1" stop-color="#48D5FF"/></linearGradient><linearGradient id="IconifyId195ad048a32870fdf50836" x1="9.395" x2="10.825" y1="10.816" y2="9.39" gradientUnits="userSpaceOnUse"><stop stop-color="#4086FF"/><stop offset="1" stop-color="#48D5FF"/></linearGradient><linearGradient id="IconifyId195ad048a32870fdf50837" x1="7.501" x2="12.019" y1="14.605" y2="6.799" gradientUnits="userSpaceOnUse"><stop stop-color="#E8BB41"/><stop offset="1" stop-color="#F6DA5B"/></linearGradient><linearGradient id="IconifyId195ad048a32870fdf50838" x1="7.5" x2="12.019" y1="14.606" y2="6.801" gradientUnits="userSpaceOnUse"><stop stop-color="#E8BB41"/><stop offset="1" stop-color="#F6DA5B"/></linearGradient><linearGradient id="IconifyId195ad048a32870fdf50839" x1="7.5" x2="12.019" y1="14.605" y2="6.8" gradientUnits="userSpaceOnUse"><stop stop-color="#E8BB41"/><stop offset="1" stop-color="#F6DA5B"/></linearGradient><linearGradient id="IconifyId195ad048a32870fdf50840" x1="5.7" x2="12.026" y1="15.647" y2="4.72" gradientUnits="userSpaceOnUse"><stop stop-color="#E8BB41"/><stop offset="1" stop-color="#F6DA5B"/></linearGradient><linearGradient id="IconifyId195ad048a32870fdf50841" x1="5.7" x2="12.107" y1="15.647" y2="4.673" gradientUnits="userSpaceOnUse"><stop stop-color="#4086FF"/><stop offset="1" stop-color="#48D5FF"/></linearGradient><linearGradient id="IconifyId195ad048a32870fdf50842" x1="9.395" x2="10.825" y1="10.816" y2="9.39" gradientUnits="userSpaceOnUse"><stop stop-color="#4086FF"/><stop offset="1" stop-color="#48D5FF"/></linearGradient></defs></g></svg>