<svg xmlns="http://www.w3.org/2000/svg" width="1em" height="1em" viewBox="0 0 72 72"><defs><path id="IconifyId195ac99e25a590abd169420" d="m55.19 44.14l.425 1.381h3.504l.336-1.381m-2.165.13v1.229m-7.369 1.044l.425 1.381h3.504l.336-1.381m-2.165.13v1.229m3.115-1.359l.425 1.381h3.504l.336-1.381m-2.165.13v1.229m-2.031 3.389l.425 1.381h3.504l.336-1.381m-2.165.13v1.229m-5.007-3.657l.425 1.381h3.504l.336-1.381m-2.165.13v1.229m5.952-3.809l.425 1.381h3.504l.336-1.381m-2.165.13v1.229m-4.438 1.091l.425 1.381h3.504l.336-1.381m-2.165.13v1.229"/><path id="IconifyId195ac99e25a590abd169421" d="M8.613 26.61s1.511-7.361 3.138 0"/><path id="IconifyId195ac99e25a590abd169422" d="m10.18 19.58l.005 2.448"/><path id="IconifyId195ac99e25a590abd169423" d="M8.909 20.01v2.077"/><path id="IconifyId195ac99e25a590abd169424" d="M11.46 20v2.099"/><path id="IconifyId195ac99e25a590abd169425" d="M8.544 22.09h3.286m2.292 4.405s1.511-7.361 3.138 0"/><path id="IconifyId195ac99e25a590abd169426" d="m15.689 19.465l.005 2.448"/><path id="IconifyId195ac99e25a590abd169427" d="M14.418 19.895v2.077"/><path id="IconifyId195ac99e25a590abd169428" d="M16.969 19.885v2.099"/><path id="IconifyId195ac99e25a590abd169429" d="M14.053 21.975h3.286m-3.217 4.52s1.511-7.361 3.138 0"/><path id="IconifyId195ac99e25a590abd169430" d="M14.053 21.975h3.286M8.634 34.643s1.511-7.361 3.138 0"/><path id="IconifyId195ac99e25a590abd169431" d="m10.201 27.613l.005 2.448"/><path id="IconifyId195ac99e25a590abd169432" d="M8.93 28.043v2.077"/><path id="IconifyId195ac99e25a590abd169433" d="M11.481 28.033v2.099"/><path id="IconifyId195ac99e25a590abd169434" d="M8.565 30.123h3.286m2.271 4.406s1.511-7.361 3.138 0"/><path id="IconifyId195ac99e25a590abd169435" d="m15.689 27.499l.005 2.448"/><path id="IconifyId195ac99e25a590abd169436" d="M14.418 27.929v2.077"/><path id="IconifyId195ac99e25a590abd169437" d="M16.969 27.919v2.099"/><path id="IconifyId195ac99e25a590abd169438" d="M14.053 30.009h3.286"/></defs><g fill="none" stroke="#000" stroke-linecap="round"><use href="#IconifyId195ac99e25a590abd169420" stroke-width=".75"/><use href="#IconifyId195ac99e25a590abd169421"/><use href="#IconifyId195ac99e25a590abd169422" stroke-width=".999"/><use href="#IconifyId195ac99e25a590abd169423" stroke-width=".924"/><use href="#IconifyId195ac99e25a590abd169424" stroke-width=".928"/><use href="#IconifyId195ac99e25a590abd169425"/><use href="#IconifyId195ac99e25a590abd169426" stroke-width=".999"/><use href="#IconifyId195ac99e25a590abd169427" stroke-width=".924"/><use href="#IconifyId195ac99e25a590abd169428" stroke-width=".928"/><use href="#IconifyId195ac99e25a590abd169429"/><use href="#IconifyId195ac99e25a590abd169426" stroke-width=".999"/><use href="#IconifyId195ac99e25a590abd169427" stroke-width=".924"/><use href="#IconifyId195ac99e25a590abd169428" stroke-width=".928"/><use href="#IconifyId195ac99e25a590abd169430"/><use href="#IconifyId195ac99e25a590abd169431" stroke-width=".999"/><use href="#IconifyId195ac99e25a590abd169432" stroke-width=".924"/><use href="#IconifyId195ac99e25a590abd169433" stroke-width=".928"/><use href="#IconifyId195ac99e25a590abd169434"/><use href="#IconifyId195ac99e25a590abd169435" stroke-width=".999"/><use href="#IconifyId195ac99e25a590abd169436" stroke-width=".924"/><use href="#IconifyId195ac99e25a590abd169437" stroke-width=".928"/><use href="#IconifyId195ac99e25a590abd169438"/></g><path fill="#781e32" d="M5 17h62v38H5z"/><use href="#IconifyId195ac99e25a590abd169420" fill="none" stroke="#fcea2b" stroke-linecap="round" stroke-width=".75"/><g fill="none" stroke="#fcea2b" stroke-linecap="round"><use href="#IconifyId195ac99e25a590abd169421"/><use href="#IconifyId195ac99e25a590abd169422" stroke-width=".999"/><use href="#IconifyId195ac99e25a590abd169423" stroke-width=".924"/><use href="#IconifyId195ac99e25a590abd169424" stroke-width=".928"/><use href="#IconifyId195ac99e25a590abd169425"/><use href="#IconifyId195ac99e25a590abd169426" stroke-width=".999"/><use href="#IconifyId195ac99e25a590abd169427" stroke-width=".924"/><use href="#IconifyId195ac99e25a590abd169428" stroke-width=".928"/><use href="#IconifyId195ac99e25a590abd169429"/><use href="#IconifyId195ac99e25a590abd169426" stroke-width=".999"/><use href="#IconifyId195ac99e25a590abd169427" stroke-width=".924"/><use href="#IconifyId195ac99e25a590abd169428" stroke-width=".928"/><use href="#IconifyId195ac99e25a590abd169430"/><use href="#IconifyId195ac99e25a590abd169431" stroke-width=".999"/><use href="#IconifyId195ac99e25a590abd169432" stroke-width=".924"/><use href="#IconifyId195ac99e25a590abd169433" stroke-width=".928"/><use href="#IconifyId195ac99e25a590abd169434"/><use href="#IconifyId195ac99e25a590abd169435" stroke-width=".999"/><use href="#IconifyId195ac99e25a590abd169436" stroke-width=".924"/><use href="#IconifyId195ac99e25a590abd169437" stroke-width=".928"/><use href="#IconifyId195ac99e25a590abd169438"/></g><path fill="none" stroke="#000" stroke-linecap="round" stroke-linejoin="round" stroke-width="2" d="M5 17h62v38H5z"/></svg>