<svg xmlns="http://www.w3.org/2000/svg" width="1em" height="1em" viewBox="0 0 72 72"><defs><path id="IconifyId195ad048a32870fdf173180" d="M59.035 60h-46.07a.97.97 0 0 1-.965-.965v-46.07a.97.97 0 0 1 .965-.965h46.07a.97.97 0 0 1 .965.965v46.07a.97.97 0 0 1-.965.965"/><path id="IconifyId195ad048a32870fdf173181" d="M35.75 46.512a7.857 7.857 0 0 1-7.857-7.857v-6.286a7.857 7.857 0 0 1 7.857-7.857a7.857 7.857 0 0 1 7.857 7.857v6.286a7.857 7.857 0 0 1-7.857 7.857"/></defs><g fill="none" stroke="#000" stroke-width="2"><use href="#IconifyId195ad048a32870fdf173180" stroke-miterlimit="10"/><use href="#IconifyId195ad048a32870fdf173181" stroke-linecap="round" stroke-linejoin="round"/></g><path fill="#d22f27" d="M59.035 60h-46.07a.97.97 0 0 1-.965-.965v-46.07a.97.97 0 0 1 .965-.965h46.07a.97.97 0 0 1 .965.965v46.07a.97.97 0 0 1-.965.965"/><g fill="none" stroke="#fff" stroke-width="2"><use href="#IconifyId195ad048a32870fdf173180" stroke-miterlimit="10"/><use href="#IconifyId195ad048a32870fdf173181" stroke-linecap="round" stroke-linejoin="round"/></g></svg>